<svg width="314" height="262" viewBox="0 0 314 262" fill="none" xmlns="http://www.w3.org/2000/svg">
<path d="M295.408 166.785C294.608 161.162 292.054 155.935 288.108 151.849C284.163 147.763 279.029 145.028 273.437 144.032C267.846 143.035 262.082 143.83 256.969 146.302C251.855 148.775 247.653 152.798 244.961 157.799C243.64 156.135 241.871 154.885 239.861 154.196C237.852 153.507 235.687 153.408 233.623 153.912C231.56 154.415 229.683 155.5 228.217 157.037C226.751 158.575 225.756 160.5 225.351 162.585C222.819 162.006 220.191 161.991 217.652 162.54C215.113 163.09 212.727 164.191 210.661 165.765C208.594 167.339 206.9 169.348 205.696 171.649C204.492 173.951 203.809 176.489 203.695 179.084C203.58 181.679 204.038 184.267 205.035 186.665C206.031 189.064 207.543 191.214 209.463 192.963C211.383 194.713 213.663 196.019 216.144 196.79C218.624 197.56 221.244 197.776 223.817 197.422L294.59 197.586C298.6 197.575 302.447 196.003 305.316 193.201C308.185 190.4 309.849 186.591 309.956 182.583C310.062 178.575 308.602 174.683 305.886 171.734C303.17 168.784 299.411 167.009 295.408 166.786V166.785Z" fill="#EFEF7B"/>
<path d="M127.643 123.996H119.503V122.614H126.259V57.769H147.866V69.937H154.537V42.116H175.072V76.43H184.927V51.569H200.303V13.094H220.611V33.812H235.989V56.301H247.127V57.683H234.607V35.194H219.234V14.476H201.69V52.951H186.312V77.812H173.692V43.501H155.921V71.322H146.486V59.151H127.643V123.996Z" fill="#3D36A4"/>
<path d="M301.022 146.614H294.531V85.248H280.901V12.632H267.855V25.378H258.455V1.378H231.786V34.438H230.404V0H259.84V24H266.473V11.254H282.283V83.87H295.909V145.235H301.021L301.022 146.614Z" fill="#3D36A4"/>
<path d="M108.033 95.895H68.857C64.5293 95.895 61.021 99.4033 61.021 103.731V189.199C61.021 193.527 64.5293 197.035 68.857 197.035H108.033C112.361 197.035 115.869 193.527 115.869 189.199V103.731C115.869 99.4033 112.361 95.895 108.033 95.895Z" fill="#3D36A4"/>
<path d="M67.157 99.696H109.733C110.352 99.696 110.946 99.942 111.384 100.38C111.822 100.818 112.068 101.412 112.068 102.031V190.896C112.068 191.516 111.822 192.11 111.384 192.548C110.946 192.986 110.352 193.232 109.732 193.232H67.158C66.5385 193.232 65.9443 192.986 65.5062 192.548C65.0681 192.11 64.822 191.516 64.822 190.896V102.031C64.822 101.412 65.068 100.818 65.5059 100.38C65.9438 99.942 66.5377 99.696 67.157 99.696Z" fill="white"/>
<path d="M88.445 168.72C84.0435 168.72 79.7409 167.414 76.0812 164.969C72.4215 162.523 69.5692 159.048 67.8849 154.981C66.2006 150.915 65.76 146.44 66.6187 142.123C67.4775 137.806 69.597 133.841 72.7094 130.728C75.8217 127.616 79.7871 125.496 84.1041 124.638C88.421 123.779 92.8957 124.22 96.9622 125.904C101.029 127.588 104.505 130.441 106.95 134.1C109.395 137.76 110.701 142.062 110.701 146.464C110.695 152.365 108.348 158.022 104.175 162.194C100.003 166.367 94.3458 168.714 88.445 168.72ZM88.445 125.043C84.2084 125.043 80.0668 126.299 76.5442 128.653C73.0215 131.007 70.2759 134.352 68.6546 138.267C67.0333 142.181 66.6091 146.488 67.4356 150.643C68.2622 154.798 70.3023 158.615 73.2981 161.611C76.2939 164.607 80.1107 166.647 84.266 167.473C88.4213 168.3 92.7283 167.876 96.6425 166.254C100.557 164.633 103.902 161.888 106.256 158.365C108.61 154.842 109.866 150.701 109.866 146.464C109.86 140.785 107.601 135.34 103.585 131.324C99.5691 127.308 94.1243 125.049 88.445 125.043Z" fill="#FF643D"/>
<path d="M88.4451 165.841C99.1462 165.841 107.821 157.166 107.821 146.465C107.821 135.764 99.1462 127.089 88.4451 127.089C77.744 127.089 69.0691 135.764 69.0691 146.465C69.0691 157.166 77.744 165.841 88.4451 165.841Z" fill="#FF643D"/>
<path d="M75.317 145.191C75.289 145.205 75.289 145.219 75.317 145.233C75.7603 145.462 75.982 145.842 75.982 146.374C75.982 146.827 75.828 147.17 75.52 147.403C75.212 147.632 74.8083 147.746 74.309 147.746H72.496C72.4727 147.746 72.4517 147.739 72.433 147.725C72.419 147.706 72.412 147.685 72.412 147.662V142.93C72.412 142.907 72.419 142.888 72.433 142.874C72.4517 142.855 72.4727 142.846 72.496 142.846H74.253C75.359 142.846 75.912 143.294 75.912 144.19C75.912 144.657 75.7137 144.99 75.317 145.191ZM73.434 143.693C73.4107 143.693 73.399 143.705 73.399 143.728V144.82C73.399 144.843 73.4107 144.855 73.434 144.855H74.253C74.4723 144.855 74.6427 144.804 74.764 144.701C74.8853 144.598 74.946 144.458 74.946 144.281C74.946 144.099 74.8853 143.957 74.764 143.854C74.6427 143.747 74.4723 143.693 74.253 143.693H73.434ZM74.309 146.892C74.5237 146.892 74.6917 146.838 74.813 146.731C74.9343 146.619 74.995 146.467 74.995 146.276C74.995 146.085 74.9343 145.935 74.813 145.828C74.6917 145.716 74.5213 145.66 74.302 145.66H73.434C73.4107 145.66 73.399 145.672 73.399 145.695V146.857C73.399 146.88 73.4107 146.892 73.434 146.892H74.309ZM78.489 147.823C78.125 147.823 77.803 147.748 77.523 147.599C77.2476 147.45 77.033 147.242 76.879 146.976C76.725 146.705 76.648 146.395 76.648 146.045V144.547C76.648 144.202 76.725 143.896 76.879 143.63C77.033 143.364 77.2476 143.159 77.523 143.014C77.803 142.865 78.125 142.79 78.489 142.79C78.8576 142.79 79.1796 142.865 79.455 143.014C79.735 143.159 79.952 143.364 80.106 143.63C80.26 143.896 80.337 144.202 80.337 144.547V146.045C80.337 146.395 80.26 146.705 80.106 146.976C79.952 147.247 79.735 147.457 79.455 147.606C79.1796 147.751 78.8576 147.823 78.489 147.823ZM78.489 146.976C78.7456 146.976 78.9533 146.894 79.112 146.731C79.2706 146.568 79.35 146.351 79.35 146.08V144.54C79.35 144.269 79.2706 144.052 79.112 143.889C78.958 143.721 78.7503 143.637 78.489 143.637C78.2323 143.637 78.0246 143.721 77.866 143.889C77.712 144.052 77.635 144.269 77.635 144.54V146.08C77.635 146.351 77.712 146.568 77.866 146.731C78.0246 146.894 78.2323 146.976 78.489 146.976ZM82.8366 147.823C82.4726 147.823 82.1506 147.748 81.8706 147.599C81.5953 147.45 81.3806 147.242 81.2266 146.976C81.0726 146.705 80.9956 146.395 80.9956 146.045V144.547C80.9956 144.202 81.0726 143.896 81.2266 143.63C81.3806 143.364 81.5953 143.159 81.8706 143.014C82.1506 142.865 82.4726 142.79 82.8366 142.79C83.2053 142.79 83.5273 142.865 83.8026 143.014C84.0826 143.159 84.2996 143.364 84.4536 143.63C84.6076 143.896 84.6846 144.202 84.6846 144.547V146.045C84.6846 146.395 84.6076 146.705 84.4536 146.976C84.2996 147.247 84.0826 147.457 83.8026 147.606C83.5273 147.751 83.2053 147.823 82.8366 147.823ZM82.8366 146.976C83.0933 146.976 83.301 146.894 83.4596 146.731C83.6183 146.568 83.6976 146.351 83.6976 146.08V144.54C83.6976 144.269 83.6183 144.052 83.4596 143.889C83.3056 143.721 83.098 143.637 82.8366 143.637C82.58 143.637 82.3723 143.721 82.2136 143.889C82.0596 144.052 81.9826 144.269 81.9826 144.54V146.08C81.9826 146.351 82.0596 146.568 82.2136 146.731C82.3723 146.894 82.58 146.976 82.8366 146.976ZM85.5253 147.746C85.5019 147.746 85.4809 147.739 85.4623 147.725C85.4483 147.706 85.4413 147.685 85.4413 147.662V142.93C85.4413 142.907 85.4483 142.888 85.4623 142.874C85.4809 142.855 85.5019 142.846 85.5253 142.846H86.3443C86.3676 142.846 86.3863 142.855 86.4003 142.874C86.4189 142.888 86.4283 142.907 86.4283 142.93V144.89C86.4283 144.904 86.4329 144.913 86.4423 144.918C86.4516 144.918 86.4609 144.913 86.4703 144.904L88.0873 142.895C88.1153 142.862 88.1503 142.846 88.1923 142.846H89.1163C89.1536 142.846 89.1769 142.858 89.1863 142.881C89.1956 142.9 89.1909 142.923 89.1723 142.951L87.6113 144.946C87.5973 144.965 87.5949 144.981 87.6043 144.995L89.2563 147.648C89.2656 147.676 89.2703 147.692 89.2703 147.697C89.2703 147.73 89.2469 147.746 89.2003 147.746H88.2763C88.2296 147.746 88.1969 147.727 88.1783 147.69L86.9323 145.674C86.9276 145.665 86.9206 145.66 86.9113 145.66C86.9019 145.66 86.8926 145.665 86.8833 145.674L86.4423 146.227C86.4329 146.246 86.4283 146.26 86.4283 146.269V147.662C86.4283 147.685 86.4189 147.706 86.4003 147.725C86.3863 147.739 86.3676 147.746 86.3443 147.746H85.5253ZM89.9071 147.746C89.8838 147.746 89.8628 147.739 89.8441 147.725C89.8301 147.706 89.8231 147.685 89.8231 147.662V142.93C89.8231 142.907 89.8301 142.888 89.8441 142.874C89.8628 142.855 89.8838 142.846 89.9071 142.846H90.7261C90.7495 142.846 90.7681 142.855 90.7821 142.874C90.8008 142.888 90.8101 142.907 90.8101 142.93V147.662C90.8101 147.685 90.8008 147.706 90.7821 147.725C90.7681 147.739 90.7495 147.746 90.7261 147.746H89.9071ZM94.476 142.93C94.476 142.907 94.483 142.888 94.497 142.874C94.5157 142.855 94.5367 142.846 94.56 142.846H95.379C95.4023 142.846 95.421 142.855 95.435 142.874C95.4537 142.888 95.463 142.907 95.463 142.93V147.662C95.463 147.685 95.4537 147.706 95.435 147.725C95.421 147.739 95.4023 147.746 95.379 147.746H94.588C94.5413 147.746 94.5087 147.727 94.49 147.69L92.677 144.694C92.6677 144.68 92.6583 144.675 92.649 144.68C92.6397 144.68 92.635 144.689 92.635 144.708L92.649 147.662C92.649 147.685 92.6397 147.706 92.621 147.725C92.607 147.739 92.5883 147.746 92.565 147.746H91.746C91.7227 147.746 91.7017 147.739 91.683 147.725C91.669 147.706 91.662 147.685 91.662 147.662V142.93C91.662 142.907 91.669 142.888 91.683 142.874C91.7017 142.855 91.7227 142.846 91.746 142.846H92.537C92.5837 142.846 92.6163 142.865 92.635 142.902L94.441 145.884C94.4503 145.898 94.4597 145.905 94.469 145.905C94.4783 145.9 94.483 145.889 94.483 145.87L94.476 142.93ZM98.0393 147.802C97.6799 147.802 97.3626 147.73 97.0873 147.585C96.8119 147.44 96.5973 147.24 96.4433 146.983C96.2939 146.722 96.2193 146.421 96.2193 146.08V144.512C96.2193 144.171 96.2939 143.87 96.4433 143.609C96.5973 143.348 96.8119 143.147 97.0873 143.007C97.3626 142.862 97.6799 142.79 98.0393 142.79C98.3939 142.79 98.7066 142.86 98.9773 143C99.2526 143.14 99.4649 143.331 99.6143 143.574C99.7683 143.812 99.8453 144.078 99.8453 144.372V144.421C99.8453 144.444 99.8359 144.465 99.8173 144.484C99.8033 144.498 99.7846 144.505 99.7613 144.505H98.9423C98.9189 144.505 98.8979 144.498 98.8793 144.484C98.8653 144.465 98.8583 144.444 98.8583 144.421V144.4C98.8583 144.185 98.7836 144.006 98.6343 143.861C98.4849 143.712 98.2866 143.637 98.0393 143.637C97.7873 143.637 97.5843 143.716 97.4303 143.875C97.2809 144.029 97.2063 144.232 97.2063 144.484V146.108C97.2063 146.36 97.2879 146.565 97.4513 146.724C97.6146 146.878 97.8223 146.955 98.0743 146.955C98.3169 146.955 98.5106 146.892 98.6553 146.766C98.7999 146.635 98.8723 146.456 98.8723 146.227V145.912C98.8723 145.889 98.8606 145.877 98.8373 145.877H98.0533C98.0299 145.877 98.0089 145.87 97.9903 145.856C97.9763 145.837 97.9693 145.816 97.9693 145.793V145.149C97.9693 145.126 97.9763 145.107 97.9903 145.093C98.0089 145.074 98.0299 145.065 98.0533 145.065H99.7613C99.7846 145.065 99.8033 145.074 99.8173 145.093C99.8359 145.107 99.8453 145.126 99.8453 145.149V146.073C99.8453 146.428 99.7706 146.736 99.6213 146.997C99.4719 147.258 99.2596 147.459 98.9843 147.599C98.7136 147.734 98.3986 147.802 98.0393 147.802Z" fill="white"/>
<path d="M172.424 88.912V85.235H165.872V88.912L141.456 97.352V196.932H196.841V97.352L172.424 88.912Z" fill="#5BA1F4"/>
<path d="M196.841 116.694H141.456V120.392H196.841V116.694Z" fill="#B0D8FF"/>
<path d="M196.841 183.847H141.456V187.545H196.841V183.847Z" fill="#B0D8FF"/>
<path d="M196.841 149.203H141.456V153.825H196.841V149.203Z" fill="#B0D8FF"/>
<path d="M196.84 102.028V97.352L172.424 88.91V85.233H165.872V88.91L141.456 97.352V102.125L169.185 92.287L196.84 102.028Z" fill="#B0D8FF"/>
<path d="M142.846 96.111H132.103V196.932H142.846V96.111Z" fill="#3D36A4"/>
<path d="M142.846 96.111H132.103V114.072H142.846V96.111Z" fill="#3D36A4"/>
<path d="M143.015 96.111H132.103V101.643H143.015V96.111Z" fill="#B0D8FF"/>
<path d="M143.015 113.846H132.103V119.378H143.015V113.846Z" fill="#B0D8FF"/>
<path d="M206.832 96.111H196.089V196.932H206.832V96.111Z" fill="#3D36A4"/>
<path d="M206.832 96.111H196.089V114.072H206.832V96.111Z" fill="#3D36A4"/>
<path d="M207.001 96.111H195.981V101.643H207.001V96.111Z" fill="#B0D8FF"/>
<path d="M207.001 113.846H196.089V119.378H207.001V113.846Z" fill="#B0D8FF"/>
<path d="M157.738 124.351H146.213V142.839H157.738V124.351Z" fill="#B0D8FF"/>
<path d="M156.835 141.935V125.254H147.117V141.935H156.835Z" fill="#2E6CB7"/>
<path d="M157.358 130.153H146.615V130.85H157.358V130.153Z" fill="#B0D8FF"/>
<path d="M152.335 124.692H151.638V142.154H152.335V124.692Z" fill="#B0D8FF"/>
<path d="M157.358 136.676H146.615V137.373H157.358V136.676Z" fill="#B0D8FF"/>
<path d="M174.911 124.351H163.386V142.839H174.911V124.351Z" fill="#B0D8FF"/>
<path d="M174.008 141.935V125.254H164.29V141.935H174.008Z" fill="#2E6CB7"/>
<path d="M174.531 130.153H163.788V130.85H174.531V130.153Z" fill="#B0D8FF"/>
<path d="M169.508 124.692H168.811V142.154H169.508V124.692Z" fill="#B0D8FF"/>
<path d="M174.531 136.676H163.788V137.373H174.531V136.676Z" fill="#B0D8FF"/>
<path d="M192.083 124.351H180.558V142.839H192.083V124.351Z" fill="#B0D8FF"/>
<path d="M191.18 141.935V125.254H181.462V141.935H191.18Z" fill="#2E6CB7"/>
<path d="M191.703 130.153H180.96V130.85H191.703V130.153Z" fill="#B0D8FF"/>
<path d="M186.68 124.692H185.983V142.154H186.68V124.692Z" fill="#B0D8FF"/>
<path d="M191.703 136.676H180.96V137.373H191.703V136.676Z" fill="#B0D8FF"/>
<path d="M157.738 159.922H146.213V178.41H157.738V159.922Z" fill="#B0D8FF"/>
<path d="M156.835 177.506V160.825H147.117V177.506H156.835Z" fill="#2E6CB7"/>
<path d="M157.358 165.724H146.615V166.421H157.358V165.724Z" fill="#B0D8FF"/>
<path d="M152.335 160.263H151.638V177.725H152.335V160.263Z" fill="#B0D8FF"/>
<path d="M157.358 172.247H146.615V172.944H157.358V172.247Z" fill="#B0D8FF"/>
<path d="M174.911 159.922H163.386V178.41H174.911V159.922Z" fill="#B0D8FF"/>
<path d="M174.008 177.506V160.825H164.29V177.506H174.008Z" fill="#2E6CB7"/>
<path d="M174.531 165.724H163.788V166.421H174.531V165.724Z" fill="#B0D8FF"/>
<path d="M169.508 160.263H168.811V177.725H169.508V160.263Z" fill="#B0D8FF"/>
<path d="M174.531 172.247H163.788V172.944H174.531V172.247Z" fill="#B0D8FF"/>
<path d="M192.083 159.922H180.558V178.41H192.083V159.922Z" fill="#B0D8FF"/>
<path d="M191.18 177.506V160.825H181.462V177.506H191.18Z" fill="#2E6CB7"/>
<path d="M191.703 165.724H180.96V166.421H191.703V165.724Z" fill="#B0D8FF"/>
<path d="M186.68 160.263H185.983V177.725H186.68V160.263Z" fill="#B0D8FF"/>
<path d="M191.703 172.247H180.96V172.944H191.703V172.247Z" fill="#B0D8FF"/>
<path d="M275.659 55.8H206.835V196.933H275.659V55.8Z" fill="#B0D8FF"/>
<path d="M275.659 130.767H206.835V137.099H275.659V130.767Z" fill="#D7EDFF"/>
<path d="M275.659 137.38H206.835V149.096H275.659V137.38Z" fill="#C4E3F7"/>
<path d="M276.771 55.869H205.722V64.691H276.771V55.869Z" fill="#5BA1F4"/>
<path d="M205.722 134.789H276.771V138.294H205.722V134.789Z" fill="#3D36A4"/>
<path d="M219.289 58.472H209.583C209.452 58.4801 209.33 58.5378 209.24 58.6331C209.151 58.7284 209.101 58.8542 209.101 58.985C209.101 59.1158 209.151 59.2416 209.24 59.3369C209.33 59.4322 209.452 59.4898 209.583 59.498H219.289C219.42 59.4898 219.542 59.4322 219.632 59.3369C219.721 59.2416 219.771 59.1158 219.771 58.985C219.771 58.8542 219.721 58.7284 219.632 58.6331C219.542 58.5378 219.42 58.4801 219.289 58.472Z" fill="#6CB6FF"/>
<path d="M219.289 61.562H209.583C209.451 61.5678 209.326 61.6245 209.234 61.7202C209.143 61.8158 209.092 61.9431 209.092 62.0755C209.092 62.2079 209.143 62.3352 209.234 62.4309C209.326 62.5265 209.451 62.5832 209.583 62.589H219.289C219.421 62.5832 219.546 62.5265 219.638 62.4309C219.729 62.3352 219.78 62.2079 219.78 62.0755C219.78 61.9431 219.729 61.8158 219.638 61.7202C219.546 61.6245 219.421 61.5678 219.289 61.562Z" fill="#6CB6FF"/>
<path d="M237.164 58.472H227.458C227.328 58.4801 227.205 58.5378 227.115 58.6331C227.026 58.7284 226.976 58.8542 226.976 58.985C226.976 59.1158 227.026 59.2416 227.115 59.3369C227.205 59.4322 227.328 59.4898 227.458 59.498H237.164C237.295 59.4898 237.417 59.4322 237.507 59.3369C237.596 59.2416 237.646 59.1158 237.646 58.985C237.646 58.8542 237.596 58.7284 237.507 58.6331C237.417 58.5378 237.295 58.4801 237.164 58.472Z" fill="#6CB6FF"/>
<path d="M237.164 61.562H227.458C227.326 61.5678 227.201 61.6245 227.109 61.7202C227.018 61.8158 226.967 61.9431 226.967 62.0755C226.967 62.2079 227.018 62.3352 227.109 62.4309C227.201 62.5265 227.326 62.5832 227.458 62.589H237.164C237.296 62.5832 237.421 62.5265 237.513 62.4309C237.604 62.3352 237.655 62.2079 237.655 62.0755C237.655 61.9431 237.604 61.8158 237.513 61.7202C237.421 61.6245 237.296 61.5678 237.164 61.562Z" fill="#6CB6FF"/>
<path d="M255.038 58.472H245.331C245.201 58.4801 245.078 58.5378 244.989 58.6331C244.899 58.7284 244.849 58.8542 244.849 58.985C244.849 59.1158 244.899 59.2416 244.989 59.3369C245.078 59.4322 245.201 59.4898 245.331 59.498H255.038C255.169 59.4898 255.291 59.4322 255.381 59.3369C255.47 59.2416 255.52 59.1158 255.52 58.985C255.52 58.8542 255.47 58.7284 255.381 58.6331C255.291 58.5378 255.169 58.4801 255.038 58.472Z" fill="#6CB6FF"/>
<path d="M255.038 61.562H245.331C245.199 61.5678 245.074 61.6245 244.982 61.7202C244.891 61.8158 244.84 61.9431 244.84 62.0755C244.84 62.2079 244.891 62.3352 244.982 62.4309C245.074 62.5265 245.199 62.5832 245.331 62.589H255.038C255.17 62.5832 255.295 62.5265 255.387 62.4309C255.478 62.3352 255.529 62.2079 255.529 62.0755C255.529 61.9431 255.478 61.8158 255.387 61.7202C255.295 61.6245 255.17 61.5678 255.038 61.562Z" fill="#6CB6FF"/>
<path d="M272.911 58.472H263.205C263.074 58.4801 262.952 58.5378 262.862 58.6331C262.773 58.7284 262.723 58.8542 262.723 58.985C262.723 59.1158 262.773 59.2416 262.862 59.3369C262.952 59.4322 263.074 59.4898 263.205 59.498H272.911C273.041 59.4898 273.164 59.4322 273.254 59.3369C273.343 59.2416 273.393 59.1158 273.393 58.985C273.393 58.8542 273.343 58.7284 273.254 58.6331C273.164 58.5378 273.041 58.4801 272.911 58.472Z" fill="#6CB6FF"/>
<path d="M272.911 61.562H263.205C263.073 61.5678 262.948 61.6245 262.856 61.7202C262.765 61.8158 262.714 61.9431 262.714 62.0755C262.714 62.2079 262.765 62.3352 262.856 62.4309C262.948 62.5265 263.073 62.5832 263.205 62.589H272.911C273.043 62.5832 273.168 62.5265 273.26 62.4309C273.351 62.3352 273.402 62.2079 273.402 62.0755C273.402 61.9431 273.351 61.8158 273.26 61.7202C273.168 61.6245 273.043 61.5678 272.911 61.562Z" fill="#6CB6FF"/>
<path d="M225.009 69.514H213.98V85.237H225.009V69.514Z" fill="#3D36A4"/>
<path d="M225.465 83.574H213.524V85.674H225.465V83.574Z" fill="#65B2E5"/>
<path d="M225.009 76.14H213.98V77.464H225.009V76.14Z" fill="#D7EDFF"/>
<path d="M246.886 69.514H235.857V85.237H246.886V69.514Z" fill="#3D36A4"/>
<path d="M247.342 83.574H235.401V85.674H247.342V83.574Z" fill="#65B2E5"/>
<path d="M246.886 76.14H235.857V77.464H246.886V76.14Z" fill="#D7EDFF"/>
<path d="M257.485 69.514H268.514V85.237H257.485V69.514Z" fill="#3D36A4"/>
<path d="M268.97 83.574H257.029V85.674H268.97V83.574Z" fill="#65B2E5"/>
<path d="M268.514 76.14H257.485V77.464H268.514V76.14Z" fill="#D7EDFF"/>
<path d="M225.009 101.766H213.98V117.489H225.009V101.766Z" fill="#3D36A4"/>
<path d="M225.465 115.826H213.524V117.926H225.465V115.826Z" fill="#65B2E5"/>
<path d="M225.009 108.392H213.98V109.715H225.009V108.392Z" fill="#D7EDFF"/>
<path d="M246.886 101.766H235.857V117.489H246.886V101.766Z" fill="#3D36A4"/>
<path d="M247.342 115.826H235.401V117.926H247.342V115.826Z" fill="#65B2E5"/>
<path d="M246.886 108.392H235.857V109.715H246.886V108.392Z" fill="#D7EDFF"/>
<path d="M268.514 101.766H257.485V117.489H268.514V101.766Z" fill="#3D36A4"/>
<path d="M268.97 115.826H257.029V117.926H268.97V115.826Z" fill="#65B2E5"/>
<path d="M268.514 108.392H257.485V109.715H268.514V108.392Z" fill="#D7EDFF"/>
<path d="M225.937 157.605H211.456V178.249H225.937V157.605Z" fill="#3D36A4"/>
<path d="M226.536 176.065H210.858V178.822H226.536V176.065Z" fill="#65B2E5"/>
<path d="M225.937 166.305H211.456V168.043H225.937V166.305Z" fill="#D7EDFF"/>
<path d="M270.5 157.605H256.019V178.249H270.5V157.605Z" fill="#3D36A4"/>
<path d="M271.099 176.065H255.421V178.822H271.099V176.065Z" fill="#65B2E5"/>
<path d="M270.5 166.305H256.019V168.043H270.5V166.305Z" fill="#D7EDFF"/>
<path d="M251.668 149.128H230.827V190.043H251.668V149.128Z" fill="#D7EDFF"/>
<path d="M249.759 188.119V151.05H232.735V188.119H249.759Z" fill="#3D36A4"/>
<path d="M260.662 193.36H221.831V196.932H260.662V193.36Z" fill="#D7EDFF"/>
<path d="M255.029 189.837H227.464V193.353H255.029V189.837Z" fill="#D7EDFF"/>
<path d="M255.029 192.465H227.464V193.352H255.029V192.465Z" fill="#B1D8F2"/>
<path d="M260.662 196.183H221.831V196.932H260.662V196.183Z" fill="#B1D8F2"/>
<path d="M250.824 161.916H232.005V164.007H250.824V161.916Z" fill="#D7EDFF"/>
<path d="M250.824 176.39H232.005V178.481H250.824V176.39Z" fill="#D7EDFF"/>
<path d="M242.46 150.126H240.369V188.925H242.46V150.126Z" fill="#D7EDFF"/>
<path d="M278.079 53.391H204.382V56.871H278.079V53.391Z" fill="#3D36A4"/>
<path d="M219.806 140.033H211.24V142.852H219.806V140.033Z" fill="#3D36A4"/>
<path d="M219.806 144.284H211.24V147.103H219.806V144.284Z" fill="#3D36A4"/>
<path d="M270.559 140.033H261.993V142.852H270.559V140.033Z" fill="#3D36A4"/>
<path d="M270.559 144.284H261.993V147.103H270.559V144.284Z" fill="#3D36A4"/>
<path d="M232.967 90.721H228.615V92.897H232.967V90.721Z" fill="#9ACDF7"/>
<path d="M214.361 151.598H210.009V153.774H214.361V151.598Z" fill="#9ACDF7"/>
<path d="M245.37 94.42H238.189V96.814H245.37V94.42Z" fill="#9ACDF7"/>
<path d="M214.906 97.031H210.336V98.772H214.906V97.031Z" fill="#9ACDF7"/>
<path d="M259.297 89.633H253.639V91.156H259.297V89.633Z" fill="#9ACDF7"/>
<path d="M272.135 96.596H267.348V98.119H272.135V96.596Z" fill="#9ACDF7"/>
<path d="M246.023 123.361H241.018V124.667H246.023V123.361Z" fill="#9ACDF7"/>
<path d="M270.354 190.747H265.349V192.053H270.354V190.747Z" fill="#9ACDF7"/>
<path d="M264.084 126.19H258.209V127.931H264.084V126.19Z" fill="#9ACDF7"/>
<path d="M219.823 185.6H213.948V187.341H219.823V185.6Z" fill="#9ACDF7"/>
<path d="M226.439 123.144H223.61V124.667H226.439V123.144Z" fill="#9ACDF7"/>
<path d="M213.012 126.659H210.183V128.182H213.012V126.659Z" fill="#9ACDF7"/>
<path d="M258.254 151.63H255.425V153.153H258.254V151.63Z" fill="#9ACDF7"/>
<path d="M256.033 97.249H253.204V98.555H256.033V97.249Z" fill="#9ACDF7"/>
<path d="M271.474 154.383H268.645V155.689H271.474V154.383Z" fill="#9ACDF7"/>
<path d="M227.408 152.621H224.579V153.927H227.408V152.621Z" fill="#9ACDF7"/>
<path d="M236.449 127.714H229.703V129.455H236.449V127.714Z" fill="#9ACDF7"/>
<path d="M263.77 183.238H257.024V184.979H263.77V183.238Z" fill="#9ACDF7"/>
<path d="M252.986 66.567H249.94V67.873H252.986V66.567Z" fill="#9ACDF7"/>
<path d="M273.441 72.878H270.612V74.619H273.441V72.878Z" fill="#9ACDF7"/>
<path d="M253.639 77.012H249.94V78.535H253.639V77.012Z" fill="#9ACDF7"/>
<path d="M232.531 74.618H228.397V75.924H232.531V74.618Z" fill="#9ACDF7"/>
<path d="M211.859 79.623H207.725V81.799H211.859V79.623Z" fill="#9ACDF7"/>
<path d="M214.253 66.785H210.989V68.308H214.253V66.785Z" fill="#9ACDF7"/>
<path d="M219.335 46.218H215.665V55.533H219.335V46.218Z" fill="#3D36A4"/>
<path d="M267.885 46.218H264.216V55.533H267.885V46.218Z" fill="#3D36A4"/>
<path d="M264.732 29.987H218.984C219.223 35.321 214.273 39.865 209.105 39.865V49.143H274.611V39.865C269.443 39.865 264.493 35.321 264.732 29.987Z" fill="#FF643D"/>
<path d="M225.548 36.043C225.548 36.0063 225.559 35.977 225.581 35.955C225.61 35.9257 225.643 35.911 225.68 35.911H226.967C227.004 35.911 227.033 35.9257 227.055 35.955C227.084 35.977 227.099 36.0063 227.099 36.043V43.479C227.099 43.5157 227.084 43.5487 227.055 43.578C227.033 43.6 227.004 43.611 226.967 43.611H225.68C225.643 43.611 225.61 43.6 225.581 43.578C225.559 43.5487 225.548 43.5157 225.548 43.479V40.443C225.548 40.4063 225.53 40.388 225.493 40.388H223.062C223.025 40.388 223.007 40.4063 223.007 40.443V43.479C223.007 43.5157 222.992 43.5487 222.963 43.578C222.941 43.6 222.912 43.611 222.875 43.611H221.588C221.551 43.611 221.518 43.6 221.489 43.578C221.467 43.5487 221.456 43.5157 221.456 43.479V36.043C221.456 36.0063 221.467 35.977 221.489 35.955C221.518 35.9257 221.551 35.911 221.588 35.911H222.875C222.912 35.911 222.941 35.9257 222.963 35.955C222.992 35.977 223.007 36.0063 223.007 36.043V39.002C223.007 39.0387 223.025 39.057 223.062 39.057H225.493C225.53 39.057 225.548 39.0387 225.548 39.002V36.043ZM231.102 43.732C230.53 43.732 230.024 43.6147 229.584 43.38C229.152 43.1453 228.814 42.819 228.572 42.401C228.33 41.9757 228.209 41.488 228.209 40.938V38.584C228.209 38.0413 228.33 37.561 228.572 37.143C228.814 36.725 229.152 36.4023 229.584 36.175C230.024 35.9403 230.53 35.823 231.102 35.823C231.682 35.823 232.188 35.9403 232.62 36.175C233.06 36.4023 233.401 36.725 233.643 37.143C233.885 37.561 234.006 38.0413 234.006 38.584V40.938C234.006 41.488 233.885 41.9757 233.643 42.401C233.401 42.8263 233.06 43.1563 232.62 43.391C232.188 43.6183 231.682 43.732 231.102 43.732ZM231.102 42.401C231.506 42.401 231.832 42.2727 232.081 42.016C232.331 41.7593 232.455 41.4183 232.455 40.993V38.573C232.455 38.1477 232.331 37.8067 232.081 37.55C231.839 37.286 231.513 37.154 231.102 37.154C230.699 37.154 230.373 37.286 230.123 37.55C229.881 37.8067 229.76 38.1477 229.76 38.573V40.993C229.76 41.4183 229.881 41.7593 230.123 42.016C230.373 42.2727 230.699 42.401 231.102 42.401ZM240.422 35.911C240.459 35.911 240.488 35.9257 240.51 35.955C240.54 35.977 240.554 36.0063 240.554 36.043V37.121C240.554 37.1577 240.54 37.1907 240.51 37.22C240.488 37.242 240.459 37.253 240.422 37.253H238.453C238.417 37.253 238.398 37.2713 238.398 37.308V43.479C238.398 43.5157 238.384 43.5487 238.354 43.578C238.332 43.6 238.303 43.611 238.266 43.611H236.979C236.943 43.611 236.91 43.6 236.88 43.578C236.858 43.5487 236.847 43.5157 236.847 43.479V37.308C236.847 37.2713 236.829 37.253 236.792 37.253H234.878C234.842 37.253 234.809 37.242 234.779 37.22C234.757 37.1907 234.746 37.1577 234.746 37.121V36.043C234.746 36.0063 234.757 35.977 234.779 35.955C234.809 35.9257 234.842 35.911 234.878 35.911H240.422ZM246.89 37.11C246.89 37.1467 246.875 37.1797 246.846 37.209C246.824 37.231 246.795 37.242 246.758 37.242H243.15C243.113 37.242 243.095 37.2603 243.095 37.297V39.002C243.095 39.0387 243.113 39.057 243.15 39.057H245.515C245.552 39.057 245.581 39.0717 245.603 39.101C245.632 39.123 245.647 39.1523 245.647 39.189V40.256C245.647 40.2927 245.632 40.3257 245.603 40.355C245.581 40.377 245.552 40.388 245.515 40.388H243.15C243.113 40.388 243.095 40.4063 243.095 40.443V42.225C243.095 42.2617 243.113 42.28 243.15 42.28H246.758C246.795 42.28 246.824 42.2947 246.846 42.324C246.875 42.346 246.89 42.3753 246.89 42.412V43.479C246.89 43.5157 246.875 43.5487 246.846 43.578C246.824 43.6 246.795 43.611 246.758 43.611H241.676C241.639 43.611 241.606 43.6 241.577 43.578C241.555 43.5487 241.544 43.5157 241.544 43.479V36.043C241.544 36.0063 241.555 35.977 241.577 35.955C241.606 35.9257 241.639 35.911 241.676 35.911H246.758C246.795 35.911 246.824 35.9257 246.846 35.955C246.875 35.977 246.89 36.0063 246.89 36.043V37.11ZM248.1 43.611C248.063 43.611 248.03 43.6 248.001 43.578C247.979 43.5487 247.968 43.5157 247.968 43.479V36.043C247.968 36.0063 247.979 35.977 248.001 35.955C248.03 35.9257 248.063 35.911 248.1 35.911H249.387C249.424 35.911 249.453 35.9257 249.475 35.955C249.504 35.977 249.519 36.0063 249.519 36.043V42.225C249.519 42.2617 249.537 42.28 249.574 42.28H253.171C253.208 42.28 253.237 42.2947 253.259 42.324C253.288 42.346 253.303 42.3753 253.303 42.412V43.479C253.303 43.5157 253.288 43.5487 253.259 43.578C253.237 43.6 253.208 43.611 253.171 43.611H248.1Z" fill="white"/>
<path d="M217.182 221.009H200.219C200.036 221.009 199.86 220.936 199.73 220.807C199.601 220.677 199.528 220.501 199.528 220.318C199.528 220.135 199.601 219.959 199.73 219.829C199.86 219.7 200.036 219.627 200.219 219.627H217.182C217.365 219.627 217.541 219.7 217.671 219.829C217.8 219.959 217.873 220.135 217.873 220.318C217.873 220.501 217.8 220.677 217.671 220.807C217.541 220.936 217.365 221.009 217.182 221.009Z" fill="#3D36A4"/>
<path d="M196.332 221.009H193.316C193.133 221.009 192.957 220.936 192.827 220.807C192.698 220.677 192.625 220.501 192.625 220.318C192.625 220.135 192.698 219.959 192.827 219.829C192.957 219.7 193.133 219.627 193.316 219.627H196.328C196.511 219.627 196.687 219.7 196.817 219.829C196.946 219.959 197.019 220.135 197.019 220.318C197.019 220.501 196.946 220.677 196.817 220.807C196.687 220.936 196.511 221.009 196.328 221.009H196.332Z" fill="#3D36A4"/>
<path d="M311.054 221.009H294.091C293.908 221.009 293.732 220.936 293.602 220.807C293.473 220.677 293.4 220.501 293.4 220.318C293.4 220.135 293.473 219.959 293.602 219.829C293.732 219.7 293.908 219.627 294.091 219.627H311.054C311.237 219.627 311.413 219.7 311.543 219.829C311.672 219.959 311.745 220.135 311.745 220.318C311.745 220.501 311.672 220.677 311.543 220.807C311.413 220.936 311.237 221.009 311.054 221.009Z" fill="#3D36A4"/>
<path d="M290.204 221.009H287.192C287.009 221.009 286.833 220.936 286.703 220.807C286.574 220.677 286.501 220.501 286.501 220.318C286.501 220.135 286.574 219.959 286.703 219.829C286.833 219.7 287.009 219.627 287.192 219.627H290.204C290.387 219.627 290.563 219.7 290.693 219.829C290.822 219.959 290.895 220.135 290.895 220.318C290.895 220.501 290.822 220.677 290.693 220.807C290.563 220.936 290.387 221.009 290.204 221.009Z" fill="#3D36A4"/>
<path d="M200.295 261.737H183.332C183.149 261.737 182.973 261.664 182.843 261.535C182.714 261.405 182.641 261.229 182.641 261.046C182.641 260.863 182.714 260.687 182.843 260.557C182.973 260.428 183.149 260.355 183.332 260.355H200.295C200.478 260.355 200.654 260.428 200.784 260.557C200.913 260.687 200.986 260.863 200.986 261.046C200.986 261.229 200.913 261.405 200.784 261.535C200.654 261.664 200.478 261.737 200.295 261.737Z" fill="#3D36A4"/>
<path d="M179.445 261.737H176.434C176.251 261.737 176.075 261.664 175.945 261.535C175.816 261.405 175.743 261.229 175.743 261.046C175.743 260.863 175.816 260.687 175.945 260.557C176.075 260.428 176.251 260.355 176.434 260.355H179.445C179.628 260.355 179.804 260.428 179.934 260.557C180.063 260.687 180.136 260.863 180.136 261.046C180.136 261.229 180.063 261.405 179.934 261.535C179.804 261.664 179.628 261.737 179.445 261.737Z" fill="#3D36A4"/>
<path d="M138.072 205.993H121.109C120.926 205.993 120.75 205.92 120.62 205.791C120.491 205.661 120.418 205.485 120.418 205.302C120.418 205.119 120.491 204.943 120.62 204.813C120.75 204.684 120.926 204.611 121.109 204.611H138.072C138.255 204.611 138.431 204.684 138.561 204.813C138.69 204.943 138.763 205.119 138.763 205.302C138.763 205.485 138.69 205.661 138.561 205.791C138.431 205.92 138.255 205.993 138.072 205.993Z" fill="#3D36A4"/>
<path d="M117.222 205.993H114.21C114.027 205.993 113.851 205.92 113.721 205.791C113.592 205.661 113.519 205.485 113.519 205.302C113.519 205.119 113.592 204.943 113.721 204.813C113.851 204.684 114.027 204.611 114.21 204.611H117.222C117.405 204.611 117.581 204.684 117.711 204.813C117.84 204.943 117.913 205.119 117.913 205.302C117.913 205.485 117.84 205.661 117.711 205.791C117.581 205.92 117.405 205.993 117.222 205.993Z" fill="#3D36A4"/>
<path d="M79.551 244.082H67.379C67.1957 244.082 67.02 244.009 66.8904 243.88C66.7608 243.75 66.688 243.574 66.688 243.391C66.688 243.208 66.7608 243.032 66.8904 242.902C67.02 242.773 67.1957 242.7 67.379 242.7H79.551C79.7343 242.7 79.91 242.773 80.0396 242.902C80.1692 243.032 80.242 243.208 80.242 243.391C80.242 243.574 80.1692 243.75 80.0396 243.88C79.91 244.009 79.7343 244.082 79.551 244.082Z" fill="#3D36A4"/>
<path d="M85.849 244.082H83.689C83.5058 244.082 83.33 244.009 83.2004 243.88C83.0708 243.75 82.998 243.574 82.998 243.391C82.998 243.208 83.0708 243.032 83.2004 242.902C83.33 242.773 83.5058 242.7 83.689 242.7H85.849C86.0323 242.7 86.2081 242.773 86.3376 242.902C86.4672 243.032 86.54 243.208 86.54 243.391C86.54 243.574 86.4672 243.75 86.3376 243.88C86.2081 244.009 86.0323 244.082 85.849 244.082Z" fill="#3D36A4"/>
<path d="M134.527 246.707C133.503 246.707 132.51 246.352 131.718 245.703C130.926 245.053 130.384 244.149 130.183 243.145C129.983 242.14 130.137 241.097 130.62 240.194C131.102 239.29 131.883 238.582 132.829 238.189C133.775 237.797 134.828 237.744 135.808 238.041C136.789 238.337 137.636 238.965 138.206 239.816C138.775 240.667 139.032 241.69 138.933 242.709C138.833 243.729 138.384 244.682 137.66 245.407C137.249 245.819 136.761 246.147 136.223 246.37C135.686 246.593 135.109 246.707 134.527 246.707ZM134.527 239.23C133.822 239.231 133.14 239.475 132.595 239.923C132.051 240.37 131.679 240.992 131.542 241.684C131.404 242.375 131.511 243.092 131.844 243.713C132.176 244.334 132.714 244.821 133.365 245.091C134.016 245.36 134.74 245.395 135.415 245.191C136.089 244.986 136.671 244.554 137.062 243.968C137.454 243.382 137.63 242.678 137.561 241.977C137.491 241.276 137.181 240.62 136.683 240.122C136.4 239.84 136.063 239.616 135.693 239.463C135.323 239.311 134.927 239.233 134.527 239.234V239.23Z" fill="#3D36A4"/>
<path d="M253.966 256.284C253.237 256.284 252.519 256.105 251.876 255.761C251.233 255.418 250.685 254.921 250.28 254.315C249.875 253.709 249.625 253.013 249.554 252.287C249.482 251.562 249.591 250.83 249.869 250.156C250.148 249.483 250.589 248.888 251.153 248.426C251.716 247.964 252.385 247.647 253.1 247.505C253.815 247.363 254.554 247.399 255.252 247.611C255.949 247.823 256.584 248.203 257.099 248.719C257.718 249.339 258.14 250.128 258.311 250.988C258.482 251.847 258.394 252.738 258.059 253.548C257.724 254.357 257.156 255.049 256.427 255.537C255.699 256.024 254.842 256.284 253.966 256.284ZM253.966 248.804C253.261 248.805 252.578 249.05 252.033 249.497C251.488 249.945 251.116 250.568 250.979 251.26C250.842 251.952 250.949 252.669 251.282 253.291C251.614 253.913 252.153 254.4 252.804 254.669C253.456 254.938 254.181 254.973 254.856 254.768C255.53 254.563 256.113 254.13 256.504 253.543C256.895 252.957 257.071 252.253 257.002 251.551C256.932 250.849 256.621 250.193 256.122 249.695C255.839 249.412 255.503 249.187 255.133 249.034C254.763 248.881 254.366 248.803 253.966 248.804Z" fill="#3D36A4"/>
<path d="M185.215 210.54C184.607 210.541 184.014 210.346 183.526 209.983C183.038 209.62 182.68 209.11 182.506 208.527C182.332 207.944 182.352 207.32 182.561 206.749C182.77 206.178 183.159 205.69 183.668 205.358C184.294 204.95 185.056 204.807 185.787 204.961C186.519 205.114 187.159 205.552 187.568 206.177C187.846 206.602 188.003 207.095 188.024 207.602C188.045 208.109 187.929 208.613 187.688 209.06C187.446 209.507 187.089 209.88 186.653 210.141C186.217 210.401 185.719 210.539 185.211 210.54H185.215ZM185.207 206.28C184.837 206.281 184.482 206.423 184.214 206.678C183.947 206.933 183.787 207.281 183.768 207.65C183.75 208.019 183.873 208.381 184.114 208.662C184.354 208.943 184.693 209.12 185.061 209.158C185.429 209.196 185.797 209.092 186.09 208.866C186.383 208.641 186.578 208.311 186.635 207.946C186.692 207.581 186.607 207.208 186.397 206.904C186.187 206.599 185.869 206.387 185.507 206.311C185.409 206.29 185.307 206.28 185.207 206.28Z" fill="#3D36A4"/>
<path d="M307.993 98.749C307.47 98.7487 306.955 98.6195 306.493 98.3726C306.032 98.1258 305.638 97.769 305.348 97.3338C305.057 96.8986 304.878 96.3985 304.827 95.8777C304.776 95.3569 304.854 94.8315 305.054 94.348C305.254 93.8646 305.57 93.4379 305.975 93.1059C306.379 92.7738 306.859 92.5466 307.373 92.4444C307.886 92.3421 308.416 92.368 308.917 92.5197C309.418 92.6713 309.874 92.9442 310.244 93.314C310.689 93.7593 310.992 94.3265 311.115 94.9441C311.238 95.5616 311.175 96.2016 310.934 96.7833C310.693 97.365 310.285 97.8623 309.761 98.2121C309.238 98.562 308.623 98.7488 307.993 98.749ZM307.993 93.765C307.637 93.7645 307.288 93.8698 306.992 94.0676C306.695 94.2653 306.464 94.5466 306.328 94.8758C306.191 95.205 306.156 95.5673 306.225 95.9168C306.295 96.2663 306.467 96.5872 306.719 96.839C307.062 97.1664 307.519 97.3491 307.993 97.3491C308.467 97.3491 308.924 97.1664 309.267 96.839C309.519 96.5872 309.691 96.2663 309.761 95.9168C309.83 95.5673 309.795 95.205 309.658 94.8758C309.522 94.5466 309.291 94.2653 308.994 94.0676C308.698 93.8698 308.349 93.7645 307.993 93.765Z" fill="#3D36A4"/>
<path d="M154.259 253.552L145.92 250.595V220.947L154.259 223.904V253.552Z" fill="#B0D8FF"/>
<path d="M154.26 253.552L162.599 250.595V220.947L154.26 223.904V253.552Z" fill="#3D36A4"/>
<path d="M170.937 253.552L179.276 250.595V220.947L170.937 223.904V253.552Z" fill="#3D36A4"/>
<path d="M170.939 253.552L162.6 250.595V220.947L170.939 223.904V253.552Z" fill="#B0D8FF"/>
<path d="M171.525 212.945C171.525 210.577 170.584 208.306 168.91 206.631C167.235 204.957 164.964 204.016 162.596 204.016C160.228 204.016 157.957 204.957 156.282 206.631C154.608 208.306 153.667 210.577 153.667 212.945C153.359 219.425 162.596 234.265 162.596 234.265C162.596 234.265 171.835 219.424 171.525 212.945Z" fill="#FF643D"/>
<path d="M162.595 217.671C165.287 217.671 167.469 215.489 167.469 212.797C167.469 210.105 165.287 207.923 162.595 207.923C159.903 207.923 157.721 210.105 157.721 212.797C157.721 215.489 159.903 217.671 162.595 217.671Z" fill="white"/>
<path d="M107.475 249.864C103.908 249.864 100.421 248.806 97.4553 246.825C94.4895 244.843 92.1779 242.026 90.8129 238.731C89.4478 235.436 89.0906 231.809 89.7864 228.311C90.4822 224.812 92.1998 221.599 94.7219 219.077C97.2441 216.554 100.457 214.837 103.956 214.141C107.454 213.445 111.08 213.802 114.376 215.167C117.671 216.531 120.488 218.843 122.47 221.809C124.452 224.774 125.51 228.261 125.51 231.828C125.505 236.61 123.603 241.194 120.222 244.575C116.841 247.956 112.257 249.858 107.475 249.864ZM107.475 215.176C104.181 215.176 100.962 216.153 98.2229 217.983C95.4843 219.812 93.3499 222.413 92.0895 225.456C90.8291 228.499 90.4994 231.848 91.142 235.078C91.7846 238.309 93.3708 241.276 95.6999 243.605C98.0289 245.934 100.996 247.52 104.227 248.162C107.457 248.805 110.806 248.475 113.848 247.214C116.891 245.953 119.492 243.819 121.322 241.08C123.152 238.341 124.128 235.122 124.128 231.828C124.123 227.413 122.367 223.18 119.245 220.058C116.123 216.937 111.89 215.181 107.475 215.176Z" fill="#3D36A4"/>
<path d="M107.474 249.864C101.911 249.864 97.554 241.941 97.554 231.828C97.554 221.715 101.911 213.794 107.474 213.794C113.037 213.794 117.394 221.716 117.394 231.828C117.394 241.94 113.036 249.864 107.474 249.864ZM107.474 215.176C102.766 215.176 98.936 222.646 98.936 231.828C98.936 241.01 102.766 248.486 107.474 248.486C112.182 248.486 116.015 241.011 116.015 231.828C116.015 222.645 112.182 215.176 107.474 215.176Z" fill="#3D36A4"/>
<path d="M108.165 214.485H106.783V249.173H108.165V214.485Z" fill="#3D36A4"/>
<path d="M124.818 231.138H90.13V232.52H124.818V231.138Z" fill="#3D36A4"/>
<path d="M200.654 248.806C198.416 248.805 196.247 248.028 194.518 246.607C192.789 245.186 191.605 243.21 191.17 241.015C190.734 238.82 191.073 236.541 192.129 234.568C193.185 232.595 194.893 231.048 196.961 230.193C199.029 229.337 201.33 229.225 203.471 229.876C205.612 230.526 207.462 231.899 208.705 233.761C209.947 235.622 210.506 237.857 210.286 240.084C210.066 242.311 209.08 244.393 207.497 245.975C206.599 246.874 205.532 247.587 204.358 248.073C203.184 248.559 201.925 248.808 200.654 248.806ZM200.654 230.841C198.736 230.843 196.878 231.509 195.396 232.727C193.914 233.945 192.901 235.639 192.528 237.521C192.155 239.402 192.446 241.355 193.352 243.046C194.257 244.737 195.721 246.061 197.493 246.794C199.266 247.527 201.238 247.622 203.073 247.064C204.908 246.506 206.493 245.329 207.557 243.734C208.622 242.138 209.1 240.223 208.911 238.314C208.722 236.406 207.877 234.622 206.52 233.266C205.75 232.495 204.835 231.885 203.829 231.468C202.822 231.052 201.743 230.839 200.654 230.841Z" fill="#3D36A4"/>
<path d="M207.495 244.998L206.518 245.975L210.139 249.595L211.116 248.618L207.495 244.998Z" fill="#3D36A4"/>
<path d="M211.509 246.813L208.333 249.989L217.862 259.518L221.038 256.342L211.509 246.813Z" fill="#3D36A4"/>
<path d="M273.943 211.045H233.433C231.609 211.045 230.131 212.523 230.131 214.347V236.174C230.131 237.998 231.609 239.476 233.433 239.476H273.943C275.767 239.476 277.245 237.998 277.245 236.174V214.347C277.245 212.523 275.767 211.045 273.943 211.045Z" fill="#B0D8FF"/>
<path d="M240.914 225.07H232.859V228.846H240.914V225.07Z" fill="#3D36A4"/>
<path d="M251.989 225.07H243.934V228.846H251.989V225.07Z" fill="#3D36A4"/>
<path d="M263.064 225.07H255.009V228.846H263.064V225.07Z" fill="#3D36A4"/>
<path d="M274.139 225.07H266.084V228.846H274.139V225.07Z" fill="#3D36A4"/>
<path d="M240.914 231.363H232.859V235.139H240.914V231.363Z" fill="#EFEF7B"/>
<path d="M273.887 215.317H261.805V220.98H273.887V215.317Z" fill="#FF643D"/>
<path d="M292.603 253.418H287.003V251.435C286.768 251.35 286.538 251.256 286.314 251.152L284.914 252.552L280.953 248.59L282.353 247.19C282.249 246.967 282.155 246.737 282.07 246.501H280.083V240.901H282.066C282.15 240.665 282.246 240.435 282.349 240.211L280.949 238.811L284.91 234.85L286.31 236.25C286.533 236.15 286.764 236.05 287 235.967V233.985H292.6V235.962C292.836 236.047 293.066 236.142 293.29 236.245L294.69 234.845L298.651 238.806L297.251 240.206C297.355 240.43 297.449 240.66 297.534 240.896H299.523V246.496H297.541C297.456 246.732 297.361 246.962 297.258 247.186L298.658 248.586L294.697 252.548L293.297 251.148C293.074 251.252 292.844 251.346 292.607 251.431L292.603 253.418ZM288.383 252.036H291.223V250.415L291.723 250.27C292.201 250.132 292.663 249.941 293.1 249.703L293.555 249.454L294.699 250.598L296.706 248.59L295.562 247.446L295.812 246.991C296.05 246.555 296.24 246.094 296.378 245.616L296.522 245.116H298.143V242.277H296.522L296.378 241.777C296.24 241.299 296.051 240.838 295.812 240.401L295.562 239.946L296.706 238.802L294.699 236.795L293.555 237.939L293.1 237.689C292.664 237.45 292.203 237.26 291.725 237.122L291.225 236.978V235.362H288.383V236.983L287.883 237.127C287.405 237.265 286.944 237.455 286.508 237.694L286.053 237.944L284.908 236.8L282.901 238.807L284.044 239.95L283.795 240.405C283.557 240.842 283.366 241.304 283.228 241.782L283.083 242.282H281.462V245.121H283.083L283.228 245.621C283.366 246.099 283.557 246.561 283.795 246.998L284.044 247.453L282.901 248.597L284.908 250.605L286.052 249.461L286.507 249.71C286.944 249.948 287.405 250.138 287.883 250.277L288.383 250.422V252.036Z" fill="#3D36A4"/>
<path d="M289.802 247.763C288.998 247.763 288.213 247.525 287.544 247.078C286.876 246.632 286.355 245.997 286.047 245.254C285.74 244.512 285.659 243.695 285.816 242.906C285.973 242.118 286.36 241.394 286.928 240.825C287.497 240.257 288.221 239.87 289.009 239.713C289.798 239.556 290.615 239.637 291.357 239.944C292.1 240.252 292.735 240.773 293.181 241.441C293.628 242.109 293.866 242.895 293.866 243.699C293.865 244.777 293.436 245.81 292.675 246.572C291.913 247.333 290.88 247.762 289.802 247.763ZM289.802 241.017C289.272 241.017 288.753 241.174 288.312 241.469C287.871 241.763 287.527 242.182 287.323 242.672C287.12 243.162 287.067 243.701 287.17 244.222C287.274 244.742 287.529 245.22 287.904 245.595C288.279 245.97 288.757 246.226 289.277 246.329C289.798 246.433 290.337 246.38 290.827 246.177C291.317 245.974 291.736 245.63 292.031 245.189C292.326 244.748 292.483 244.23 292.483 243.699C292.483 242.988 292.2 242.306 291.697 241.803C291.195 241.3 290.513 241.017 289.802 241.016V241.017Z" fill="#3D36A4"/>
<path d="M304.787 238.584H302.052V237.623C301.942 237.583 301.835 237.539 301.731 237.491L301.051 238.171L299.116 236.237L299.797 235.557C299.749 235.457 299.705 235.345 299.666 235.236H298.7V232.501H299.663C299.703 232.392 299.747 232.285 299.795 232.18L299.114 231.5L301.049 229.566L301.729 230.246C301.829 230.198 301.94 230.154 302.05 230.114V229.151H304.785V230.115C304.895 230.154 305.002 230.199 305.106 230.246L305.786 229.566L307.72 231.5L307.04 232.18C307.088 232.285 307.133 232.392 307.171 232.501H308.135V235.236H307.171C307.132 235.345 307.087 235.453 307.04 235.557L307.72 236.237L305.786 238.171L305.106 237.491C305.006 237.539 304.895 237.583 304.785 237.622L304.787 238.584ZM302.743 237.893H304.1V237.111L304.349 237.038C304.579 236.972 304.802 236.88 305.012 236.765L305.24 236.64L305.791 237.192L306.748 236.235L306.197 235.684L306.321 235.457C306.436 235.246 306.528 235.023 306.595 234.792L306.668 234.543H307.45V233.19H306.668L306.595 232.941C306.528 232.71 306.436 232.487 306.321 232.276L306.197 232.049L306.748 231.498L305.791 230.541L305.24 231.093L305.012 230.968C304.802 230.853 304.579 230.761 304.349 230.695L304.1 230.623V229.841H302.747V230.623L302.498 230.696C302.267 230.762 302.045 230.853 301.834 230.968L301.607 231.094L301.055 230.542L300.097 231.499L300.65 232.051L300.525 232.278C300.409 232.488 300.318 232.711 300.252 232.942L300.179 233.191H299.397V234.544H300.179L300.252 234.793C300.318 235.024 300.41 235.247 300.525 235.457L300.65 235.684L300.097 236.236L301.055 237.193L301.607 236.641L301.834 236.767C302.045 236.882 302.267 236.973 302.498 237.039L302.747 237.112L302.743 237.893Z" fill="#3D36A4"/>
<path d="M303.419 235.845C303.027 235.845 302.644 235.729 302.319 235.512C301.993 235.294 301.739 234.985 301.589 234.623C301.439 234.261 301.4 233.863 301.476 233.479C301.552 233.095 301.741 232.742 302.018 232.465C302.295 232.188 302.648 231.999 303.032 231.923C303.416 231.847 303.814 231.886 304.176 232.036C304.538 232.186 304.847 232.44 305.065 232.766C305.282 233.091 305.398 233.474 305.398 233.866C305.397 234.391 305.188 234.894 304.817 235.264C304.447 235.635 303.944 235.844 303.419 235.845ZM303.419 232.577C303.164 232.577 302.915 232.652 302.703 232.794C302.49 232.935 302.325 233.137 302.227 233.372C302.13 233.608 302.104 233.867 302.154 234.117C302.203 234.367 302.326 234.597 302.506 234.777C302.686 234.958 302.916 235.08 303.166 235.13C303.416 235.18 303.675 235.155 303.911 235.057C304.147 234.959 304.348 234.794 304.49 234.582C304.631 234.37 304.707 234.121 304.707 233.866C304.707 233.524 304.571 233.197 304.33 232.955C304.088 232.714 303.761 232.578 303.419 232.577Z" fill="#3D36A4"/>
<path d="M153.17 185.118C152.866 182.981 151.895 180.994 150.395 179.441C148.896 177.888 146.944 176.848 144.819 176.47C142.693 176.091 140.503 176.393 138.559 177.333C136.616 178.273 135.018 179.802 133.995 181.703C133.493 181.071 132.82 180.595 132.057 180.334C131.293 180.072 130.47 180.035 129.686 180.226C128.901 180.418 128.188 180.83 127.631 181.414C127.074 181.999 126.696 182.73 126.542 183.523C125.579 183.303 124.58 183.297 123.615 183.505C122.65 183.714 121.742 184.132 120.957 184.731C120.171 185.329 119.527 186.092 119.069 186.967C118.611 187.842 118.352 188.807 118.308 189.794C118.265 190.78 118.439 191.764 118.818 192.676C119.197 193.588 119.772 194.405 120.502 195.07C121.232 195.735 122.099 196.232 123.042 196.524C123.985 196.817 124.981 196.899 125.959 196.764L152.859 196.826C154.387 196.827 155.854 196.232 156.949 195.167C158.044 194.101 158.679 192.651 158.72 191.124C158.761 189.597 158.203 188.114 157.166 186.992C156.129 185.87 154.695 185.198 153.17 185.118Z" fill="#EFEF7B"/>
<path d="M312.25 198.737H23.431C23.1583 198.737 22.8968 198.629 22.7041 198.436C22.5113 198.243 22.403 197.982 22.403 197.709C22.403 197.574 22.4295 197.44 22.4812 197.316C22.5329 197.191 22.6086 197.078 22.7041 196.982C22.7995 196.887 22.9128 196.811 23.0376 196.759C23.1623 196.708 23.296 196.681 23.431 196.681H312.25C312.385 196.681 312.519 196.708 312.643 196.759C312.768 196.811 312.881 196.887 312.977 196.982C313.072 197.078 313.148 197.191 313.2 197.316C313.251 197.44 313.278 197.574 313.278 197.709C313.278 197.982 313.17 198.243 312.977 198.436C312.784 198.629 312.523 198.737 312.25 198.737Z" fill="#9191BA"/>
<path d="M32.818 108.445C30.018 110.208 29.998 111.158 27.164 112.865C22.811 115.488 17.244 112.342 12.192 112.896C10.39 113.094 8.67383 113.77 7.22149 114.855C5.76914 115.94 4.63354 117.394 3.93249 119.066C3.23145 120.737 2.9905 122.566 3.23465 124.362C3.4788 126.159 4.19915 127.857 5.32097 129.281C7.17897 131.64 10.27 133.67 9.97697 136.658C9.81297 138.335 8.55997 139.69 8.01697 141.285C6.96397 144.371 8.88197 147.903 11.717 149.504C14.552 151.105 18.04 151.122 21.245 150.52C25.864 149.652 30.693 147.085 32.024 142.577C32.87 139.717 32.147 136.61 32.739 133.687C33.618 129.344 35.755 123.898 40.039 122.778C45.409 121.378 44.459 116.678 43.159 112.296C41.998 108.354 36.262 106.276 32.818 108.445Z" fill="#3D36A4"/>
<path d="M20.426 155.396L17.596 154.936C17.6451 155.568 17.8596 156.176 18.218 156.699L17.427 156.508C16.9495 157.473 16.6378 158.512 16.505 159.581C16.505 160.749 16.933 162.966 17.4 162.966C17.557 162.966 17.357 161.354 17.357 161.354C17.357 161.354 17.673 162.717 17.734 162.84C17.795 162.963 18.81 164.223 18.81 164.223C18.81 164.223 19.117 164.223 18.963 163.701C18.8112 163.269 18.6176 162.854 18.385 162.46L18.213 161.07L18.494 162.442C18.8742 163.18 19.3053 163.89 19.784 164.568C19.938 164.598 20.123 164.475 20.061 164.168C19.999 163.861 19.261 161.939 19.261 161.939L19.128 161.012L19.517 162.103C19.517 162.103 19.917 163.425 20.224 163.578C20.465 163.698 20.442 163.039 20.424 162.749C20.418 162.668 20.4046 162.587 20.384 162.508L20.184 161.516L19.954 159.724L20.095 158.396C20.5018 159.113 20.709 159.925 20.695 160.749C20.73 161.517 21.19 161.497 21.19 161.497C21.5986 160.5 21.743 159.415 21.6091 158.346C21.4753 157.277 21.0677 156.261 20.426 155.396Z" fill="#F9B870"/>
<path d="M55.173 134.135C55.173 134.135 57.88 132.547 58.425 130.679C58.97 128.811 59.249 125.807 58.22 124.587C57.275 123.468 54.883 128.538 54.883 128.538L53.442 130.796L55.173 134.135Z" fill="#F9B870"/>
<path d="M58.3991 119.734H53.5811V131.692H58.3991V119.734Z" fill="#2E6CB7"/>
<path d="M57.514 130.641V120.418H54.101V130.641H57.514Z" fill="#B0D8FF"/>
<path d="M32.955 151.245C32.955 151.245 29.809 153.689 27.076 159.675C24.0475 166.408 23.2158 173.923 24.699 181.155L24.832 181.816C24.832 181.816 11.548 190.936 6.56299 205.993L10.645 208.887L33.65 185.531C33.65 185.531 43.689 168.258 41.774 153.788L32.955 151.245Z" fill="#FF643D"/>
<path d="M39.591 124.33C39.591 124.33 45.317 128.101 46.054 139.989L52.126 132.477L55.174 134.13C55.174 134.13 49.217 146.062 46.607 147.267C43.997 148.472 37.115 140.816 37.115 140.816L39.591 124.33Z" fill="#FFFC94"/>
<path d="M27.729 152.254C27.729 152.254 21.211 157.245 23.383 167.892C25.555 178.539 39.096 188.626 39.096 188.626C39.096 188.626 37.972 195.508 48.215 212.143H52.6L47.648 186.709L36.11 154.916L27.729 152.254Z" fill="#FF643D"/>
<path d="M39.592 124.329C39.592 124.329 47.015 133.951 43.166 139.729L40.969 142.477L41.794 154.299C41.794 154.299 36.294 158.972 25.849 154.299C25.849 154.299 30.798 143.852 28.324 134.78C25.85 125.708 28.324 125.158 28.324 125.158L39.592 124.329Z" fill="#EFEF7B"/>
<path d="M28.32 125.151C28.32 125.151 21.3 128.121 17.789 141.351L17.236 157.023L21.373 157.08L21.839 143.242C21.839 143.242 29.448 139.149 31.068 133.478C31.5834 131.98 31.5938 130.355 31.0975 128.851C30.6012 127.347 29.6255 126.048 28.32 125.151Z" fill="#FFFC94"/>
<path d="M54.986 217.346C54.4475 217.227 53.9777 216.9 53.678 216.437L53.061 215.483C52.841 215.143 52.7239 214.747 52.724 214.342V209.664H46.601V220.39H49.752V218.71L51.352 220.31C51.46 220.418 51.5883 220.504 51.7295 220.562C51.8707 220.621 52.0221 220.651 52.175 220.651H57.637C57.6374 219.881 57.375 219.133 56.8929 218.532C56.4109 217.931 55.7381 217.513 54.986 217.346Z" fill="#3D36A4"/>
<path d="M8.398 215.617C8.06409 215.175 7.91754 214.619 7.99 214.07L8.139 212.939C8.19133 212.536 8.35907 212.157 8.622 211.847L11.666 208.267L6.98 204.282L0 212.489L2.412 214.537L3.505 213.251L3.687 215.514C3.69902 215.668 3.74125 215.817 3.81126 215.955C3.88128 216.092 3.9777 216.214 4.095 216.314L8.275 219.869C8.776 219.28 9.06122 218.538 9.08358 217.765C9.10594 216.992 8.86411 216.234 8.398 215.617Z" fill="#3D36A4"/>
<path d="M52.125 132.479C51.7362 131.236 51.6747 129.914 51.9466 128.64C52.2185 127.366 52.8145 126.184 53.6771 125.208C53.6771 125.208 54.211 125.369 53.944 126.259C53.106 129.05 54.05 129.926 54.05 129.926C54.5858 130.47 54.9709 131.143 55.1676 131.881C55.3643 132.618 55.3659 133.394 55.172 134.132L52.125 132.479Z" fill="#F9B870"/>
<path d="M32.904 124.771C31.777 128.341 35.681 130.182 37.104 128.905C38.983 127.214 36.982 123.489 37.531 122.772C38.08 122.055 40.487 123.363 40.993 122.983C41.499 122.603 41.5 121.674 41.711 121.548C41.922 121.422 41.753 121.041 41.753 121.041C41.753 121.041 42.12 120.68 42.006 120.407C41.721 119.721 42.175 119.478 42.175 119.478C42.175 119.478 43.146 119.436 43.399 119.098C43.652 118.76 42.513 116.607 42.344 115.931C42.175 115.255 42.766 114.331 42.851 113.145C42.7912 112.106 42.5233 111.09 42.063 110.157C35.322 108.647 34.702 115.931 34.702 115.931C33.688 114.876 33.139 115.34 32.802 115.889C32.217 116.84 33.425 118.107 34.427 118.599C34.964 120.766 33.576 122.644 32.904 124.771Z" fill="#F9B870"/>
<path d="M33.9301 117.226C33.9301 117.226 35.6951 113.378 37.7121 113.889C39.5121 114.344 44.9671 114.631 43.5561 111.511C43.173 110.692 42.5057 110.039 41.6781 109.674C39.3411 108.612 33.9301 107.236 33.9301 117.226Z" fill="#3D36A4"/>
<path d="M67.3641 222.527H3.01408C2.74179 222.527 2.48061 222.419 2.28788 222.227C2.09515 222.034 1.98661 221.773 1.98608 221.501C1.98608 221.228 2.09439 220.967 2.28718 220.774C2.47997 220.581 2.74144 220.473 3.01408 220.473H67.3641C67.4992 220.473 67.6329 220.499 67.7578 220.551C67.8826 220.603 67.9961 220.678 68.0916 220.774C68.1872 220.869 68.263 220.983 68.3147 221.107C68.3665 221.232 68.3931 221.366 68.3931 221.501C68.3926 221.773 68.2839 222.035 68.0909 222.227C67.898 222.419 67.6366 222.527 67.3641 222.527Z" fill="#3D36A4"/>
</svg>
