<svg width="359" height="296" viewBox="0 0 359 296" fill="none" xmlns="http://www.w3.org/2000/svg">
<path d="M308.833 183.56L31.465 184.282L31.6092 239.728L308.977 239.006L308.833 183.56Z" fill="#C6DEF2"/>
<path d="M317.8 133.615L296.572 133.67L296.846 238.985L318.074 238.93L317.8 133.615Z" fill="#C6DEF2"/>
<path d="M40.402 212.495L19.174 212.559L19.2556 239.76L40.4836 239.696L40.402 212.495Z" fill="#C6DEF2"/>
<path d="M293.386 147.65L267.644 147.717L267.874 236.205L293.616 236.138L293.386 147.65Z" fill="#C6DEF2"/>
<path d="M330.591 208.231L309.363 208.286L309.443 238.953L330.671 238.897L330.591 208.231Z" fill="#C6DEF2"/>
<path d="M117.922 239.578L91.795 239.646L91.452 108.077L117.552 95.8767L117.922 239.578Z" fill="#C6DEF2"/>
<path d="M224.801 221.196L198.674 221.264L198.374 106.271L224.474 95.6007L224.801 221.196Z" fill="#C6DEF2"/>
<path d="M156.569 127.995L126.709 128.085L126.999 224.698L156.859 224.608L156.569 127.995Z" fill="#C6DEF2"/>
<path d="M46.0849 154.851L30.922 154.891L31.1411 239.161L46.3041 239.122L46.0849 154.851Z" fill="#C6DEF2"/>
<path d="M87.129 239.482L57.269 239.56L56.984 128.07L71.649 116.06L86.843 127.992L87.129 239.482Z" fill="#C6DEF2"/>
<path d="M259.633 220.363L233.889 220.43L233.639 124.306L246.283 113.951L259.383 124.239L259.633 220.363Z" fill="#C6DEF2"/>
<path d="M188.42 220.549L162.676 220.616L162.476 144.908L175.126 136.746L188.22 144.846L188.42 220.549Z" fill="#C6DEF2"/>
<path d="M349.914 238.255L0 239.166" stroke="#472340" stroke-width="0.5" stroke-miterlimit="10"/>
<path d="M147.902 114.539L134.324 114.575L134.374 133.669L147.952 133.633L147.902 114.539Z" fill="#C6DEF2"/>
<path d="M65.356 135.05L61.396 135.061L61.416 142.699L65.376 142.688L65.356 135.05Z" fill="white"/>
<path d="M112.938 157.839L108.978 157.85L108.998 165.488L112.958 165.477L112.938 157.839Z" fill="white"/>
<path d="M37.4199 161.431L33.46 161.442L33.48 169.08L37.4399 169.069L37.4199 161.431Z" fill="white"/>
<path d="M171.479 152.454L167.519 152.465L167.539 160.103L171.499 160.092L171.479 152.454Z" fill="white"/>
<path d="M151.352 136.099L147.392 136.11L147.412 143.748L151.372 143.737L151.352 136.099Z" fill="white"/>
<path d="M134.991 153.679L131.031 153.691L131.054 161.329L135.014 161.317L134.991 153.679Z" fill="white"/>
<path d="M219.732 106.785L215.772 106.796L215.792 114.434L219.752 114.423L219.732 106.785Z" fill="white"/>
<path d="M254.587 130.456L250.627 130.467L250.647 138.105L254.607 138.094L254.587 130.456Z" fill="white"/>
<path d="M289.443 154.691L285.483 154.703L285.506 162.341L289.466 162.329L289.443 154.691Z" fill="white"/>
<path d="M278.977 154.72L275.017 154.731L275.037 162.369L278.997 162.358L278.977 154.72Z" fill="white"/>
<path d="M304.96 138.811L301 138.822L301.02 146.46L304.98 146.449L304.96 138.811Z" fill="white"/>
<path d="M314.643 163.962L310.683 163.973L310.703 171.611L314.663 171.6L314.643 163.962Z" fill="white"/>
<path d="M207.359 135.105L203.399 135.116L203.419 142.754L207.379 142.743L207.359 135.105Z" fill="white"/>
<path d="M99.5299 114.453L95.5699 114.464L95.5899 122.102L99.5499 122.091L99.5299 114.453Z" fill="white"/>
<path d="M294.075 249.672H180.591V285.106H294.075V249.672Z" fill="#9DCDEB" stroke="#472340" stroke-width="0.5" stroke-miterlimit="10"/>
<path d="M203.695 250.39H180.712V171.058H205.02L203.695 250.39Z" fill="white" stroke="#472340" stroke-width="0.5" stroke-miterlimit="10"/>
<path d="M294.075 171.063H270.429V250.39H294.075V171.063Z" fill="white" stroke="#472340" stroke-width="0.5" stroke-miterlimit="10"/>
<path d="M298.146 217.191H176.521V219.106H298.146V217.191Z" fill="#3D36A4"/>
<path d="M298.146 185.349H176.521V187.264H298.146V185.349Z" fill="#3D36A4"/>
<path d="M298.146 169.866H176.521V171.781H298.146V169.866Z" fill="#3D36A4"/>
<path d="M295.512 164.599H271.091" stroke="#472340" stroke-width="0.5" stroke-miterlimit="10"/>
<path d="M273.006 164.838V170.105" stroke="#472340" stroke-width="0.5" stroke-miterlimit="10"/>
<path d="M276.119 164.838V170.105" stroke="#472340" stroke-width="0.5" stroke-miterlimit="10"/>
<path d="M279.231 164.838V170.105" stroke="#472340" stroke-width="0.5" stroke-miterlimit="10"/>
<path d="M282.344 164.838V170.105" stroke="#472340" stroke-width="0.5" stroke-miterlimit="10"/>
<path d="M285.456 164.838V170.105" stroke="#472340" stroke-width="0.5" stroke-miterlimit="10"/>
<path d="M288.569 164.838V170.105" stroke="#472340" stroke-width="0.5" stroke-miterlimit="10"/>
<path d="M291.681 164.838V170.105" stroke="#472340" stroke-width="0.5" stroke-miterlimit="10"/>
<path d="M204.134 164.439H176.474" stroke="#472340" stroke-width="0.5" stroke-miterlimit="10"/>
<path d="M179.713 164.678V169.945" stroke="#472340" stroke-width="0.5" stroke-miterlimit="10"/>
<path d="M182.826 164.678V169.945" stroke="#472340" stroke-width="0.5" stroke-miterlimit="10"/>
<path d="M185.938 164.678V169.945" stroke="#472340" stroke-width="0.5" stroke-miterlimit="10"/>
<path d="M189.051 164.678V169.945" stroke="#472340" stroke-width="0.5" stroke-miterlimit="10"/>
<path d="M192.163 164.678V169.945" stroke="#472340" stroke-width="0.5" stroke-miterlimit="10"/>
<path d="M195.276 164.678V169.945" stroke="#472340" stroke-width="0.5" stroke-miterlimit="10"/>
<path d="M198.388 164.678V169.945" stroke="#472340" stroke-width="0.5" stroke-miterlimit="10"/>
<path d="M201.5 164.678V169.945" stroke="#472340" stroke-width="0.5" stroke-miterlimit="10"/>
<path d="M256.487 143.69H218.419V250.391H256.487V143.69Z" fill="white" stroke="#472340" stroke-width="0.5" stroke-miterlimit="10"/>
<path d="M271.091 160.13H256.247V250.391H271.091V160.13Z" fill="#FF643D"/>
<path d="M218.499 160.13H203.655V250.391H218.499V160.13Z" fill="#FF643D"/>
<path d="M252.297 176.011H221.173V178.006H252.297V176.011Z" fill="#3D36A4"/>
<path d="M252.297 170.146H221.173V172.141H252.297V170.146Z" fill="#3D36A4"/>
<path d="M252.297 164.28H221.173V166.275H252.297V164.28Z" fill="#3D36A4"/>
<path d="M259.599 198.756H215.546V200.671H259.599V198.756Z" fill="#3D36A4"/>
<path d="M207.167 160.13H206.528V239.457H207.167V160.13Z" fill="#FFFDDF"/>
<path d="M209.56 160.13H208.922V239.457H209.56V160.13Z" fill="#FFFDDF"/>
<path d="M211.955 160.13H211.317V239.457H211.955V160.13Z" fill="#FFFDDF"/>
<path d="M263.351 160.13H262.712V239.457H263.351V160.13Z" fill="#FFFDDF"/>
<path d="M265.744 160.13H265.106V239.457H265.744V160.13Z" fill="#FFFDDF"/>
<path d="M268.138 160.13H267.5V239.457H268.138V160.13Z" fill="#FFFDDF"/>
<path d="M237.573 250.63H237.014V285.106H237.573V250.63Z" fill="black"/>
<path d="M273.426 250.63H272.867V285.106H273.426V250.63Z" fill="black"/>
<path d="M288.769 268.148V267.589H256.208V268.148H288.769Z" fill="black"/>
<path d="M201.84 250.63H201.281V285.106H201.84V250.63Z" fill="black"/>
<path d="M217.182 268.148V267.589H185.579V268.148H217.182Z" fill="black"/>
<path d="M264.947 250.47H256.168V285.106H264.947V250.47Z" fill="#3D36A4"/>
<path d="M289.527 250.47H280.748V285.106H289.527V250.47Z" fill="#3D36A4"/>
<path d="M193.76 250.47H184.981V285.106H193.76V250.47Z" fill="#3D36A4"/>
<path d="M218.34 250.47H209.561V285.106H218.34V250.47Z" fill="#3D36A4"/>
<path d="M233.822 204.981H223.766V223.656H233.822V204.981Z" fill="#9DCDEB" stroke="#472340" stroke-width="0.5" stroke-miterlimit="10"/>
<path d="M233.822 204.981H223.766V223.656H233.822V204.981Z" fill="#9DCDEB" stroke="#472340" stroke-width="0.5" stroke-miterlimit="10"/>
<path d="M233.822 204.981H223.766V223.656H233.822V204.981Z" stroke="#472340" stroke-width="0.5" stroke-miterlimit="10"/>
<path d="M228.634 204.831V223.496" stroke="#472340" stroke-width="0.5" stroke-miterlimit="10"/>
<path d="M223.846 214.418H233.772" stroke="#472340" stroke-width="0.5" stroke-miterlimit="10"/>
<path d="M223.846 209.54H233.772" stroke="#472340" stroke-width="0.5" stroke-miterlimit="10"/>
<path d="M223.846 219.475H233.772" stroke="#472340" stroke-width="0.5" stroke-miterlimit="10"/>
<path d="M251.061 204.981H241.005V223.656H251.061V204.981Z" fill="#9DCDEB" stroke="#472340" stroke-width="0.5" stroke-miterlimit="10"/>
<path d="M251.061 204.981H241.005V223.656H251.061V204.981Z" fill="#9DCDEB" stroke="#472340" stroke-width="0.5" stroke-miterlimit="10"/>
<path d="M251.061 204.981H241.005V223.656H251.061V204.981Z" stroke="#472340" stroke-width="0.5" stroke-miterlimit="10"/>
<path d="M245.873 204.831V223.496" stroke="#472340" stroke-width="0.5" stroke-miterlimit="10"/>
<path d="M241.085 214.418H251.011" stroke="#472340" stroke-width="0.5" stroke-miterlimit="10"/>
<path d="M241.085 209.54H251.011" stroke="#472340" stroke-width="0.5" stroke-miterlimit="10"/>
<path d="M241.085 219.475H251.011" stroke="#472340" stroke-width="0.5" stroke-miterlimit="10"/>
<path d="M290.804 221.741H280.748V240.416H290.804V221.741Z" fill="#9DCDEB" stroke="#472340" stroke-width="0.5" stroke-miterlimit="10"/>
<path d="M290.804 221.741H280.748V240.416H290.804V221.741Z" fill="#9DCDEB" stroke="#472340" stroke-width="0.5" stroke-miterlimit="10"/>
<path d="M290.804 221.741H280.748V240.416H290.804V221.741Z" stroke="#472340" stroke-width="0.5" stroke-miterlimit="10"/>
<path d="M285.616 221.591V240.256" stroke="#472340" stroke-width="0.5" stroke-miterlimit="10"/>
<path d="M280.828 231.178H290.754" stroke="#472340" stroke-width="0.5" stroke-miterlimit="10"/>
<path d="M280.828 226.3H290.754" stroke="#472340" stroke-width="0.5" stroke-miterlimit="10"/>
<path d="M280.828 236.235H290.754" stroke="#472340" stroke-width="0.5" stroke-miterlimit="10"/>
<path d="M290.804 193.808H280.748V212.483H290.804V193.808Z" fill="#9DCDEB" stroke="#472340" stroke-width="0.5" stroke-miterlimit="10"/>
<path d="M290.804 193.808H280.748V212.483H290.804V193.808Z" fill="#9DCDEB" stroke="#472340" stroke-width="0.5" stroke-miterlimit="10"/>
<path d="M290.804 193.808H280.748V212.483H290.804V193.808Z" stroke="#472340" stroke-width="0.5" stroke-miterlimit="10"/>
<path d="M285.616 193.658V212.323" stroke="#472340" stroke-width="0.5" stroke-miterlimit="10"/>
<path d="M280.828 203.245H290.754" stroke="#472340" stroke-width="0.5" stroke-miterlimit="10"/>
<path d="M280.828 198.367H290.754" stroke="#472340" stroke-width="0.5" stroke-miterlimit="10"/>
<path d="M280.828 208.302H290.754" stroke="#472340" stroke-width="0.5" stroke-miterlimit="10"/>
<path d="M246.038 192.776V182.72H227.363V192.776H246.038Z" fill="#9DCDEB" stroke="#472340" stroke-width="0.5" stroke-miterlimit="10"/>
<path d="M246.038 192.776V182.72H227.363V192.776H246.038Z" fill="#9DCDEB" stroke="#472340" stroke-width="0.5" stroke-miterlimit="10"/>
<path d="M246.038 192.776V182.72H227.363V192.776H246.038Z" stroke="#472340" stroke-width="0.5" stroke-miterlimit="10"/>
<path d="M246.188 187.588H227.523" stroke="#472340" stroke-width="0.5" stroke-miterlimit="10"/>
<path d="M236.601 182.8V192.726" stroke="#472340" stroke-width="0.5" stroke-miterlimit="10"/>
<path d="M241.479 182.8V192.726" stroke="#472340" stroke-width="0.5" stroke-miterlimit="10"/>
<path d="M231.543 182.8V192.726" stroke="#472340" stroke-width="0.5" stroke-miterlimit="10"/>
<path d="M233.822 228.388H223.766V240.175H233.822V228.388Z" fill="#9DCDEB" stroke="#472340" stroke-width="0.5" stroke-miterlimit="10"/>
<path d="M233.822 228.388H223.766V240.175H233.822V228.388Z" fill="#9DCDEB" stroke="#472340" stroke-width="0.5" stroke-miterlimit="10"/>
<path d="M233.822 228.388H223.766V240.175H233.822V228.388Z" stroke="#472340" stroke-width="0.5" stroke-miterlimit="10"/>
<path d="M228.634 228.294V240.074" stroke="#472340" stroke-width="0.5" stroke-miterlimit="10"/>
<path d="M223.846 234.345H233.772" stroke="#472340" stroke-width="0.5" stroke-miterlimit="10"/>
<path d="M223.846 231.266H233.772" stroke="#472340" stroke-width="0.5" stroke-miterlimit="10"/>
<path d="M223.846 237.537H233.772" stroke="#472340" stroke-width="0.5" stroke-miterlimit="10"/>
<path d="M251.061 228.388H241.005V240.175H251.061V228.388Z" fill="#9DCDEB" stroke="#472340" stroke-width="0.5" stroke-miterlimit="10"/>
<path d="M251.061 228.388H241.005V240.175H251.061V228.388Z" fill="#9DCDEB" stroke="#472340" stroke-width="0.5" stroke-miterlimit="10"/>
<path d="M251.061 228.388H241.005V240.175H251.061V228.388Z" stroke="#472340" stroke-width="0.5" stroke-miterlimit="10"/>
<path d="M245.873 228.294V240.074" stroke="#472340" stroke-width="0.5" stroke-miterlimit="10"/>
<path d="M241.085 234.345H251.011" stroke="#472340" stroke-width="0.5" stroke-miterlimit="10"/>
<path d="M241.085 231.266H251.011" stroke="#472340" stroke-width="0.5" stroke-miterlimit="10"/>
<path d="M241.085 237.537H251.011" stroke="#472340" stroke-width="0.5" stroke-miterlimit="10"/>
<path d="M290.824 183.239V173.183H279.037V183.239H290.824Z" fill="#9DCDEB" stroke="#472340" stroke-width="0.5" stroke-miterlimit="10"/>
<path d="M290.824 183.239V173.183H279.037V183.239H290.824Z" fill="#9DCDEB" stroke="#472340" stroke-width="0.5" stroke-miterlimit="10"/>
<path d="M290.824 183.239V173.183H279.037V183.239H290.824Z" stroke="#472340" stroke-width="0.5" stroke-miterlimit="10"/>
<path d="M290.918 178.051H279.138" stroke="#472340" stroke-width="0.5" stroke-miterlimit="10"/>
<path d="M284.867 173.263V183.189" stroke="#472340" stroke-width="0.5" stroke-miterlimit="10"/>
<path d="M287.946 173.263V183.189" stroke="#472340" stroke-width="0.5" stroke-miterlimit="10"/>
<path d="M281.675 173.263V183.189" stroke="#472340" stroke-width="0.5" stroke-miterlimit="10"/>
<path d="M234.96 159.297V149.241H223.173V159.297H234.96Z" fill="#9DCDEB" stroke="#472340" stroke-width="0.5" stroke-miterlimit="10"/>
<path d="M234.96 159.297V149.241H223.173V159.297H234.96Z" fill="#9DCDEB" stroke="#472340" stroke-width="0.5" stroke-miterlimit="10"/>
<path d="M234.96 159.297V149.241H223.173V159.297H234.96Z" stroke="#472340" stroke-width="0.5" stroke-miterlimit="10"/>
<path d="M235.054 154.109H223.274" stroke="#472340" stroke-width="0.5" stroke-miterlimit="10"/>
<path d="M229.003 149.321V159.247" stroke="#472340" stroke-width="0.5" stroke-miterlimit="10"/>
<path d="M232.082 149.321V159.247" stroke="#472340" stroke-width="0.5" stroke-miterlimit="10"/>
<path d="M225.811 149.321V159.247" stroke="#472340" stroke-width="0.5" stroke-miterlimit="10"/>
<path d="M250.761 159.297V149.241H238.974V159.297H250.761Z" fill="#9DCDEB" stroke="#472340" stroke-width="0.5" stroke-miterlimit="10"/>
<path d="M250.761 159.297V149.241H238.974V159.297H250.761Z" fill="#9DCDEB" stroke="#472340" stroke-width="0.5" stroke-miterlimit="10"/>
<path d="M250.761 159.297V149.241H238.974V159.297H250.761Z" stroke="#472340" stroke-width="0.5" stroke-miterlimit="10"/>
<path d="M250.855 154.109H239.075" stroke="#472340" stroke-width="0.5" stroke-miterlimit="10"/>
<path d="M244.804 149.321V159.247" stroke="#472340" stroke-width="0.5" stroke-miterlimit="10"/>
<path d="M247.883 149.321V159.247" stroke="#472340" stroke-width="0.5" stroke-miterlimit="10"/>
<path d="M241.612 149.321V159.247" stroke="#472340" stroke-width="0.5" stroke-miterlimit="10"/>
<path d="M183.384 240.415H193.44V221.74H183.384V240.415Z" fill="#9DCDEB" stroke="#472340" stroke-width="0.5" stroke-miterlimit="10"/>
<path d="M183.384 240.415H193.44V221.74H183.384V240.415Z" fill="#9DCDEB" stroke="#472340" stroke-width="0.5" stroke-miterlimit="10"/>
<path d="M183.384 240.415H193.44V221.74H183.384V240.415Z" stroke="#472340" stroke-width="0.5" stroke-miterlimit="10"/>
<path d="M188.571 221.591V240.256" stroke="#472340" stroke-width="0.5" stroke-miterlimit="10"/>
<path d="M193.36 231.178H183.434" stroke="#472340" stroke-width="0.5" stroke-miterlimit="10"/>
<path d="M193.36 226.3H183.434" stroke="#472340" stroke-width="0.5" stroke-miterlimit="10"/>
<path d="M193.36 236.235H183.434" stroke="#472340" stroke-width="0.5" stroke-miterlimit="10"/>
<path d="M183.384 212.482H193.44V193.807H183.384V212.482Z" fill="#9DCDEB" stroke="#472340" stroke-width="0.5" stroke-miterlimit="10"/>
<path d="M183.384 212.482H193.44V193.807H183.384V212.482Z" fill="#9DCDEB" stroke="#472340" stroke-width="0.5" stroke-miterlimit="10"/>
<path d="M183.384 212.482H193.44V193.807H183.384V212.482Z" stroke="#472340" stroke-width="0.5" stroke-miterlimit="10"/>
<path d="M188.571 193.658V212.323" stroke="#472340" stroke-width="0.5" stroke-miterlimit="10"/>
<path d="M193.36 203.245H183.434" stroke="#472340" stroke-width="0.5" stroke-miterlimit="10"/>
<path d="M193.36 198.367H183.434" stroke="#472340" stroke-width="0.5" stroke-miterlimit="10"/>
<path d="M193.36 208.302H183.434" stroke="#472340" stroke-width="0.5" stroke-miterlimit="10"/>
<path d="M195.151 183.239V173.183H183.364V183.239H195.151Z" fill="#9DCDEB" stroke="#472340" stroke-width="0.5" stroke-miterlimit="10"/>
<path d="M195.151 183.239V173.183H183.364V183.239H195.151Z" fill="#9DCDEB" stroke="#472340" stroke-width="0.5" stroke-miterlimit="10"/>
<path d="M195.151 183.239V173.183H183.364V183.239H195.151Z" stroke="#472340" stroke-width="0.5" stroke-miterlimit="10"/>
<path d="M183.27 178.051H195.05" stroke="#472340" stroke-width="0.5" stroke-miterlimit="10"/>
<path d="M189.321 173.263V183.189" stroke="#472340" stroke-width="0.5" stroke-miterlimit="10"/>
<path d="M186.242 173.263V183.189" stroke="#472340" stroke-width="0.5" stroke-miterlimit="10"/>
<path d="M192.513 173.263V183.189" stroke="#472340" stroke-width="0.5" stroke-miterlimit="10"/>
<path d="M298.146 246.744H176.521V250.694H298.146V246.744Z" fill="#3D36A4"/>
<path d="M298.146 243.782H176.521V245.016H298.146V243.782Z" fill="#3D36A4"/>
<path d="M239.249 125.853H234.141V199.211H239.249V125.853Z" fill="#FF643D"/>
<path d="M294.261 194.242H302.736" stroke="#472340" stroke-width="0.5" stroke-miterlimit="10"/>
<path d="M294.261 230.262H302.736" stroke="#472340" stroke-width="0.5" stroke-miterlimit="10"/>
<path d="M315.979 185.413H302.383V238.56H315.979V185.413Z" fill="white" stroke="#472340" stroke-width="0.5" stroke-miterlimit="10"/>
<path d="M308.382 192.802V194.995H310.509V192.802H311.796V198.511H310.509V196.122H308.382V198.511H307.082V192.802H308.382Z" fill="#3D36A4"/>
<path d="M312.193 204.072C312.234 204.459 312.192 204.851 312.068 205.22C311.945 205.59 311.744 205.929 311.479 206.214C311.213 206.499 310.89 206.724 310.53 206.873C310.17 207.023 309.782 207.093 309.393 207.08C309.02 207.085 308.65 207.011 308.307 206.864C307.964 206.717 307.656 206.499 307.403 206.225C307.15 205.951 306.957 205.627 306.837 205.273C306.717 204.92 306.673 204.545 306.707 204.174C306.675 203.791 306.724 203.406 306.85 203.043C306.975 202.68 307.175 202.347 307.436 202.066C307.698 201.784 308.015 201.56 308.368 201.408C308.72 201.256 309.101 201.179 309.485 201.183C309.858 201.175 310.229 201.245 310.574 201.39C310.918 201.535 311.228 201.751 311.483 202.023C311.739 202.296 311.934 202.619 312.056 202.972C312.179 203.325 312.225 203.7 312.193 204.072ZM308.069 204.148C308.069 205.266 308.593 206.054 309.458 206.054C310.323 206.054 310.83 205.224 310.83 204.115C310.83 203.09 310.339 202.208 309.449 202.208C308.576 202.208 308.069 203.039 308.069 204.148Z" fill="#3D36A4"/>
<path d="M308.784 210.837H307.251V209.757H311.64V210.842H310.08V215.457H308.78L308.784 210.837Z" fill="#3D36A4"/>
<path d="M311.139 221.523H309.039V222.878H311.385V223.936H307.743V218.227H311.266V219.285H309.038V220.471H311.138L311.139 221.523Z" fill="#3D36A4"/>
<path d="M307.835 226.703H309.135V231.328H311.406V232.413H307.835V226.703Z" fill="#3D36A4"/>
<path d="M170.248 285.104H329.459" stroke="#472340" stroke-width="0.5" stroke-miterlimit="10"/>
<path d="M166.992 274.224H152.283V254.988C152.283 253.037 153.058 251.166 154.437 249.787C155.817 248.408 157.687 247.633 159.638 247.633C160.604 247.633 161.56 247.823 162.452 248.193C163.345 248.562 164.155 249.104 164.838 249.787C165.521 250.47 166.063 251.281 166.432 252.173C166.802 253.066 166.992 254.022 166.992 254.988V274.224Z" fill="#4D853B"/>
<path d="M159.708 264.075V285.573" stroke="#472340" stroke-width="0.5" stroke-miterlimit="10"/>
<path d="M155.571 265.843L159.708 271.041" stroke="#472340" stroke-width="0.5" stroke-miterlimit="10"/>
<path d="M17.635 274.224H2.92603V254.988C2.92603 253.037 3.70092 251.166 5.08025 249.787C6.45958 248.408 8.33036 247.633 10.281 247.633C11.2469 247.633 12.2032 247.823 13.0955 248.193C13.9878 248.562 14.7985 249.104 15.4814 249.787C16.1643 250.47 16.706 251.281 17.0755 252.173C17.445 253.066 17.6352 254.022 17.635 254.988V274.224Z" fill="#4D853B"/>
<path d="M10.3511 264.075V285.573" stroke="#472340" stroke-width="0.5" stroke-miterlimit="10"/>
<path d="M6.21399 265.843L10.351 271.041" stroke="#472340" stroke-width="0.5" stroke-miterlimit="10"/>
<path d="M145.72 244.933H137.042V233.585C137.042 232.434 137.5 231.331 138.313 230.517C139.127 229.704 140.23 229.247 141.381 229.247C142.532 229.247 143.635 229.704 144.449 230.517C145.262 231.331 145.72 232.434 145.72 233.585V244.933Z" fill="#78A67C"/>
<path d="M141.423 238.947V251.63" stroke="#472340" stroke-width="0.5" stroke-miterlimit="10"/>
<path d="M138.982 239.989L141.423 243.055" stroke="#472340" stroke-width="0.5" stroke-miterlimit="10"/>
<path d="M331.285 236.446H322.608V225.098C322.608 223.947 323.066 222.844 323.879 222.03C324.693 221.217 325.796 220.76 326.947 220.76C328.098 220.76 329.201 221.217 330.014 222.03C330.828 222.844 331.285 223.947 331.285 225.098V236.446Z" fill="#78A67C"/>
<path d="M326.988 230.46V243.143" stroke="#472340" stroke-width="0.5" stroke-miterlimit="10"/>
<path d="M324.548 231.502L326.989 234.568" stroke="#472340" stroke-width="0.5" stroke-miterlimit="10"/>
<path d="M28.044 237.861H19.366V226.513C19.366 225.943 19.4782 225.379 19.6963 224.852C19.9143 224.326 20.2339 223.847 20.6368 223.445C21.0397 223.042 21.5181 222.722 22.0445 222.504C22.5709 222.286 23.1352 222.174 23.705 222.174C24.8557 222.174 25.9594 222.631 26.7731 223.445C27.5868 224.258 28.044 225.362 28.044 226.513V237.861Z" fill="#78A67C"/>
<path d="M23.7469 231.874V244.557" stroke="#472340" stroke-width="0.5" stroke-miterlimit="10"/>
<path d="M21.3059 232.917L23.7469 235.983" stroke="#472340" stroke-width="0.5" stroke-miterlimit="10"/>
<path d="M322.29 274.224H307.581V254.988C307.581 253.037 308.356 251.166 309.735 249.787C311.115 248.408 312.985 247.633 314.936 247.633C315.902 247.633 316.858 247.823 317.751 248.193C318.643 248.562 319.454 249.104 320.136 249.787C320.819 250.47 321.361 251.281 321.731 252.173C322.1 253.066 322.29 254.022 322.29 254.988V274.224Z" fill="#4D853B"/>
<path d="M315.006 264.075V285.573" stroke="#472340" stroke-width="0.5" stroke-miterlimit="10"/>
<path d="M310.869 265.843L315.006 271.041" stroke="#472340" stroke-width="0.5" stroke-miterlimit="10"/>
<path d="M157.375 285.82H130.502C130.502 284.394 131.069 283.027 132.077 282.02C133.085 281.012 134.452 280.446 135.877 280.446H152.001C152.707 280.446 153.405 280.585 154.057 280.855C154.709 281.125 155.302 281.521 155.801 282.02C156.3 282.519 156.696 283.111 156.966 283.763C157.236 284.415 157.375 285.114 157.375 285.82Z" fill="#4D853B"/>
<path d="M335.443 285.82H308.571C308.571 285.114 308.71 284.415 308.98 283.763C309.25 283.111 309.646 282.519 310.145 282.02C310.644 281.521 311.237 281.125 311.889 280.855C312.541 280.585 313.239 280.446 313.945 280.446H330.069C330.775 280.446 331.474 280.585 332.126 280.855C332.778 281.125 333.37 281.521 333.869 282.02C334.368 282.519 334.764 283.111 335.034 283.763C335.304 284.415 335.443 285.114 335.443 285.82Z" fill="#4D853B"/>
<path d="M155.191 25.6257C155.346 23.2085 156.05 20.8584 157.248 18.7534C158.446 16.6484 160.108 14.8437 162.107 13.476C164.106 12.1084 166.39 11.2136 168.786 10.8596C171.183 10.5056 173.628 10.7016 175.937 11.4327C178.448 7.28355 182.28 4.09845 186.819 2.38878C191.357 0.679116 196.338 0.544058 200.963 2.00528C205.587 3.46651 209.587 6.43926 212.319 10.4463C215.051 14.4533 216.357 19.2621 216.028 24.1007H235.682" stroke="#6652A4" stroke-miterlimit="10"/>
<path d="M307.713 67.7277C307.971 63.9405 306.948 60.1765 304.81 57.04C302.672 53.9036 299.542 51.5767 295.922 50.4329C292.302 49.289 288.404 49.3947 284.851 50.7329C281.299 52.071 278.299 54.5641 276.334 57.8117C274.527 57.241 272.614 57.0886 270.739 57.3661C268.864 57.6436 267.077 58.3437 265.513 59.4135C263.949 60.4833 262.648 61.8947 261.71 63.5411C260.771 65.1875 260.219 67.0257 260.096 68.9167H245.178" stroke="#6652A4" stroke-miterlimit="10"/>
<path d="M126.741 57.1947C126.999 53.4076 125.976 49.6437 123.838 46.5075C121.699 43.3712 118.569 41.0445 114.95 39.9008C111.33 38.7572 107.431 38.8629 103.879 40.2011C100.327 41.5392 97.3273 44.0322 95.3621 47.2797C93.5541 46.7087 91.64 46.5564 89.7645 46.8343C87.8891 47.1123 86.1014 47.8132 84.5368 48.8841C82.9723 49.955 81.6718 51.3678 80.7338 53.0155C79.7959 54.6632 79.2451 56.5027 79.1231 58.3947H64.2061" stroke="#6652A4" stroke-miterlimit="10"/>
<path d="M183.965 294.873H208.858" stroke="#472340" stroke-width="0.5" stroke-miterlimit="10"/>
<path d="M333.888 255.836H358.781" stroke="#472340" stroke-width="0.5" stroke-miterlimit="10"/>
<path d="M67.421 279.032H106.458" stroke="#472340" stroke-width="0.5" stroke-miterlimit="10"/>
<path d="M47.62 295.439H72.513" stroke="#472340" stroke-width="0.5" stroke-miterlimit="10"/>
<path d="M1.229 285.255H26.122" stroke="#472340" stroke-width="0.5" stroke-miterlimit="10"/>
<path d="M24.424 256.968H49.3169" stroke="#472340" stroke-width="0.5" stroke-miterlimit="10"/>
<path d="M110.984 258.099H135.877" stroke="#472340" stroke-width="0.5" stroke-miterlimit="10"/>
<path d="M125.702 254.108C125.661 257.926 124.104 261.572 121.375 264.243C118.646 266.914 114.968 268.391 111.15 268.351L55.4941 268.173C53.6029 268.181 51.7285 267.817 49.9779 267.102C48.2274 266.386 46.635 265.332 45.2917 264.001C43.9483 262.67 42.8804 261.087 42.1489 259.343C41.4173 257.599 41.0365 255.728 41.0281 253.837L41.4831 111.529C41.5245 107.71 43.0809 104.065 45.8101 101.394C48.5392 98.7225 52.2176 97.2449 56.0361 97.2857L111.692 97.4627C115.511 97.4468 119.179 98.9482 121.891 101.637C124.603 104.325 126.135 107.981 126.152 111.8L125.702 254.108Z" fill="#3D36A4"/>
<g opacity="0.5">
<path d="M40.1154 245.562L40.1071 248.164L41.783 248.169L41.7914 245.567L40.1154 245.562Z" fill="#3D36A4"/>
<path d="M40.5409 112.218L40.5331 114.821L42.2091 114.826L42.2169 112.223L40.5409 112.218Z" fill="#3D36A4"/>
<path d="M124.997 245.833L124.989 248.435L126.664 248.44L126.672 245.838L124.997 245.833Z" fill="#3D36A4"/>
<path d="M125.423 112.49L125.415 115.092L127.09 115.097L127.098 112.495L125.423 112.49Z" fill="#3D36A4"/>
</g>
<path d="M88.8721 102.243C88.8713 102.437 88.7933 102.623 88.6553 102.761C88.5173 102.898 88.3306 102.974 88.1361 102.974L75.2231 102.932C75.0286 102.931 74.8423 102.853 74.705 102.716C74.5678 102.578 74.4908 102.391 74.4911 102.197C74.4919 102.002 74.5698 101.816 74.7078 101.679C74.8458 101.542 75.0326 101.465 75.2271 101.466L88.1401 101.508C88.2363 101.508 88.3316 101.527 88.4204 101.564C88.5093 101.601 88.5899 101.656 88.6578 101.724C88.7257 101.792 88.7795 101.873 88.8161 101.962C88.8527 102.051 88.8714 102.146 88.8711 102.243H88.8721Z" fill="url(#paint0_linear_718_1920)"/>
<path d="M109.605 100.626L104.624 100.61C104.328 100.605 104.04 100.704 103.809 100.889C103.578 101.074 103.419 101.334 103.36 101.624H103.352C102.989 102.95 102.098 105.099 100.129 105.092L83.853 105.04L67.577 104.988C65.612 104.981 64.732 102.83 64.377 101.502C64.3194 101.211 64.162 100.95 63.932 100.763C63.7021 100.577 63.4141 100.476 63.118 100.48L58.127 100.464C54.5555 100.465 51.1308 101.885 48.6062 104.411C46.0816 106.938 44.6639 110.363 44.665 113.935L44.226 251.123C44.2026 254.694 45.5986 258.128 48.107 260.67C50.6154 263.212 54.0308 264.654 57.602 264.678L109.081 264.843C110.849 264.842 112.6 264.493 114.234 263.816C115.867 263.139 117.352 262.147 118.602 260.896C119.852 259.645 120.843 258.16 121.519 256.526C122.196 254.892 122.544 253.141 122.543 251.373L122.981 114.183C122.993 112.414 122.657 110.661 121.991 109.022C121.325 107.384 120.343 105.893 119.101 104.634C117.859 103.375 116.381 102.373 114.752 101.685C113.122 100.998 111.373 100.637 109.605 100.626Z" fill="white"/>
<path d="M77.302 254.3C77.3058 253.1 77.6651 251.929 78.3346 250.934C79.004 249.939 79.9535 249.165 81.063 248.709C82.1725 248.254 83.3921 248.137 84.5677 248.375C85.7432 248.613 86.8219 249.194 87.6673 250.044C88.5127 250.895 89.0869 251.977 89.3172 253.154C89.5475 254.331 89.4236 255.55 88.9611 256.657C88.4987 257.763 87.7185 258.708 86.7192 259.371C85.7199 260.035 84.5464 260.386 83.347 260.383C81.7388 260.377 80.1986 259.734 79.065 258.593C77.9314 257.452 77.2972 255.908 77.302 254.3Z" fill="#3D36A4"/>
<path d="M61.7323 109.994L61.7301 110.653L62.1691 110.654L62.1713 109.995L61.7323 109.994Z" fill="white"/>
<path d="M62.5079 109.525L62.5042 110.655L62.9431 110.656L62.9469 109.526L62.5079 109.525Z" fill="white"/>
<path d="M63.2819 109.183L63.2771 110.658L63.7161 110.659L63.7209 109.184L63.2819 109.183Z" fill="white"/>
<path d="M64.0567 108.871L64.0511 110.66L64.4911 110.661L64.4967 108.872L64.0567 108.871Z" fill="white"/>
<path d="M64.8315 108.592L64.8251 110.663L65.2641 110.664L65.2705 108.593L64.8315 108.592Z" fill="white"/>
<path d="M53.2705 108.901C53.2878 108.901 53.3012 108.906 53.3105 108.917C53.3211 108.927 53.3264 108.941 53.3263 108.957L53.3222 110.237C53.3222 110.257 53.3155 110.273 53.3021 110.285C53.29 110.295 53.276 110.301 53.26 110.301C53.252 110.301 53.2434 110.299 53.234 110.296C53.2247 110.292 53.2174 110.287 53.2121 110.28L52.3239 109.076L52.358 109.058L52.3542 110.244C52.3542 110.258 52.3488 110.271 52.3381 110.282C52.3274 110.292 52.314 110.298 52.298 110.297C52.2807 110.297 52.2667 110.292 52.2561 110.281C52.2468 110.271 52.2422 110.258 52.2422 110.243L52.2463 108.957C52.2464 108.937 52.2524 108.923 52.2645 108.913C52.2765 108.903 52.2898 108.897 52.3045 108.898C52.3125 108.898 52.3212 108.9 52.3305 108.904C52.3398 108.906 52.3471 108.912 52.3524 108.92L53.2306 110.11L53.2105 110.146L53.2143 108.956C53.2144 108.94 53.2198 108.927 53.2305 108.916C53.2425 108.906 53.2558 108.901 53.2705 108.901ZM54.9473 109.606C54.947 109.711 54.93 109.808 54.8964 109.896C54.8641 109.982 54.8179 110.058 54.7577 110.123C54.6975 110.187 54.626 110.237 54.5432 110.273C54.4618 110.307 54.3724 110.324 54.275 110.324C54.1777 110.323 54.0878 110.306 54.0052 110.271C53.924 110.235 53.8535 110.184 53.7937 110.12C53.7339 110.055 53.6875 109.979 53.6544 109.892C53.6227 109.804 53.607 109.707 53.6073 109.602C53.6077 109.496 53.624 109.4 53.6563 109.314C53.6899 109.226 53.7368 109.15 53.797 109.086C53.8572 109.021 53.928 108.971 54.0095 108.937C54.0922 108.901 54.1823 108.884 54.2796 108.884C54.377 108.884 54.4662 108.902 54.5475 108.939C54.63 108.974 54.7012 109.024 54.761 109.089C54.8208 109.154 54.8665 109.23 54.8983 109.318C54.9313 109.405 54.9477 109.501 54.9473 109.606ZM54.8193 109.606C54.8197 109.487 54.7967 109.383 54.7503 109.293C54.7053 109.203 54.6422 109.132 54.561 109.081C54.4798 109.03 54.3859 109.004 54.2793 109.004C54.1739 109.003 54.0798 109.029 53.997 109.079C53.9155 109.129 53.8513 109.2 53.8043 109.29C53.7587 109.379 53.7357 109.483 53.7353 109.602C53.735 109.721 53.7573 109.825 53.8023 109.916C53.8487 110.006 53.9125 110.076 53.9937 110.127C54.0762 110.178 54.1701 110.203 54.2754 110.204C54.3821 110.204 54.4762 110.179 54.5577 110.129C54.6392 110.078 54.7027 110.009 54.7483 109.919C54.7953 109.829 54.819 109.724 54.8193 109.606ZM56.1612 110.33C56.0598 110.331 55.9719 110.315 55.8973 110.281C55.8227 110.247 55.7516 110.197 55.6838 110.13C55.6771 110.125 55.6712 110.118 55.6659 110.11C55.6619 110.102 55.6599 110.093 55.6599 110.082C55.66 110.066 55.666 110.052 55.6781 110.038C55.6915 110.025 55.7061 110.018 55.7221 110.018C55.7381 110.018 55.7528 110.025 55.7661 110.039C55.8179 110.095 55.8764 110.138 55.9417 110.167C56.0082 110.197 56.0795 110.212 56.1555 110.212C56.2195 110.212 56.2762 110.202 56.3256 110.182C56.3764 110.163 56.4164 110.134 56.4459 110.097C56.4754 110.059 56.4902 110.016 56.4903 109.967C56.4905 109.906 56.474 109.856 56.4408 109.819C56.4076 109.78 56.3637 109.748 56.3091 109.724C56.2545 109.699 56.1939 109.676 56.1273 109.656C56.0727 109.64 56.0208 109.621 55.9715 109.601C55.9222 109.58 55.8783 109.554 55.8397 109.525C55.8012 109.494 55.7713 109.457 55.7501 109.413C55.7289 109.368 55.7184 109.315 55.7186 109.252C55.7188 109.182 55.7377 109.119 55.7752 109.065C55.8127 109.01 55.8655 108.968 55.9336 108.937C56.003 108.905 56.0831 108.89 56.1738 108.89C56.2524 108.89 56.3277 108.904 56.3996 108.931C56.4729 108.957 56.5307 108.997 56.5732 109.049C56.5932 109.071 56.6031 109.09 56.6031 109.107C56.603 109.121 56.5963 109.134 56.5829 109.147C56.5696 109.16 56.5549 109.167 56.5389 109.167C56.5255 109.167 56.5142 109.162 56.5049 109.153C56.4823 109.125 56.4538 109.1 56.4192 109.079C56.3846 109.056 56.3459 109.038 56.3033 109.026C56.262 109.014 56.2187 109.008 56.1734 109.008C56.1107 109.008 56.054 109.017 56.0033 109.037C55.9539 109.056 55.9145 109.083 55.885 109.119C55.8569 109.155 55.8428 109.198 55.8426 109.249C55.8424 109.305 55.8583 109.351 55.8902 109.387C55.9221 109.423 55.964 109.453 56.0159 109.477C56.0678 109.5 56.1231 109.522 56.1817 109.542C56.239 109.558 56.2936 109.577 56.3455 109.598C56.3988 109.619 56.4453 109.644 56.4852 109.675C56.5265 109.706 56.5584 109.744 56.5809 109.791C56.6047 109.838 56.6165 109.897 56.6163 109.967C56.6161 110.035 56.5966 110.097 56.5577 110.151C56.5189 110.206 56.4654 110.249 56.3973 110.281C56.3305 110.312 56.2518 110.329 56.1612 110.33ZM57.0245 110.251C57.0231 110.268 57.0157 110.283 57.0023 110.295C56.9903 110.306 56.9763 110.312 56.9603 110.312C56.9416 110.312 56.9263 110.306 56.9143 110.294C56.9037 110.282 56.8984 110.268 56.8985 110.25L56.9025 108.974C56.9026 108.957 56.9086 108.942 56.9207 108.93C56.9327 108.918 56.9481 108.912 56.9667 108.912C56.9827 108.912 56.9967 108.918 57.0087 108.931C57.022 108.943 57.0286 108.957 57.0285 108.975L57.0245 110.251ZM57.4627 108.914C57.4721 108.914 57.4814 108.916 57.4907 108.92C57.5014 108.924 57.51 108.931 57.5166 108.94L58.066 109.77L58.012 109.768L58.5686 108.944C58.5834 108.924 58.6014 108.915 58.6227 108.918C58.6387 108.918 58.652 108.924 58.6627 108.936C58.6746 108.947 58.6806 108.961 58.6805 108.978L58.6764 110.258C58.6764 110.274 58.6703 110.288 58.6583 110.3C58.6463 110.312 58.6316 110.318 58.6143 110.318C58.5956 110.318 58.5803 110.312 58.5683 110.3C58.5563 110.287 58.5504 110.273 58.5504 110.257L58.5541 109.099L58.5901 109.104L58.0817 109.868C58.0777 109.876 58.0716 109.883 58.0636 109.888C58.0556 109.892 58.0463 109.893 58.0356 109.892C58.0263 109.893 58.0169 109.892 58.0076 109.888C57.9996 109.882 57.993 109.876 57.9877 109.868L57.4822 109.092L57.5202 109.066L57.5165 110.254C57.5164 110.27 57.5104 110.284 57.4983 110.296C57.4876 110.308 57.4736 110.314 57.4563 110.314C57.4389 110.314 57.4249 110.308 57.4143 110.296C57.4037 110.284 57.3984 110.27 57.3985 110.254L57.4025 108.974C57.4026 108.958 57.408 108.944 57.4187 108.932C57.4307 108.92 57.4454 108.914 57.4627 108.914Z" fill="white"/>
<path d="M99.8291 108.845C99.6284 108.844 99.432 108.903 99.2647 109.014C99.0975 109.125 98.9669 109.283 98.8896 109.469C98.8122 109.654 98.7915 109.858 98.8301 110.055C98.8687 110.252 98.9648 110.433 99.1063 110.575C99.2479 110.718 99.4284 110.815 99.6252 110.855C99.822 110.894 100.026 110.875 100.212 110.799C100.398 110.722 100.556 110.593 100.668 110.426C100.78 110.26 100.841 110.063 100.841 109.863C100.842 109.594 100.735 109.335 100.546 109.144C100.356 108.954 100.098 108.846 99.8291 108.845ZM99.8212 110.657C99.6629 110.657 99.5083 110.61 99.3767 110.522C99.2451 110.434 99.1426 110.309 99.082 110.163C99.0215 110.017 99.0057 109.856 99.0365 109.701C99.0674 109.545 99.1436 109.403 99.2555 109.291C99.3673 109.179 99.5099 109.103 99.6651 109.072C99.8203 109.041 99.9811 109.057 100.127 109.118C100.273 109.178 100.398 109.281 100.486 109.412C100.574 109.544 100.621 109.698 100.621 109.857C100.621 109.962 100.6 110.066 100.56 110.163C100.52 110.26 100.461 110.348 100.387 110.422C100.313 110.497 100.224 110.556 100.127 110.596C100.03 110.636 99.9262 110.657 99.8212 110.657Z" fill="white"/>
<path d="M100.357 109.83H99.9002V109.282C99.9014 109.27 99.9002 109.258 99.8966 109.247C99.893 109.236 99.8871 109.225 99.8792 109.216C99.8713 109.208 99.8617 109.201 99.8509 109.196C99.8401 109.191 99.8285 109.189 99.8167 109.189C99.8049 109.189 99.7932 109.191 99.7824 109.196C99.7716 109.201 99.762 109.208 99.7541 109.216C99.7462 109.225 99.7403 109.236 99.7367 109.247C99.7331 109.258 99.7319 109.27 99.7332 109.282V109.914C99.7332 109.936 99.7419 109.957 99.7575 109.972C99.773 109.988 99.7941 109.997 99.8162 109.997H100.357C100.369 109.998 100.381 109.997 100.392 109.993C100.403 109.99 100.414 109.984 100.422 109.976C100.431 109.968 100.438 109.958 100.443 109.947C100.448 109.937 100.45 109.925 100.45 109.913C100.45 109.901 100.448 109.89 100.443 109.879C100.438 109.868 100.431 109.859 100.422 109.851C100.414 109.843 100.403 109.837 100.392 109.833C100.381 109.83 100.369 109.828 100.357 109.83Z" fill="white"/>
<path d="M99.6775 108.754L99.6771 108.875L99.9831 108.876L99.9835 108.755L99.6775 108.754Z" fill="white"/>
<path d="M99.6027 108.602L99.6022 108.783L100.057 108.784L100.058 108.603L99.6027 108.602Z" fill="white"/>
<path d="M99.1332 108.907L98.8872 109.088L99.0303 109.283L99.2763 109.103L99.1332 108.907Z" fill="white"/>
<path d="M100.525 108.91L100.38 109.106L100.626 109.288L100.771 109.092L100.525 108.91Z" fill="white"/>
<path d="M103.503 109.794C103.484 109.794 103.469 109.788 103.457 109.776C103.445 109.764 103.439 109.75 103.439 109.734L103.443 108.53L103.465 108.55L103.199 108.727C103.188 108.735 103.176 108.739 103.164 108.739C103.148 108.739 103.134 108.732 103.121 108.719C103.109 108.706 103.103 108.691 103.103 108.675C103.103 108.654 103.113 108.637 103.135 108.625L103.47 108.404C103.478 108.399 103.486 108.395 103.494 108.394C103.503 108.393 103.511 108.393 103.518 108.394C103.535 108.396 103.548 108.402 103.558 108.414C103.567 108.425 103.571 108.438 103.571 108.454L103.567 109.734C103.567 109.75 103.561 109.764 103.549 109.776C103.537 109.788 103.522 109.794 103.503 109.794ZM104.385 109.817C104.279 109.817 104.189 109.784 104.118 109.72C104.046 109.656 103.992 109.57 103.956 109.462C103.921 109.352 103.903 109.23 103.904 109.095C103.904 108.959 103.922 108.837 103.959 108.73C103.995 108.62 104.049 108.535 104.122 108.472C104.194 108.408 104.283 108.377 104.39 108.377C104.499 108.377 104.589 108.41 104.66 108.474C104.731 108.537 104.785 108.623 104.821 108.732C104.856 108.84 104.874 108.963 104.874 109.099C104.873 109.233 104.855 109.355 104.818 109.464C104.782 109.572 104.728 109.658 104.656 109.722C104.585 109.786 104.495 109.817 104.385 109.817ZM104.386 109.693C104.464 109.693 104.53 109.669 104.582 109.62C104.635 109.57 104.676 109.501 104.703 109.412C104.731 109.321 104.745 109.217 104.746 109.098C104.746 108.978 104.732 108.873 104.705 108.784C104.678 108.693 104.638 108.623 104.585 108.574C104.533 108.524 104.468 108.499 104.389 108.499C104.312 108.499 104.247 108.523 104.193 108.572C104.141 108.622 104.101 108.691 104.073 108.782C104.046 108.871 104.032 108.976 104.032 109.096C104.031 109.215 104.044 109.319 104.071 109.41C104.098 109.499 104.138 109.569 104.19 109.618C104.243 109.668 104.308 109.693 104.386 109.693ZM105.575 109.821C105.468 109.82 105.379 109.788 105.307 109.724C105.235 109.66 105.182 109.574 105.146 109.465C105.11 109.356 105.093 109.234 105.093 109.099C105.093 108.963 105.112 108.841 105.148 108.733C105.185 108.624 105.239 108.538 105.311 108.476C105.383 108.412 105.473 108.38 105.579 108.381C105.689 108.381 105.779 108.413 105.849 108.478C105.921 108.541 105.975 108.627 106.01 108.736C106.046 108.844 106.063 108.966 106.063 109.102C106.063 109.237 106.044 109.359 106.008 109.468C105.972 109.576 105.917 109.662 105.845 109.726C105.774 109.789 105.684 109.821 105.575 109.821ZM105.575 109.697C105.654 109.697 105.719 109.673 105.771 109.623C105.825 109.574 105.865 109.505 105.892 109.416C105.92 109.325 105.935 109.221 105.935 109.102C105.935 108.982 105.922 108.877 105.894 108.788C105.868 108.697 105.828 108.627 105.775 108.577C105.723 108.528 105.658 108.503 105.579 108.503C105.502 108.503 105.436 108.527 105.383 108.576C105.331 108.625 105.29 108.695 105.262 108.786C105.235 108.875 105.221 108.98 105.221 109.1C105.221 109.218 105.234 109.323 105.26 109.414C105.288 109.503 105.328 109.573 105.379 109.622C105.433 109.672 105.498 109.697 105.575 109.697ZM107.081 109.12C107.021 109.119 106.971 109.103 106.931 109.069C106.892 109.036 106.861 108.992 106.84 108.937C106.82 108.881 106.81 108.821 106.81 108.757C106.811 108.69 106.821 108.629 106.841 108.573C106.863 108.517 106.894 108.472 106.935 108.439C106.977 108.406 107.028 108.389 107.088 108.39C107.148 108.39 107.198 108.407 107.237 108.44C107.279 108.474 107.309 108.518 107.329 108.574C107.35 108.63 107.361 108.691 107.36 108.756C107.36 108.82 107.349 108.88 107.328 108.936C107.306 108.992 107.275 109.037 107.233 109.07C107.193 109.103 107.143 109.12 107.081 109.12ZM107.086 109.016C107.143 109.016 107.184 108.991 107.208 108.942C107.233 108.893 107.246 108.831 107.246 108.758C107.247 108.681 107.233 108.617 107.205 108.568C107.179 108.519 107.138 108.494 107.083 108.494C107.027 108.493 106.987 108.519 106.961 108.569C106.937 108.62 106.925 108.682 106.924 108.755C106.924 108.831 106.937 108.894 106.964 108.943C106.992 108.991 107.032 109.015 107.086 109.016ZM107.903 109.824C107.844 109.824 107.794 109.807 107.753 109.774C107.712 109.74 107.681 109.696 107.66 109.641C107.64 109.585 107.63 109.525 107.63 109.461C107.63 109.395 107.641 109.333 107.663 109.277C107.684 109.222 107.716 109.177 107.757 109.144C107.799 109.111 107.849 109.094 107.909 109.094C107.969 109.094 108.019 109.111 108.059 109.145C108.1 109.178 108.131 109.223 108.151 109.279C108.171 109.335 108.18 109.396 108.18 109.461C108.18 109.525 108.169 109.585 108.148 109.641C108.126 109.697 108.095 109.741 108.053 109.775C108.013 109.808 107.963 109.824 107.903 109.824ZM107.907 109.72C107.963 109.72 108.004 109.696 108.03 109.647C108.055 109.597 108.068 109.536 108.068 109.463C108.068 109.385 108.055 109.322 108.027 109.273C108 109.223 107.96 109.198 107.905 109.198C107.849 109.198 107.808 109.223 107.783 109.274C107.757 109.324 107.744 109.386 107.744 109.46C107.744 109.536 107.758 109.598 107.786 109.648C107.813 109.696 107.854 109.72 107.907 109.72ZM107.057 109.812C107.042 109.811 107.029 109.807 107.017 109.797C107.006 109.787 107.001 109.773 107.001 109.757C107.001 109.747 107.005 109.736 107.011 109.725L107.872 108.428C107.884 108.411 107.898 108.402 107.916 108.402C107.93 108.402 107.943 108.407 107.954 108.416C107.966 108.426 107.971 108.439 107.971 108.456C107.971 108.466 107.968 108.476 107.961 108.488L107.101 109.786C107.089 109.803 107.074 109.812 107.057 109.812Z" fill="white"/>
<path d="M114.611 108.912C114.667 108.912 114.723 108.923 114.775 108.945C114.827 108.966 114.874 108.998 114.914 109.038C114.953 109.078 114.985 109.125 115.006 109.178C115.027 109.23 115.038 109.285 115.038 109.342V110.516C115.038 110.572 115.027 110.628 115.005 110.68C114.983 110.732 114.952 110.779 114.912 110.819C114.872 110.859 114.824 110.89 114.772 110.911C114.72 110.933 114.664 110.944 114.608 110.944L111.42 110.934C111.306 110.933 111.197 110.888 111.117 110.807C111.037 110.726 110.992 110.617 110.992 110.504V109.33C110.992 109.273 111.003 109.218 111.025 109.166C111.047 109.114 111.078 109.066 111.118 109.027C111.158 108.987 111.206 108.955 111.258 108.934C111.31 108.913 111.366 108.902 111.422 108.902L114.61 108.912M114.61 108.826L111.422 108.815C111.354 108.814 111.287 108.828 111.225 108.853C111.162 108.879 111.105 108.917 111.057 108.964C111.009 109.012 110.971 109.068 110.945 109.131C110.919 109.193 110.905 109.26 110.905 109.328V110.502C110.905 110.638 110.959 110.769 111.055 110.866C111.151 110.963 111.282 111.017 111.418 111.018L114.606 111.028C114.742 111.028 114.873 110.974 114.97 110.878C115.067 110.782 115.121 110.651 115.122 110.515V109.341C115.122 109.204 115.068 109.073 114.972 108.977C114.876 108.88 114.745 108.825 114.609 108.825L114.61 108.826Z" fill="white"/>
<path d="M111.193 110.411L111.196 109.429C111.196 109.349 111.228 109.273 111.284 109.217C111.341 109.161 111.417 109.129 111.497 109.13L114.533 109.139C114.612 109.139 114.689 109.171 114.745 109.227C114.801 109.284 114.832 109.36 114.832 109.44L114.829 110.422C114.829 110.501 114.797 110.577 114.74 110.633C114.684 110.69 114.608 110.721 114.528 110.721L111.492 110.712C111.412 110.711 111.336 110.68 111.28 110.623C111.224 110.567 111.193 110.49 111.193 110.411Z" fill="white"/>
<path d="M115.283 109.574V110.285C115.331 110.287 115.38 110.28 115.425 110.263C115.47 110.247 115.512 110.221 115.547 110.188C115.582 110.154 115.61 110.114 115.629 110.07C115.648 110.025 115.658 109.978 115.658 109.929C115.658 109.881 115.648 109.833 115.629 109.789C115.61 109.744 115.582 109.704 115.547 109.671C115.512 109.638 115.47 109.612 115.425 109.595C115.38 109.578 115.331 109.571 115.283 109.574Z" fill="white"/>
<path d="M92.8631 102.264C92.8625 102.412 92.818 102.556 92.7353 102.679C92.6526 102.801 92.5354 102.897 92.3985 102.953C92.2616 103.009 92.1112 103.023 91.9662 102.994C91.8212 102.964 91.6882 102.893 91.584 102.788C91.4798 102.682 91.4091 102.549 91.3809 102.404C91.3526 102.258 91.368 102.108 91.4252 101.972C91.4823 101.835 91.5787 101.719 91.702 101.637C91.8253 101.555 91.9701 101.512 92.1181 101.513C92.2163 101.513 92.3135 101.533 92.4041 101.571C92.4947 101.609 92.5769 101.664 92.6461 101.734C92.7153 101.804 92.77 101.886 92.8073 101.977C92.8445 102.068 92.8634 102.165 92.8631 102.264Z" fill="url(#paint1_linear_718_1920)"/>
<path d="M111.254 227.364H55.759V239.256H111.254V227.364Z" fill="#FF643D"/>
<path d="M65.2645 234.882V229.791H67.3028C67.6774 229.791 67.9898 229.846 68.24 229.957C68.4902 230.068 68.6783 230.223 68.8043 230.42C68.9302 230.615 68.9932 230.841 68.9932 231.096C68.9932 231.295 68.9534 231.47 68.8739 231.62C68.7943 231.769 68.6849 231.892 68.5457 231.988C68.4082 232.083 68.2508 232.15 68.0734 232.19V232.239C68.2673 232.248 68.4488 232.302 68.6178 232.403C68.7885 232.504 68.9269 232.646 69.033 232.828C69.139 233.009 69.1921 233.225 69.1921 233.475C69.1921 233.745 69.1249 233.986 68.9907 234.198C68.8581 234.409 68.6617 234.575 68.4016 234.698C68.1414 234.82 67.8207 234.882 67.4396 234.882H65.2645ZM66.3408 234.002H67.2183C67.5183 234.002 67.737 233.945 67.8746 233.83C68.0121 233.714 68.0809 233.56 68.0809 233.368C68.0809 233.227 68.0469 233.103 67.979 232.995C67.911 232.887 67.8141 232.803 67.6881 232.741C67.5639 232.68 67.4155 232.649 67.2432 232.649H66.3408V234.002ZM66.3408 231.921H67.1388C67.2863 231.921 67.4172 231.895 67.5315 231.844C67.6475 231.791 67.7387 231.716 67.805 231.62C67.8729 231.524 67.9069 231.409 67.9069 231.275C67.9069 231.091 67.8414 230.943 67.7105 230.83C67.5813 230.717 67.3973 230.661 67.1587 230.661H66.3408V231.921ZM74.5707 232.336C74.5707 232.891 74.4655 233.364 74.255 233.753C74.0462 234.143 73.7611 234.44 73.3999 234.646C73.0403 234.849 72.6359 234.951 72.1868 234.951C71.7344 234.951 71.3284 234.849 70.9688 234.643C70.6092 234.438 70.325 234.14 70.1161 233.751C69.9073 233.361 69.8029 232.89 69.8029 232.336C69.8029 231.781 69.9073 231.309 70.1161 230.919C70.325 230.53 70.6092 230.233 70.9688 230.029C71.3284 229.824 71.7344 229.721 72.1868 229.721C72.6359 229.721 73.0403 229.824 73.3999 230.029C73.7611 230.233 74.0462 230.53 74.255 230.919C74.4655 231.309 74.5707 231.781 74.5707 232.336ZM73.4794 232.336C73.4794 231.977 73.4256 231.673 73.3178 231.426C73.2118 231.18 73.0618 230.992 72.8679 230.865C72.674 230.737 72.447 230.673 72.1868 230.673C71.9266 230.673 71.6996 230.737 71.5057 230.865C71.3118 230.992 71.161 231.18 71.0533 231.426C70.9472 231.673 70.8942 231.977 70.8942 232.336C70.8942 232.696 70.9472 232.999 71.0533 233.246C71.161 233.493 71.3118 233.68 71.5057 233.808C71.6996 233.935 71.9266 233.999 72.1868 233.999C72.447 233.999 72.674 233.935 72.8679 233.808C73.0618 233.68 73.2118 233.493 73.3178 233.246C73.4256 232.999 73.4794 232.696 73.4794 232.336ZM80.0463 232.336C80.0463 232.891 79.941 233.364 79.7306 233.753C79.5218 234.143 79.2367 234.44 78.8755 234.646C78.5159 234.849 78.1115 234.951 77.6624 234.951C77.21 234.951 76.804 234.849 76.4444 234.643C76.0847 234.438 75.8005 234.14 75.5917 233.751C75.3829 233.361 75.2785 232.89 75.2785 232.336C75.2785 231.781 75.3829 231.309 75.5917 230.919C75.8005 230.53 76.0847 230.233 76.4444 230.029C76.804 229.824 77.21 229.721 77.6624 229.721C78.1115 229.721 78.5159 229.824 78.8755 230.029C79.2367 230.233 79.5218 230.53 79.7306 230.919C79.941 231.309 80.0463 231.781 80.0463 232.336ZM78.955 232.336C78.955 231.977 78.9012 231.673 78.7934 231.426C78.6874 231.18 78.5374 230.992 78.3435 230.865C78.1496 230.737 77.9226 230.673 77.6624 230.673C77.4022 230.673 77.1752 230.737 76.9813 230.865C76.7874 230.992 76.6366 231.18 76.5289 231.426C76.4228 231.673 76.3698 231.977 76.3698 232.336C76.3698 232.696 76.4228 232.999 76.5289 233.246C76.6366 233.493 76.7874 233.68 76.9813 233.808C77.1752 233.935 77.4022 233.999 77.6624 233.999C77.9226 233.999 78.1496 233.935 78.3435 233.808C78.5374 233.68 78.6874 233.493 78.7934 233.246C78.9012 232.999 78.955 232.696 78.955 232.336ZM80.8436 234.882V229.791H81.9199V232.035H81.9871L83.8191 229.791H85.1092L83.22 232.07L85.1316 234.882H83.8439L82.4494 232.789L81.9199 233.435V234.882H80.8436ZM91.5481 229.791V234.882H90.6184L88.4035 231.678H88.3662V234.882H87.2899V229.791H88.2345L90.4319 232.993H90.4767V229.791H91.5481ZM97.1156 232.336C97.1156 232.891 97.0104 233.364 96.7999 233.753C96.5911 234.143 96.3061 234.44 95.9448 234.646C95.5852 234.849 95.1808 234.951 94.7317 234.951C94.2793 234.951 93.8733 234.849 93.5137 234.643C93.1541 234.438 92.8699 234.14 92.6611 233.751C92.4523 233.361 92.3479 232.89 92.3479 232.336C92.3479 231.781 92.4523 231.309 92.6611 230.919C92.8699 230.53 93.1541 230.233 93.5137 230.029C93.8733 229.824 94.2793 229.721 94.7317 229.721C95.1808 229.721 95.5852 229.824 95.9448 230.029C96.3061 230.233 96.5911 230.53 96.7999 230.919C97.0104 231.309 97.1156 231.781 97.1156 232.336ZM96.0243 232.336C96.0243 231.977 95.9705 231.673 95.8628 231.426C95.7567 231.18 95.6067 230.992 95.4128 230.865C95.2189 230.737 94.9919 230.673 94.7317 230.673C94.4716 230.673 94.2445 230.737 94.0506 230.865C93.8567 230.992 93.7059 231.18 93.5982 231.426C93.4922 231.673 93.4391 231.977 93.4391 232.336C93.4391 232.696 93.4922 232.999 93.5982 233.246C93.7059 233.493 93.8567 233.68 94.0506 233.808C94.2445 233.935 94.4716 233.999 94.7317 233.999C94.9919 233.999 95.2189 233.935 95.4128 233.808C95.6067 233.68 95.7567 233.493 95.8628 233.246C95.9705 232.999 96.0243 232.696 96.0243 232.336ZM98.8675 234.882L97.4108 229.791H98.5866L99.4293 233.328H99.4715L100.401 229.791H101.408L102.335 233.336H102.38L103.223 229.791H104.398L102.942 234.882H101.893L100.923 231.553H100.883L99.9165 234.882H98.8675Z" fill="white"/>
<path d="M111.125 119.633H54.2671V178.612H111.125V119.633Z" fill="#FF643D"/>
<path d="M108.155 188.23H54.0551V190.37H108.155V188.23Z" fill="#FF643D"/>
<path d="M108.155 192.181H54.0551V194.321H108.155V192.181Z" fill="#FF643D"/>
<path d="M106.67 196.132H54.0551V198.602H106.67V196.132Z" fill="#FF643D"/>
<path d="M102.639 200.084H54.0551V202.06H102.639V200.084Z" fill="#FF643D"/>
<path d="M93.9401 203.377H54.0551V205.517H93.9401V203.377Z" fill="#FF643D"/>
<path d="M87.7881 207.328H54.0551V209.304H87.7881V207.328Z" fill="#FF643D"/>
<path d="M346.618 274.224H331.909V254.988C331.909 254.022 332.099 253.066 332.468 252.173C332.838 251.281 333.38 250.47 334.063 249.787C334.745 249.104 335.556 248.562 336.448 248.193C337.341 247.823 338.297 247.633 339.263 247.633C341.214 247.633 343.084 248.408 344.464 249.787C345.843 251.166 346.618 253.037 346.618 254.988V274.224Z" fill="#4D853B"/>
<path d="M339.334 264.075V285.573" stroke="#472340" stroke-width="0.5" stroke-miterlimit="10"/>
<path d="M335.197 265.843L339.334 271.041" stroke="#472340" stroke-width="0.5" stroke-miterlimit="10"/>
<path d="M43.0929 285.82H16.2209C16.2209 285.114 16.36 284.415 16.63 283.763C16.9001 283.111 17.2959 282.519 17.795 282.02C18.294 281.521 18.8864 281.125 19.5384 280.855C20.1904 280.585 20.8892 280.446 21.5949 280.446H37.7189C38.4247 280.446 39.1235 280.585 39.7755 280.855C40.4275 281.125 41.0199 281.521 41.5189 282.02C42.018 282.519 42.4138 283.111 42.6839 283.763C42.9539 284.415 43.0929 285.114 43.0929 285.82Z" fill="#4D853B"/>
<defs>
<linearGradient id="paint0_linear_718_1920" x1="97.3856" y1="13.4708" x2="97.3856" y2="14.7979" gradientUnits="userSpaceOnUse">
<stop stop-color="#121111"/>
<stop offset="1" stop-color="#272327"/>
</linearGradient>
<linearGradient id="paint1_linear_718_1920" x1="107.819" y1="13.5717" x2="107.819" y2="14.9256" gradientUnits="userSpaceOnUse">
<stop stop-color="#121111"/>
<stop offset="1" stop-color="#272327"/>
</linearGradient>
</defs>
</svg>
