<svg width="287" height="248" viewBox="0 0 287 248" fill="none" xmlns="http://www.w3.org/2000/svg">
<path opacity="0.201" d="M41.0677 227.004C95.8237 254.998 184.6 254.999 239.355 227.004C294.109 199.008 294.111 153.62 239.355 125.624C184.599 97.6287 95.8223 97.6287 41.0663 125.624C-13.6897 153.62 -13.6883 199.009 41.0677 227.004Z" fill="white"/>
<path d="M220.144 182.28C223.144 184.013 229.046 183.415 233.316 180.947L257.954 166.639C262.228 164.174 263.255 160.764 260.248 159.027C257.24 157.291 251.345 157.886 247.066 160.356L222.449 174.671C218.176 177.141 217.144 180.547 220.144 182.28Z" fill="#3D36A4" stroke="#FF643D"/>
<path d="M71.8258 195.475L46.7625 181.006L71.8258 166.545V195.475Z" fill="#EBEBEB"/>
<path d="M142.653 204.132L102.264 180.798L142.666 157.515L142.653 204.132Z" fill="#EBEBEB"/>
<path d="M37.9245 161.649C37.9943 155.787 33.902 143.596 27.9101 135.913C21.9182 128.229 12.4242 122.548 5.60367 124.79C-0.749834 126.879 -0.163653 135.187 7.44576 140.779C15.0552 146.371 26.5117 153.419 29.77 162.966L36.7124 174.717L37.9245 161.649Z" fill="#A29CFD"/>
<path d="M38.2572 169.674C38.1642 169.666 38.0766 169.627 38.0077 169.564C37.9388 169.501 37.8922 169.417 37.8751 169.325C34.1909 149.27 18.201 132.812 8.55502 129.102C8.45033 129.061 8.36585 128.981 8.31974 128.878C8.27363 128.776 8.2696 128.659 8.30849 128.554C8.3281 128.502 8.35786 128.454 8.39607 128.413C8.43427 128.372 8.48015 128.34 8.53108 128.317C8.582 128.294 8.63696 128.281 8.69278 128.28C8.7486 128.278 8.80419 128.287 8.85633 128.307C18.6845 132.087 34.9702 148.816 38.7133 169.174C38.7337 169.286 38.7089 169.401 38.6445 169.495C38.58 169.588 38.4811 169.652 38.3695 169.673C38.3323 169.679 38.2945 169.679 38.2572 169.674Z" fill="white"/>
<path d="M35.1195 182.446C34.217 179.14 30.2589 173.654 23.804 169.084C16.663 164.029 7.57855 161.635 5.52417 157.742C3.05892 153.067 7.03072 148.725 14.41 149.73C21.7894 150.736 34.6799 160.984 36.574 176.203L35.1195 182.446Z" fill="#A29CFD"/>
<path d="M36.6 179.005C36.5179 178.997 36.4397 178.966 36.3749 178.915C36.31 178.864 36.2612 178.796 36.2343 178.718C30.304 161.503 17.2998 155.329 11.2517 154.476C11.1392 154.46 11.0378 154.4 10.9695 154.309C10.9013 154.218 10.8718 154.104 10.8874 153.991C10.8944 153.935 10.9126 153.881 10.941 153.832C10.9694 153.783 11.0073 153.74 11.0526 153.706C11.0978 153.672 11.1494 153.648 11.2043 153.634C11.2593 153.62 11.3164 153.618 11.3722 153.627C18.0599 154.577 30.9929 160.872 37.0451 178.444C37.0679 178.511 37.0735 178.584 37.0613 178.654C37.0491 178.725 37.0197 178.791 36.9755 178.847C36.9313 178.903 36.8738 178.947 36.8083 178.976C36.7427 179.004 36.6711 179.016 36.6 179.009V179.005Z" fill="white"/>
<path d="M256.662 144.964C256.662 144.964 257.484 132.607 264.767 123.433C272.051 114.26 271.602 110.482 266.581 108.631C261.56 106.779 249.896 117.834 252.492 132.639C255.087 147.445 256.662 144.964 256.662 144.964Z" fill="#A29CFD"/>
<path opacity="0.1" d="M256.662 144.964C256.662 144.964 257.484 132.607 264.767 123.433C272.051 114.26 271.602 110.482 266.581 108.631C261.56 106.779 249.896 117.834 252.492 132.639C255.087 147.445 256.662 144.964 256.662 144.964Z" fill="#A29CFD"/>
<path d="M254.438 137.905C254.364 137.906 254.293 137.877 254.24 137.826C254.186 137.775 254.155 137.705 254.152 137.632C253.301 124.023 262.917 112.857 266.509 110.33C266.572 110.286 266.649 110.269 266.724 110.282C266.799 110.295 266.866 110.338 266.909 110.4C266.953 110.462 266.97 110.54 266.957 110.615C266.944 110.69 266.902 110.756 266.84 110.8C263.313 113.278 253.89 124.232 254.726 137.596C254.728 137.634 254.723 137.672 254.71 137.708C254.698 137.744 254.678 137.778 254.653 137.806C254.627 137.834 254.596 137.858 254.562 137.874C254.527 137.89 254.49 137.9 254.452 137.901L254.438 137.905Z" fill="#A29CFD"/>
<path d="M254.682 155.169C257.955 156.237 261.309 157.044 264.71 157.582C270.348 158.475 272.838 155.779 272.838 155.779C272.838 155.779 270.618 150.489 267.416 149.006C270.882 149.782 274.191 151.139 277.203 153.02C277.203 153.02 280.646 153.072 282.017 147.816C282.017 147.816 279.977 144.653 273.131 142.944C276.513 142.328 279.99 142.493 283.298 143.426C283.748 143.606 285.666 136.81 286.247 133.675C286.827 130.54 285.562 130.573 283.123 129.921C280.683 129.269 272.577 127.456 271.054 128.795C269.531 130.134 268.746 134.736 268.746 134.736C268.139 132.852 268.059 130.838 268.516 128.911C266.674 128.381 264.714 128.429 262.901 129.048C260.109 129.861 259.972 131.76 260.1 133.908C260.258 135.77 260.664 137.604 261.308 139.359C261.308 139.359 259.132 136.569 259.064 130.521C259.064 130.521 253.351 133.36 252.375 139.03C251.854 142.091 251.103 151.096 254.682 155.169Z" fill="#A29CFD"/>
<path d="M255.758 154.069C255.818 154.069 255.877 154.053 255.927 154.021C255.978 153.989 256.019 153.944 256.045 153.89C260.596 144.44 277.514 133.45 283.573 132.271C283.616 132.264 283.656 132.249 283.692 132.227C283.729 132.204 283.76 132.175 283.785 132.14C283.809 132.105 283.827 132.065 283.836 132.023C283.845 131.981 283.845 131.938 283.837 131.896C283.828 131.854 283.812 131.814 283.788 131.779C283.764 131.743 283.733 131.713 283.697 131.69C283.661 131.667 283.621 131.651 283.578 131.644C283.536 131.637 283.493 131.638 283.451 131.648C277.288 132.846 260.094 144.008 255.472 153.615C255.454 153.652 255.443 153.693 255.441 153.734C255.438 153.776 255.444 153.818 255.458 153.857C255.471 153.896 255.493 153.933 255.521 153.964C255.549 153.995 255.582 154.02 255.62 154.038C255.663 154.059 255.71 154.07 255.758 154.069Z" fill="#A29CFD"/>
<path d="M35.7168 186.375C35.1279 186.375 35.0399 185.682 35.0399 185.269V81.7529L161.24 8.89071L161.241 111.482C161.241 112.903 160.201 114.704 158.969 115.415L36.5096 186.117C36.2176 186.286 35.9434 186.375 35.7168 186.375Z" fill="#FAFAFA"/>
<path d="M35.8633 185.54C35.9254 185.518 36.0072 185.482 36.1091 185.424L158.569 114.721C159.548 114.156 160.44 112.612 160.44 111.482L160.438 10.2782L35.8411 82.2154V185.269C35.8411 185.383 35.8509 185.473 35.8633 185.54ZM35.7168 187.176C34.8405 187.176 34.2389 186.477 34.2389 185.269V81.2904L162.041 7.50322L162.042 111.482C162.042 113.185 160.846 115.256 159.37 116.108L36.9101 186.811C36.4811 187.059 36.0759 187.176 35.7168 187.176Z" fill="#E0E0E0"/>
<path d="M34.2389 81.2909V98.6532L162.042 24.8668V7.49774L34.2389 81.2909Z" fill="#FF643D"/>
<path d="M44.2616 82.2168V84.7067C44.2616 85.2162 44.6232 85.423 45.0642 85.1696L84.3562 62.4838V58.1436L45.0628 80.8294C44.8301 80.982 44.6365 81.1869 44.4973 81.4279C44.3582 81.6688 44.2775 81.939 44.2616 82.2168Z" fill="#FAFAFA"/>
<path d="M88.569 55.7126C89.0114 55.4578 89.3702 55.6646 89.3702 56.1755V58.6654C89.355 58.9433 89.2745 59.2138 89.1354 59.4548C88.9962 59.6958 88.8021 59.9007 88.569 60.0528L84.3575 62.4838V58.1436L88.569 55.7126Z" fill="#455A64"/>
<path d="M34.2389 75.6935C34.2891 74.7667 34.5571 73.8648 35.0211 73.0609C35.4851 72.2571 36.1321 71.574 36.9096 71.067L159.368 0.364947C160.843 -0.486934 162.039 0.203336 162.039 1.9071V7.50322L34.2389 81.2964V75.6935Z" fill="#455A64"/>
<path d="M147.836 9.92876C147.472 10.1667 147.168 10.4873 146.951 10.8645C146.733 11.2416 146.608 11.6648 146.584 12.0995C146.584 12.898 147.145 13.2226 147.836 12.8227C148.201 12.5848 148.505 12.2643 148.722 11.8871C148.94 11.5099 149.066 11.0868 149.089 10.6519C149.091 9.85343 148.529 9.53021 147.836 9.92876Z" fill="#FF643D"/>
<path d="M151.807 7.63333C151.442 7.87113 151.138 8.19164 150.921 8.56883C150.703 8.94601 150.577 9.36923 150.554 9.80412C150.554 10.6026 151.114 10.9272 151.807 10.5273C152.172 10.2895 152.475 9.96894 152.693 9.59176C152.911 9.21458 153.036 8.79136 153.06 8.35647C153.06 7.558 152.498 7.23478 151.807 7.63333Z" fill="#FF643D"/>
<path d="M155.776 5.33927C155.411 5.577 155.107 5.89749 154.889 6.27469C154.672 6.65189 154.546 7.07515 154.523 7.51006C154.523 8.30853 155.083 8.63312 155.776 8.2332C156.141 7.9954 156.444 7.67489 156.662 7.29771C156.88 6.92052 157.005 6.4973 157.029 6.06242C157.029 5.26395 156.467 4.94073 155.776 5.33927Z" fill="#FF643D"/>
<g opacity="0.1">
<path d="M121.946 36.1727C121.148 36.6925 120.485 37.3929 120.009 38.2173C119.533 39.0416 119.258 39.9665 119.207 40.917C119.207 42.6646 120.439 43.3726 121.946 42.4988C122.743 41.9791 123.407 41.2786 123.883 40.4543C124.359 39.63 124.634 38.7051 124.685 37.7546C124.684 36.007 123.458 35.2935 121.946 36.1727Z" fill="black"/>
<path d="M109.415 43.4069C108.618 43.9266 107.954 44.6271 107.478 45.4514C107.003 46.2757 106.728 47.2007 106.676 48.1511C106.676 49.8987 107.909 50.6068 109.415 49.733C110.213 49.2132 110.876 48.5128 111.352 47.6884C111.828 46.8641 112.103 45.9392 112.155 44.9887C112.155 43.2412 110.929 42.5331 109.415 43.4069Z" fill="black"/>
<path d="M134.475 28.9372C133.677 29.457 133.014 30.1575 132.538 30.9818C132.062 31.8061 131.787 32.731 131.736 33.6815C131.736 35.429 132.968 36.1371 134.475 35.2633C135.272 34.7435 135.936 34.043 136.412 33.2187C136.887 32.3944 137.162 31.4695 137.214 30.5191C137.214 28.7729 135.987 28.0648 134.475 28.9372Z" fill="black"/>
<path d="M147.005 21.6894C146.208 22.2092 145.544 22.9097 145.068 23.734C144.592 24.5583 144.318 25.4832 144.266 26.4336C144.266 28.1812 145.499 28.8893 147.005 28.0155C147.803 27.4957 148.466 26.7953 148.942 25.9709C149.418 25.1466 149.693 24.2217 149.744 23.2713C149.743 21.525 148.517 20.817 147.005 21.6894Z" fill="black"/>
</g>
<path d="M46.9323 100.005L76.6769 82.8345C78.1519 81.9826 79.3489 82.6729 79.3489 84.3766V112.931C79.2986 113.858 79.0304 114.76 78.5661 115.564C78.1019 116.368 77.4546 117.051 76.6769 117.558L46.9336 134.729C45.4586 135.581 44.2629 134.891 44.2629 133.187V104.627C44.3137 103.701 44.5818 102.8 45.0456 101.997C45.5093 101.194 46.1557 100.512 46.9323 100.005Z" fill="#E0E0E0"/>
<path d="M89.5359 75.4086L151.852 39.4296C153.327 38.5777 154.523 39.268 154.523 40.9718V69.5262C154.472 70.453 154.204 71.3549 153.74 72.1587C153.276 72.9625 152.629 73.6456 151.852 74.1527L89.5359 110.132C88.0609 110.984 86.8652 110.293 86.8652 108.59V80.0364C86.9152 79.1094 87.1831 78.2072 87.6471 77.4031C88.1112 76.599 88.7583 75.9157 89.5359 75.4086Z" fill="#E0E0E0"/>
<path d="M46.9336 143.408L94.2158 116.11C95.6908 115.258 96.8865 115.863 96.8865 117.462C96.8211 118.359 96.5452 119.228 96.0812 119.999C95.6172 120.77 94.9781 121.42 94.2158 121.898L46.9336 149.196C45.4586 150.048 44.2629 149.443 44.2629 147.845C44.3285 146.947 44.6044 146.078 45.0684 145.307C45.5324 144.537 46.1714 143.886 46.9336 143.408Z" fill="#E0E0E0"/>
<path d="M46.9336 153.535L94.2158 126.238C95.6908 125.386 96.8865 125.991 96.8865 127.588C96.8211 128.486 96.5452 129.355 96.0812 130.126C95.6172 130.896 94.9781 131.547 94.2158 132.024L46.9336 159.323C45.4586 160.175 44.2629 159.57 44.2629 157.973C44.3282 157.075 44.6041 156.206 45.0681 155.435C45.5321 154.664 46.1712 154.013 46.9336 153.535Z" fill="#E0E0E0"/>
<path d="M46.9336 163.662L94.2158 136.363C95.6908 135.511 96.8865 136.117 96.8865 137.714C96.8212 138.611 96.5453 139.48 96.0813 140.251C95.6173 141.022 94.9782 141.672 94.2158 142.15L46.9336 169.455C45.4586 170.307 44.2629 169.702 44.2629 168.105C44.3272 167.206 44.6025 166.336 45.0666 165.564C45.5306 164.792 46.1703 164.14 46.9336 163.662Z" fill="#E0E0E0"/>
<path d="M69.3221 129.325C69.3522 128.769 69.5129 128.227 69.7913 127.745C70.0697 127.263 70.458 126.853 70.9246 126.549L152.919 79.2158C153.415 78.9639 153.964 78.8326 154.521 78.8326C155.078 78.8326 155.627 78.9639 156.124 79.2158L157.93 80.2595C158.397 80.5636 158.785 80.9735 159.063 81.4559C159.342 81.9382 159.503 82.4795 159.533 83.0356V145.886C159.501 146.442 159.34 146.982 159.061 147.464C158.783 147.947 158.396 148.357 157.93 148.662L75.9359 196.002C75.4388 196.252 74.89 196.383 74.3334 196.383C73.7769 196.383 73.2281 196.252 72.731 196.002L70.9246 194.958C70.459 194.653 70.0716 194.243 69.7933 193.76C69.515 193.278 69.3537 192.738 69.3221 192.182V129.325Z" fill="#3D36A4"/>
<path opacity="0.4" d="M69.7893 127.746L74.3391 130.369L159.063 81.4484C158.793 80.9603 158.404 80.5481 157.933 80.2501L156.121 79.2105C155.626 78.9563 155.078 78.8237 154.521 78.8237C153.965 78.8237 153.417 78.9563 152.922 79.2105L70.9274 126.547C70.4515 126.843 70.0595 127.255 69.7893 127.746Z" fill="white"/>
<path opacity="0.1" d="M69.3195 129.322V192.171C69.3495 192.728 69.5109 193.27 69.7903 193.752C70.0698 194.235 70.4594 194.644 70.9274 194.947L72.7325 195.994C72.8725 196.073 73.0197 196.139 73.1721 196.191C73.3866 196.263 73.6078 196.314 73.8323 196.343C74.2538 196.396 74.6811 196.381 75.0977 196.298C75.2032 196.276 75.31 196.244 75.4086 196.214C75.4738 196.194 75.5374 196.168 75.599 196.139C75.4773 196.19 75.3464 196.214 75.2146 196.212C75.0828 196.209 74.953 196.179 74.8334 196.124C74.6617 196.011 74.5247 195.852 74.4377 195.666C74.3506 195.48 74.3169 195.273 74.3404 195.069V132.219C74.3231 131.933 74.3938 131.648 74.5429 131.403C74.6919 131.159 74.9123 130.965 75.1744 130.849L74.3404 130.365L69.7906 127.742C69.5018 128.22 69.3396 128.764 69.3195 129.322Z" fill="black"/>
<path opacity="0.2" d="M74.3389 130.369L112.311 144.555C113.624 145.046 115.065 145.074 116.397 144.636C117.728 144.197 118.871 143.318 119.635 142.143L125.733 132.801L159.365 81.2731L126.947 133.153L159.531 145.905C159.503 146.472 159.331 147.023 159.031 147.505L126.858 133.298L119.772 144.638C118.985 145.897 117.771 146.83 116.352 147.266C114.933 147.702 113.404 147.612 112.046 147.012L107.001 144.785L74.832 196.122C74.6603 196.009 74.5233 195.851 74.4362 195.665C74.3492 195.479 74.3155 195.272 74.3389 195.068V194.021L106.843 144.716L74.3389 130.369Z" fill="black"/>
<path d="M141.994 58.2148V202.513C141.994 204.217 143.189 204.907 144.664 204.055L209.49 166.63C210.267 166.123 210.914 165.44 211.378 164.636C211.842 163.832 212.11 162.93 212.16 162.003V17.7039C212.16 16.0001 210.965 15.3099 209.49 16.1617L144.662 53.5884C143.885 54.0957 143.238 54.779 142.775 55.5828C142.311 56.3866 142.044 57.2883 141.994 58.2148Z" fill="#FAFAFA" stroke="#E0E0E0" stroke-width="1.17" stroke-miterlimit="10"/>
<path d="M145.751 60.9033C145.77 60.6746 145.843 60.4537 145.964 60.2584C146.084 60.0631 146.249 59.8988 146.445 59.7789L153.83 55.5167C154.213 55.2949 154.524 55.44 154.524 55.8386C154.505 56.0673 154.432 56.2883 154.311 56.4836C154.19 56.6789 154.026 56.8432 153.83 56.963L146.445 61.2252C146.062 61.447 145.751 61.3032 145.751 60.9033Z" fill="#455A64"/>
<path d="M145.751 63.7767C145.77 63.548 145.843 63.3271 145.964 63.1318C146.084 62.9365 146.249 62.7722 146.445 62.6523L153.83 58.3901C154.213 58.1683 154.524 58.3134 154.524 58.712C154.505 58.9407 154.432 59.1617 154.311 59.357C154.19 59.5523 154.026 59.7166 153.83 59.8364L146.445 64.0986C146.062 64.3204 145.751 64.1766 145.751 63.7767Z" fill="#3D36A4"/>
<path d="M145.751 66.6501C145.77 66.4214 145.843 66.2005 145.964 66.0052C146.084 65.8099 146.249 65.6456 146.445 65.5257L153.83 61.2635C154.213 61.0416 154.524 61.1868 154.524 61.5854C154.505 61.8141 154.432 62.0351 154.311 62.2304C154.19 62.4257 154.026 62.5899 153.83 62.7098L146.445 66.9719C146.062 67.1938 145.751 67.05 145.751 66.6501Z" fill="#455A64"/>
<path d="M207.149 29.6494V28.4976C207.151 28.4834 207.15 28.4688 207.144 28.4556C207.138 28.4424 207.128 28.4312 207.116 28.4234C207.104 28.4155 207.09 28.4113 207.076 28.4114C207.061 28.4114 207.047 28.4157 207.035 28.4236L206.146 28.8235C206.132 28.8303 206.117 28.8339 206.101 28.834C206.086 28.8341 206.07 28.8308 206.056 28.8243C206.042 28.8177 206.03 28.8081 206.02 28.7961C206.01 28.7842 206.002 28.7701 205.998 28.7551C205.951 28.6004 205.884 28.4522 205.8 28.3141C205.782 28.2815 205.771 28.2452 205.769 28.208C205.767 28.1707 205.773 28.1334 205.788 28.099L206.379 26.9047C206.393 26.8744 206.396 26.84 206.386 26.8079C206.377 26.7759 206.356 26.7485 206.327 26.7308L205.685 26.3597C205.655 26.3438 205.621 26.3392 205.589 26.3468C205.556 26.3543 205.528 26.3735 205.508 26.4007L204.77 27.5101C204.747 27.5398 204.718 27.5639 204.685 27.5805C204.651 27.5972 204.614 27.6059 204.577 27.606C204.415 27.6029 204.254 27.6195 204.096 27.6553C204.081 27.6601 204.065 27.6614 204.049 27.659C204.033 27.6566 204.018 27.6506 204.005 27.6415C203.991 27.6324 203.98 27.6204 203.973 27.6064C203.965 27.5924 203.96 27.5768 203.959 27.5608L203.862 26.5911C203.863 26.5768 203.859 26.5625 203.852 26.5501C203.845 26.5376 203.835 26.5275 203.822 26.521C203.809 26.5145 203.795 26.5118 203.78 26.5133C203.766 26.5148 203.753 26.5204 203.741 26.5295L202.744 27.1061C202.713 27.1271 202.686 27.1546 202.665 27.1867C202.645 27.2187 202.631 27.2547 202.625 27.2923L202.525 28.4031C202.513 28.4813 202.477 28.5538 202.421 28.6099C202.226 28.7928 202.043 28.9886 201.873 29.1961C201.849 29.223 201.818 29.2426 201.784 29.2525C201.749 29.2625 201.712 29.2624 201.677 29.2522L201.036 29.029C201.003 29.0183 200.967 29.0191 200.935 29.0313C200.902 29.0435 200.874 29.0663 200.856 29.0961L200.122 30.3671C200.105 30.3976 200.099 30.4327 200.105 30.467C200.111 30.5012 200.128 30.5325 200.153 30.5561L200.667 30.9984C200.693 31.0233 200.711 31.055 200.72 31.0899C200.729 31.1248 200.727 31.1615 200.716 31.1957C200.622 31.4482 200.545 31.7067 200.486 31.9695C200.465 32.0457 200.42 32.1133 200.359 32.1626L199.446 32.8035C199.417 32.8274 199.393 32.8571 199.375 32.8908C199.358 32.9245 199.347 32.9615 199.345 32.9994V34.1512C199.343 34.1654 199.345 34.18 199.35 34.1932C199.356 34.2064 199.366 34.2176 199.378 34.2254C199.39 34.2333 199.404 34.2375 199.418 34.2374C199.433 34.2374 199.447 34.2331 199.459 34.2252L200.348 33.8253C200.362 33.8185 200.377 33.8149 200.393 33.8148C200.408 33.8147 200.424 33.818 200.438 33.8245C200.452 33.8311 200.464 33.8407 200.474 33.8526C200.484 33.8646 200.492 33.8786 200.496 33.8937C200.543 34.0484 200.61 34.1966 200.694 34.3347C200.712 34.3673 200.723 34.4036 200.725 34.4408C200.727 34.4781 200.721 34.5154 200.706 34.5498L200.115 35.7441C200.101 35.7744 200.098 35.8088 200.108 35.8409C200.117 35.8729 200.138 35.9003 200.167 35.918L200.809 36.2891C200.839 36.305 200.873 36.3096 200.905 36.302C200.938 36.2945 200.966 36.2753 200.986 36.2481L201.724 35.1387C201.747 35.1091 201.776 35.085 201.809 35.0684C201.843 35.0518 201.88 35.043 201.917 35.0428C202.079 35.0459 202.24 35.0293 202.398 34.9935C202.413 34.9887 202.429 34.9874 202.445 34.9898C202.461 34.9922 202.476 34.9982 202.489 35.0073C202.503 35.0164 202.514 35.0284 202.521 35.0424C202.529 35.0564 202.534 35.072 202.535 35.088L202.632 36.0577C202.631 36.072 202.635 36.0863 202.642 36.0987C202.649 36.1112 202.659 36.1213 202.672 36.1278C202.685 36.1343 202.699 36.137 202.714 36.1355C202.728 36.134 202.741 36.1284 202.753 36.1193L203.75 35.5427C203.781 35.5217 203.808 35.4942 203.829 35.4621C203.849 35.4301 203.863 35.3941 203.869 35.3565L203.969 34.2457C203.981 34.1675 204.017 34.095 204.073 34.0389C204.268 33.8558 204.451 33.66 204.621 33.4527C204.645 33.4258 204.676 33.4062 204.71 33.3963C204.745 33.3863 204.782 33.3864 204.817 33.3966L205.458 33.6198C205.491 33.6305 205.527 33.6297 205.559 33.6175C205.592 33.6053 205.62 33.5825 205.638 33.5527L206.372 32.2831C206.389 32.2526 206.395 32.2174 206.389 32.1832C206.383 32.149 206.366 32.1176 206.341 32.0941L205.827 31.6517C205.801 31.6269 205.783 31.5952 205.774 31.5603C205.765 31.5253 205.767 31.4887 205.778 31.4545C205.872 31.202 205.949 30.9435 206.008 30.6807C206.029 30.6044 206.074 30.5368 206.135 30.4876L207.048 29.8466C207.077 29.8226 207.102 29.7927 207.119 29.7587C207.137 29.7248 207.147 29.6875 207.149 29.6494ZM203.246 33.2692C202.314 33.8061 201.56 33.3706 201.56 32.2954C201.591 31.7105 201.761 31.1412 202.054 30.6339C202.346 30.1265 202.755 29.6954 203.246 29.3755C204.177 28.8386 204.932 29.2741 204.932 30.3493C204.9 30.9342 204.731 31.5035 204.438 32.0108C204.145 32.5181 203.736 32.9493 203.246 33.2692Z" fill="#3D36A4"/>
<path d="M177.072 58.0888C184.645 53.7157 190.787 57.2671 190.787 66.0064C190.787 74.7457 184.647 85.3874 177.072 89.7605C169.496 94.1335 163.358 90.5822 163.358 81.8429C163.358 73.1036 169.503 62.4619 177.072 58.0888Z" fill="#3D36A4"/>
<path d="M176.978 64.9724C179.435 63.5535 181.428 64.6984 181.428 67.5403C181.344 69.0842 180.898 70.5866 180.125 71.9256C179.351 73.2646 178.274 74.4025 176.978 75.247C174.521 76.6659 172.529 75.5209 172.529 72.6776C172.612 71.1339 173.059 69.6317 173.832 68.2929C174.605 66.9541 175.683 65.8165 176.978 64.9724Z" fill="#FF643D"/>
<path d="M185.749 80.1021C185.749 75.4456 182.476 73.5501 178.44 75.8825L175.916 77.3383C173.788 78.7258 172.018 80.5951 170.748 82.7948C169.478 84.9945 168.744 87.4626 168.606 89.9988V91.2697C169.367 91.5162 170.163 91.6392 170.963 91.6341C173.13 91.5563 175.239 90.9102 177.077 89.7605C180.584 87.5996 183.55 84.6656 185.749 81.1828V80.1021Z" fill="#FF643D"/>
<path d="M164.699 102.774L189.457 88.4799C190.195 88.054 190.792 88.3566 190.792 89.1565C190.759 89.6049 190.621 90.0394 190.389 90.4246C190.157 90.8099 189.838 91.135 189.457 91.3738L164.699 105.668C163.961 106.094 163.363 105.791 163.363 104.992C163.396 104.543 163.534 104.109 163.766 103.723C163.998 103.338 164.318 103.013 164.699 102.774Z" fill="#FF643D"/>
<path d="M162.042 112.998L192.114 95.6182C192.85 95.1922 193.449 95.4949 193.449 96.2934C193.416 96.7418 193.278 97.1762 193.046 97.5614C192.814 97.9466 192.495 98.2718 192.114 98.5107L162.042 115.891C161.303 116.317 160.706 116.014 160.706 115.216C160.739 114.767 160.877 114.333 161.109 113.947C161.341 113.562 161.661 113.237 162.042 112.998Z" fill="#455A64"/>
<path d="M192.915 109.628L201.335 104.766C201.777 104.511 202.136 104.629 202.136 105.027C202.104 105.273 202.014 105.509 201.875 105.715C201.736 105.92 201.551 106.091 201.335 106.213L192.915 111.075C192.472 111.33 192.114 111.212 192.114 110.814C192.146 110.568 192.236 110.332 192.375 110.127C192.514 109.921 192.699 109.75 192.915 109.628Z" fill="#37474F"/>
<path d="M150.848 131.026L163.213 123.888C163.951 123.462 164.548 123.807 164.548 124.659V133.15C164.523 133.614 164.389 134.065 164.157 134.467C163.925 134.869 163.601 135.21 163.213 135.464L150.848 142.602C150.111 143.028 149.513 142.683 149.513 141.831V133.339C149.538 132.876 149.672 132.425 149.904 132.023C150.136 131.621 150.459 131.28 150.848 131.026Z" fill="#FF643D"/>
<path d="M152.82 132.209L161.24 127.347C161.683 127.093 162.042 127.21 162.042 127.609C162.009 127.855 161.919 128.09 161.78 128.296C161.641 128.502 161.456 128.673 161.24 128.795L152.82 133.657C152.378 133.912 152.019 133.794 152.019 133.395C152.052 133.149 152.141 132.914 152.28 132.708C152.419 132.502 152.604 132.332 152.82 132.209Z" fill="#FF643D"/>
<path d="M152.016 136.493V138.983C152.016 139.494 152.375 139.701 152.817 139.446L161.238 134.584C161.471 134.432 161.665 134.227 161.804 133.986C161.943 133.745 162.024 133.475 162.039 133.197V130.703C162.039 130.192 161.68 129.985 161.238 130.24L152.817 135.102C152.584 135.254 152.389 135.46 152.25 135.702C152.111 135.943 152.031 136.215 152.016 136.493Z" fill="#FF643D"/>
<path d="M170.895 119.453L183.259 112.315C183.998 111.889 184.595 112.234 184.595 113.086V121.577C184.57 122.041 184.435 122.492 184.203 122.893C183.971 123.295 183.648 123.637 183.259 123.89L170.895 131.03C170.156 131.456 169.559 131.111 169.559 130.259V121.768C169.584 121.304 169.718 120.853 169.95 120.451C170.182 120.048 170.506 119.707 170.895 119.453Z" fill="#FF643D"/>
<path d="M172.867 120.639L181.287 115.777C181.73 115.521 182.088 115.64 182.088 116.037C182.056 116.284 181.966 116.519 181.827 116.725C181.688 116.93 181.503 117.101 181.287 117.223L172.867 122.085C172.425 122.34 172.066 122.222 172.066 121.825C172.098 121.579 172.188 121.344 172.327 121.138C172.466 120.932 172.651 120.761 172.867 120.639Z" fill="#FF643D"/>
<path d="M172.068 124.92V127.41C172.068 127.921 172.427 128.128 172.87 127.873L181.29 123.011C181.523 122.859 181.717 122.654 181.856 122.413C181.995 122.172 182.076 121.902 182.091 121.624V119.134C182.091 118.623 181.732 118.416 181.29 118.671L172.87 123.533C172.637 123.685 172.443 123.89 172.303 124.131C172.164 124.372 172.084 124.642 172.068 124.92Z" fill="#FF643D"/>
<path d="M190.941 107.876L203.306 100.738C204.043 100.312 204.641 100.657 204.641 101.509V110C204.616 110.464 204.482 110.914 204.25 111.316C204.018 111.718 203.695 112.06 203.306 112.313L190.941 119.452C190.203 119.878 189.605 119.532 189.605 118.681V110.189C189.63 109.726 189.764 109.275 189.996 108.873C190.229 108.471 190.552 108.129 190.941 107.876Z" fill="#FF643D"/>
<path d="M192.914 109.062L201.334 104.2C201.776 103.945 202.135 104.063 202.135 104.462C202.102 104.708 202.013 104.943 201.874 105.149C201.735 105.355 201.55 105.525 201.334 105.648L192.914 110.51C192.471 110.764 192.112 110.647 192.112 110.248C192.145 110.002 192.235 109.767 192.374 109.561C192.513 109.355 192.697 109.184 192.914 109.062Z" fill="#FF643D"/>
<path d="M192.112 113.338V115.828C192.112 116.339 192.471 116.547 192.914 116.291L201.334 111.429C201.567 111.277 201.761 111.072 201.9 110.831C202.04 110.59 202.12 110.319 202.135 110.041V107.551C202.135 107.04 201.776 106.834 201.334 107.088L192.914 111.95C192.681 112.103 192.486 112.307 192.347 112.548C192.208 112.789 192.128 113.06 192.112 113.338Z" fill="#FF643D"/>
<path d="M152.182 150.51L201.971 121.765C203.446 120.913 204.641 121.518 204.641 123.115C204.576 124.012 204.3 124.882 203.836 125.652C203.372 126.423 202.733 127.074 201.971 127.551L152.182 156.296C150.707 157.148 149.511 156.543 149.511 154.946C149.577 154.049 149.853 153.179 150.317 152.409C150.781 151.638 151.42 150.987 152.182 150.51Z" fill="#E0E0E0"/>
<path d="M152.182 162.084L201.971 133.339C203.446 132.487 204.641 133.093 204.641 134.69C204.576 135.587 204.3 136.456 203.836 137.227C203.372 137.997 202.733 138.648 201.971 139.126L152.182 167.871C150.707 168.722 149.511 168.117 149.511 166.52C149.577 165.623 149.853 164.754 150.317 163.983C150.781 163.213 151.42 162.562 152.182 162.084Z" fill="#E0E0E0"/>
<path d="M168.39 167.195L185.766 157.163C186.504 156.737 187.101 157.082 187.101 157.934V163.53C187.076 163.994 186.941 164.445 186.709 164.847C186.477 165.249 186.153 165.59 185.764 165.844L168.39 175.877C167.651 176.303 167.054 175.958 167.054 175.106V169.509C167.079 169.045 167.213 168.594 167.445 168.192C167.677 167.79 168.001 167.449 168.39 167.195Z" fill="#3D36A4"/>
<path d="M153.271 151.359C152.906 151.597 152.602 151.917 152.385 152.294C152.167 152.672 152.041 153.095 152.018 153.53C152.018 154.328 152.579 154.653 153.271 154.253C153.636 154.015 153.939 153.694 154.157 153.317C154.375 152.94 154.501 152.517 154.524 152.082C154.524 151.284 153.963 150.96 153.271 151.359Z" fill="#FAFAFA"/>
<path d="M157.24 149.063C156.875 149.302 156.572 149.622 156.355 149.999C156.137 150.376 156.012 150.8 155.988 151.234C155.988 152.033 156.548 152.357 157.24 151.957C157.605 151.72 157.908 151.399 158.126 151.022C158.344 150.645 158.47 150.221 158.493 149.787C158.493 148.988 157.933 148.664 157.24 149.063Z" fill="#FAFAFA"/>
<path d="M161.21 146.772C160.845 147.01 160.542 147.33 160.324 147.708C160.106 148.085 159.981 148.508 159.957 148.943C159.957 149.743 160.517 150.066 161.21 149.666C161.575 149.428 161.879 149.108 162.097 148.731C162.314 148.353 162.44 147.93 162.463 147.495C162.463 146.694 161.902 146.369 161.21 146.772Z" fill="#FAFAFA"/>
<path d="M165.179 144.474C164.815 144.712 164.511 145.032 164.293 145.409C164.075 145.787 163.95 146.21 163.926 146.645C163.926 147.445 164.486 147.768 165.179 147.368C165.544 147.13 165.848 146.81 166.066 146.432C166.284 146.055 166.409 145.632 166.433 145.197C166.433 144.399 165.871 144.074 165.179 144.474Z" fill="#FAFAFA"/>
<path d="M169.148 142.179C168.784 142.416 168.48 142.737 168.262 143.114C168.045 143.491 167.919 143.914 167.895 144.349C167.895 145.149 168.457 145.472 169.148 145.072C169.513 144.835 169.817 144.514 170.035 144.137C170.252 143.76 170.378 143.337 170.402 142.902C170.402 142.1 169.84 141.78 169.148 142.179Z" fill="#FAFAFA"/>
<path d="M173.119 139.883C172.754 140.121 172.45 140.441 172.233 140.819C172.015 141.196 171.889 141.619 171.866 142.054C171.866 142.852 172.426 143.177 173.119 142.777C173.483 142.539 173.787 142.218 174.004 141.841C174.222 141.464 174.347 141.041 174.371 140.606C174.368 139.808 173.81 139.485 173.119 139.883Z" fill="#FAFAFA"/>
<path d="M177.088 137.589C176.723 137.827 176.419 138.147 176.201 138.525C175.984 138.902 175.858 139.325 175.835 139.76C175.835 140.558 176.395 140.883 177.088 140.483C177.453 140.245 177.756 139.925 177.974 139.547C178.192 139.17 178.317 138.747 178.341 138.312C178.341 137.514 177.779 137.191 177.088 137.589Z" fill="#FAFAFA"/>
<path d="M153.271 162.947C152.906 163.185 152.602 163.505 152.385 163.883C152.167 164.26 152.041 164.683 152.018 165.118C152.018 165.916 152.579 166.241 153.271 165.841C153.636 165.603 153.939 165.283 154.157 164.905C154.375 164.528 154.501 164.105 154.524 163.67C154.524 162.872 153.963 162.548 153.271 162.947Z" fill="#FAFAFA"/>
<path d="M157.24 160.651C156.875 160.889 156.572 161.21 156.355 161.587C156.137 161.964 156.011 162.388 155.988 162.822C155.988 163.621 156.548 163.945 157.24 163.545C157.605 163.308 157.908 162.987 158.126 162.61C158.344 162.233 158.47 161.81 158.493 161.375C158.493 160.576 157.933 160.253 157.24 160.651Z" fill="#FAFAFA"/>
<path d="M161.21 158.357C160.845 158.595 160.542 158.916 160.324 159.293C160.106 159.67 159.981 160.093 159.957 160.528C159.957 161.327 160.517 161.651 161.21 161.251C161.575 161.013 161.879 160.693 162.096 160.316C162.314 159.939 162.44 159.515 162.463 159.081C162.463 158.282 161.902 157.959 161.21 158.357Z" fill="#FAFAFA"/>
<path d="M165.179 156.062C164.815 156.3 164.511 156.62 164.293 156.998C164.075 157.375 163.95 157.798 163.926 158.233C163.926 159.033 164.486 159.356 165.179 158.956C165.544 158.718 165.848 158.398 166.066 158.021C166.284 157.643 166.409 157.22 166.433 156.785C166.433 155.98 165.871 155.662 165.179 156.062Z" fill="#FAFAFA"/>
<path d="M169.148 153.768C168.784 154.006 168.48 154.327 168.262 154.704C168.045 155.081 167.919 155.504 167.895 155.939C167.895 156.739 168.457 157.062 169.148 156.662C169.513 156.424 169.817 156.104 170.035 155.727C170.253 155.349 170.378 154.926 170.402 154.491C170.402 153.693 169.84 153.368 169.148 153.768Z" fill="#FAFAFA"/>
<path d="M173.119 151.471C172.754 151.709 172.45 152.03 172.233 152.407C172.015 152.784 171.889 153.207 171.866 153.642C171.866 154.442 172.426 154.765 173.119 154.365C173.483 154.127 173.787 153.807 174.004 153.429C174.222 153.052 174.347 152.629 174.371 152.194C174.368 151.397 173.81 151.073 173.119 151.471Z" fill="#FAFAFA"/>
<path d="M177.088 149.179C176.723 149.416 176.419 149.737 176.202 150.114C175.984 150.491 175.858 150.914 175.835 151.349C175.835 152.149 176.395 152.472 177.088 152.072C177.453 151.835 177.756 151.514 177.974 151.137C178.192 150.76 178.317 150.337 178.341 149.902C178.341 149.102 177.779 148.779 177.088 149.179Z" fill="#FAFAFA"/>
<path d="M232.762 175.258C230.63 175.271 228.533 174.717 226.686 173.652C222.24 171.085 219.69 165.708 219.69 158.913C219.69 146.956 227.29 133.201 236.992 127.601C242.216 124.588 247.401 124.258 251.602 126.68C256.047 129.247 258.597 134.624 258.597 141.418C258.597 153.376 250.998 167.131 241.295 172.731C238.722 174.308 235.779 175.18 232.762 175.258ZM245.507 133.688C244.012 133.793 242.567 134.263 241.297 135.058C234.25 139.126 228.298 150.052 228.298 158.918C228.298 162.506 229.305 165.229 230.989 166.202C232.907 167.31 235.575 166.101 236.992 165.283C244.037 161.216 249.991 150.289 249.991 141.424C249.991 137.836 248.984 135.113 247.298 134.139C246.752 133.833 246.134 133.677 245.508 133.688H245.507Z" fill="#FF643D"/>
<path d="M251.532 143.333C251.532 136.622 247.3 134.134 247.3 134.134C248.986 135.107 249.992 137.831 249.992 141.418C249.992 150.284 244.04 161.21 236.994 165.278C235.575 166.1 232.91 167.305 230.991 166.198C230.991 166.198 234.563 168.414 239.494 165.723C246.637 161.827 251.532 152.198 251.532 143.333Z" fill="#FF643D"/>
<path d="M244.743 59.3803C244.743 58.1998 244.274 57.0677 243.439 56.2329C242.604 55.3982 241.472 54.9292 240.291 54.9292C239.111 54.9292 237.979 55.3982 237.144 56.2329C236.309 57.0677 235.84 58.1998 235.84 59.3803V59.3927V130.156C235.876 130.548 236.016 130.923 236.245 131.242C236.475 131.562 236.785 131.814 237.144 131.974C238.119 132.469 239.197 132.727 240.291 132.727C241.384 132.727 242.462 132.469 243.437 131.974C243.797 131.814 244.107 131.561 244.336 131.242C244.565 130.923 244.705 130.548 244.741 130.156V59.3927L244.743 59.3803Z" fill="#FF643D"/>
<path d="M241.19 75.1936C241.142 74.3018 240.884 73.4339 240.437 72.6605C239.99 71.8871 239.368 71.23 238.619 70.7424C238.357 70.5502 238.047 70.4334 237.723 70.405C237.399 70.3765 237.073 70.4373 236.781 70.5808L225.799 76.9042L225.533 77.0617C225.495 77.0789 225.459 77.1 225.426 77.1247C225.237 77.2506 225.061 77.3946 224.9 77.5547C224.28 78.171 223.903 78.99 223.837 79.8617C223.772 80.7335 224.022 81.5997 224.543 82.3018C225.064 83.0039 225.82 83.4949 226.674 83.685C227.527 83.8752 228.42 83.7517 229.19 83.3371C229.26 83.2988 229.327 83.2549 229.398 83.2166L240.448 76.8521C240.707 76.6656 240.912 76.414 241.042 76.1227C241.172 75.8315 241.223 75.5109 241.19 75.1936Z" fill="#FF643D"/>
<path d="M241.195 92.9146C241.147 92.0228 240.889 91.155 240.442 90.3816C239.996 89.6082 239.373 88.951 238.625 88.4635C238.362 88.2712 238.052 88.1545 237.728 88.126C237.404 88.0975 237.079 88.1583 236.787 88.3018L223.913 95.6976L223.647 95.8551C223.609 95.8723 223.573 95.8934 223.54 95.9181C223.352 96.0438 223.176 96.1879 223.016 96.3481C222.396 96.9645 222.02 97.7832 221.954 98.6544C221.889 99.5257 222.14 100.391 222.66 101.093C223.18 101.795 223.936 102.286 224.789 102.476C225.641 102.667 226.534 102.544 227.304 102.131C227.374 102.092 227.441 102.048 227.512 102.01L240.45 94.5814C240.711 94.3946 240.918 94.1418 241.049 93.8489C241.18 93.556 241.23 93.2335 241.195 92.9146Z" fill="#FF643D"/>
</svg>
