<svg width="344" height="208" viewBox="0 0 344 208" fill="none" xmlns="http://www.w3.org/2000/svg">
<path d="M234.041 118.252L236.99 117.742C237.268 117.692 237.555 117.632 237.836 117.581C233.167 114.683 229.623 110.283 227.786 105.104C225.949 99.9251 225.928 94.2753 227.726 89.0828C229.525 83.8904 233.036 79.464 237.683 76.5311C242.33 73.5981 247.836 72.333 253.297 72.9435L249.431 82.1434L258.591 74.1445C258.612 74.1497 258.633 74.1566 258.653 74.1653C261.653 75.2217 264.415 76.8587 266.782 78.9827C269.148 81.1066 271.074 83.676 272.448 86.5441C273.822 89.4121 274.617 92.5227 274.789 95.6982C274.961 98.8738 274.505 102.052 273.449 105.052C273.296 105.488 273.113 105.904 272.938 106.326C275.523 105.102 277.912 103.502 280.027 101.578C284.123 97.6531 286.368 92.2377 288.875 85.5646C293.844 72.343 298.627 58.9288 303.218 45.4868C298.153 42.7459 294.232 38.2889 292.158 32.9164C290.084 27.5438 289.993 21.6078 291.902 16.1745C292.148 15.4811 292.433 14.803 292.734 14.1415C292.811 13.9765 292.886 13.8114 292.965 13.6492C293.271 13.0154 293.596 12.4011 293.952 11.7978C294.01 11.7008 294.075 11.6092 294.135 11.5122C294.445 11.0092 294.772 10.5215 295.116 10.0491C295.243 9.87161 295.371 9.69411 295.502 9.52076C295.892 9.01182 296.294 8.51674 296.72 8.04385C296.859 7.88575 297.013 7.73737 297.158 7.58344C297.485 7.23859 297.82 6.90437 298.165 6.58079C298.347 6.41021 298.526 6.23827 298.713 6.07463C298.76 6.03303 298.806 5.98586 298.851 5.94426V5.95397C303.117 2.2373 308.55 0.132746 314.207 0.00607076C319.863 -0.120604 325.385 1.73861 329.813 5.26058L324.781 17.2326L333.837 9.32799C337.006 13.3659 338.802 18.3108 338.963 23.4415C339.124 28.5721 337.641 33.6199 334.731 37.8484L334.756 37.8567C334.658 37.9954 334.546 38.1341 334.443 38.2728C334.252 38.5409 334.056 38.8039 333.856 39.0618C333.598 39.3933 333.332 39.7136 333.059 40.0326C332.852 40.2711 332.65 40.511 332.436 40.7412C332.123 41.0768 331.794 41.3944 331.466 41.712C331.273 41.8964 331.088 42.0892 330.889 42.2667C330.368 42.7289 329.83 43.1699 329.273 43.5897C329.078 43.7353 328.872 43.867 328.673 44.0057C328.282 44.283 327.889 44.5521 327.483 44.8017C327.23 44.957 326.972 45.0999 326.716 45.2455C326.344 45.4576 325.97 45.6615 325.587 45.8543C325.31 45.9929 325.042 46.1191 324.766 46.2453C324.374 46.4242 323.976 46.5906 323.574 46.7487C323.304 46.8541 323.035 46.9623 322.762 47.058C322.312 47.2175 321.854 47.3548 321.393 47.4865C321.16 47.5531 320.933 47.6252 320.7 47.689C320.007 47.8651 319.313 48.0149 318.605 48.13C318.466 48.1522 318.337 48.1605 318.203 48.1799C317.617 48.2645 317.028 48.3338 316.434 48.3754C316.179 48.3934 315.923 48.3962 315.666 48.4059C315.186 48.424 314.706 48.4337 314.224 48.424C313.947 48.424 313.661 48.4031 313.379 48.3879C312.91 48.3611 312.439 48.32 311.968 48.2645C311.69 48.2326 311.413 48.2007 311.136 48.1577C310.631 48.0814 310.127 47.9816 309.623 47.872L309.523 47.8526C307.581 53.5236 305.607 59.183 303.6 64.8309C306.051 62.6271 308.927 60.9473 312.051 59.8948C315.175 58.8422 318.481 58.439 321.766 58.7099C325.052 58.9808 328.247 59.92 331.156 61.47C334.066 63.02 336.628 65.1481 338.685 67.7237L330.313 76.9832L341.649 72.4582C344.403 78.2314 344.752 84.862 342.619 90.8926C341.88 93.0114 340.845 95.0149 339.544 96.8432C336.743 100.805 332.817 103.834 328.274 105.536C323.731 107.239 318.781 107.538 314.066 106.393C309.352 105.248 305.09 102.713 301.833 99.1167C298.577 95.5202 296.477 91.0281 295.805 86.2233C295.591 86.7919 295.389 87.3687 295.172 87.9373C292.953 93.8242 290.206 101.149 284.677 106.445C280.911 109.78 276.583 112.419 271.894 114.239C269.013 115.493 266.094 116.651 263.136 117.716C259.849 119.709 256.134 120.893 252.299 121.17C247.632 122.467 242.908 123.548 238.137 124.383L235.164 124.896C232.491 125.354 229.755 125.825 227.03 126.369C227.421 126.486 227.814 126.596 228.204 126.734C233.05 128.439 237.228 131.642 240.135 135.878C243.042 140.114 244.527 145.165 244.375 150.301L225.731 156.024L242.601 158.703C241.058 162.496 238.578 165.836 235.394 168.411C232.21 170.985 228.426 172.711 224.394 173.427C220.362 174.142 216.215 173.824 212.339 172.502C208.463 171.18 204.986 168.897 202.232 165.867C202.403 166.441 202.575 167.014 202.748 167.585C203.09 168.723 203.43 169.853 203.756 170.972C208.194 186.226 206.284 198.225 198.375 204.758L194.101 199.559C201.799 193.2 199.411 180.097 197.303 172.851C196.983 171.751 196.649 170.642 196.312 169.523C193.421 159.916 190.144 149.029 194.388 139.025C200.78 123.946 219.22 120.789 234.041 118.252Z" fill="#F2F2F2"/>
<path d="M228.572 206.711H97.9382C93.6547 206.71 89.5471 205.007 86.5189 201.977C83.4907 198.948 81.7899 194.84 81.7906 190.556V130.711C81.7906 129.842 81.9676 128.982 82.311 128.183C82.6543 127.385 83.1567 126.665 83.7876 126.067L153.008 60.4516C155.776 57.8283 159.444 56.3661 163.257 56.3661C167.071 56.3661 170.739 57.8283 173.506 60.4516L239.504 123.013C241.153 124.576 242.466 126.458 243.363 128.545C244.26 130.632 244.723 132.88 244.723 135.152V190.556C244.723 192.677 244.306 194.778 243.494 196.738C242.683 198.697 241.493 200.478 239.993 201.978C238.494 203.479 236.713 204.669 234.754 205.48C232.794 206.292 230.694 206.71 228.572 206.711Z" fill="#3D36A4"/>
<path opacity="0.1" d="M81.7906 131.694H243.367V196.959C243.367 199.545 242.339 202.026 240.51 203.855C238.681 205.684 236.2 206.712 233.613 206.712H91.5438C88.9571 206.712 86.4764 205.684 84.6473 203.855C82.8182 202.026 81.7906 199.545 81.7906 196.959V131.694Z" fill="black"/>
<path d="M145.621 80.267H180.552C186.149 80.2668 191.691 81.369 196.861 83.5105C202.032 85.6521 206.73 88.7911 210.687 92.7484C214.645 96.7056 217.784 101.404 219.925 106.574C222.067 111.744 223.169 117.286 223.169 122.883V157.814C223.169 163.41 222.067 168.952 219.926 174.122C217.784 179.293 214.645 183.991 210.688 187.948C206.73 191.905 202.033 195.044 196.862 197.186C191.692 199.327 186.15 200.43 180.554 200.43H145.621C134.319 200.43 123.479 195.94 115.487 187.948C107.495 179.956 103.005 169.116 103.005 157.814V122.883C103.005 111.58 107.495 100.741 115.487 92.7488C123.479 84.7569 134.319 80.267 145.621 80.267Z" fill="#FA7A00"/>
<path opacity="0.1" d="M223.164 134.391V200.43H103V134.391L163.082 163.431L223.164 134.391Z" fill="black"/>
<path d="M163.087 167.165L86.1034 129.957C85.6272 129.726 85.1005 129.621 84.5724 129.65C84.0444 129.679 83.5324 129.842 83.0844 130.123C82.6365 130.404 82.2672 130.794 82.0113 131.257C81.7554 131.72 81.6212 132.24 81.6213 132.769V196.788C81.6213 199.375 82.6489 201.856 84.478 203.685C86.307 205.514 88.7878 206.541 91.3745 206.541H234.802C237.388 206.541 239.869 205.514 241.698 203.685C243.527 201.856 244.555 199.375 244.555 196.788V133.865C244.555 133.219 244.392 132.584 244.079 132.019C243.767 131.454 243.316 130.978 242.769 130.634C242.222 130.291 241.597 130.093 240.953 130.058C240.308 130.022 239.665 130.151 239.084 130.432L163.087 167.165Z" fill="#3D36A4"/>
<path d="M146.963 91.3003H113.359V96.0528H146.963V91.3003Z" fill="#F2F2F2"/>
<path d="M210.44 108.611H110.644V111.327H210.44V108.611Z" fill="#F2F2F2"/>
<path d="M210.44 117.777H110.644V120.492H210.44V117.777Z" fill="#F2F2F2"/>
<path d="M210.44 126.942H110.644V129.657H210.44V126.942Z" fill="#F2F2F2"/>
<path d="M20.6907 206.541H300.393" stroke="#3F3D56" stroke-miterlimit="10"/>
<path d="M0 164.742C0 184.756 12.5559 200.951 28.0725 200.951L0 164.742Z" fill="#46455B"/>
<path d="M28.0726 200.951C28.0726 180.713 42.079 164.34 59.3998 164.34L28.0726 200.951Z" fill="#F58726"/>
<path d="M10.1706 166.556C10.1706 185.568 18.1765 200.948 28.0711 200.948L10.1706 166.556Z" fill="#FA7A00"/>
<path d="M28.0726 200.951C28.0726 175.091 44.2674 154.166 64.2813 154.166L28.0726 200.951Z" fill="#46455B"/>
<path d="M22.1662 201.206C22.1662 201.206 26.1476 201.084 27.3472 200.236C28.5468 199.387 33.4712 198.361 33.7694 199.731C34.0675 201.101 39.7519 206.545 35.2574 206.581C30.7628 206.617 24.8136 205.888 23.6168 205.152C22.42 204.415 22.1662 201.206 22.1662 201.206Z" fill="#A8A8A8"/>
<path opacity="0.2" d="M35.3377 206.099C30.8432 206.135 24.8939 205.406 23.6971 204.669C22.7846 204.114 22.4213 202.12 22.3007 201.202H22.162C22.162 201.202 22.4144 204.413 23.6112 205.142C24.808 205.872 30.7572 206.608 35.2517 206.572C36.5498 206.561 36.9977 206.099 36.9727 205.417C36.798 205.833 36.3029 206.091 35.3377 206.099Z" fill="black"/>
<path d="M107.929 96.1027C115.615 96.1027 121.846 89.8603 121.846 82.16C121.846 74.4597 115.615 68.2174 107.929 68.2174C100.242 68.2174 94.0109 74.4597 94.0109 82.16C94.0109 89.8603 100.242 96.1027 107.929 96.1027Z" fill="white"/>
<path d="M107.929 65.8418C104.639 65.8418 101.423 66.8173 98.6877 68.6449C95.9524 70.4726 93.8205 73.0703 92.5616 76.1096C91.3027 79.1489 90.9733 82.4932 91.6151 85.7197C92.2569 88.9462 93.841 91.9099 96.1672 94.2361C98.4934 96.5622 101.457 98.1464 104.684 98.7882C107.91 99.4299 111.254 99.1006 114.294 97.8416C117.333 96.5827 119.931 94.4508 121.758 91.7155C123.586 88.9803 124.561 85.7644 124.561 82.4748C124.561 80.2905 124.131 78.1276 123.295 76.1096C122.46 74.0916 121.234 72.258 119.69 70.7135C118.145 69.1689 116.312 67.9438 114.294 67.1079C112.276 66.272 110.113 65.8418 107.929 65.8418ZM104.514 91.3432L95.9897 82.8187L98.3805 80.4279L104.521 86.5685L117.483 73.6063L119.874 75.9971L104.514 91.3432Z" fill="#57B894"/>
</svg>
