<svg width="334" height="192" viewBox="0 0 334 192" fill="none" xmlns="http://www.w3.org/2000/svg">
    <path d="M313.096 192H20.1598C9.00072 192 0 182.953 0 171.84V20.1598C0 9.00072 9.04664 0 20.1598 0H313.096C324.255 0 333.256 9.04664 333.256 20.1598V171.794C333.256 182.953 324.21 192 313.096 192Z" fill="#3D36A4"/>
    <path d="M327.791 25.0273H5.46469V56.438H327.791V25.0273Z" fill="#F1F1FA"/>
    <path d="M118.01 19.5927C117.609 19.5927 117.3 19.4757 117.082 19.2415C116.865 19.0074 116.756 18.673 116.756 18.2383V15.6882H115.929V15.0612H116.138C116.327 15.0612 116.478 14.9998 116.589 14.8772C116.701 14.749 116.756 14.5902 116.756 14.4006V14.0244H117.383V15.0612H118.37V15.6882H117.383V18.2383C117.383 18.3887 117.406 18.5225 117.45 18.6396C117.495 18.751 117.57 18.8402 117.676 18.9071C117.787 18.974 117.935 19.0074 118.119 19.0074C118.164 19.0074 118.217 19.0047 118.278 18.9991C118.339 18.9935 118.392 18.9879 118.437 18.9824V19.5425C118.37 19.5593 118.295 19.5704 118.211 19.576C118.127 19.5871 118.061 19.5927 118.01 19.5927Z" fill="white"/>
    <path d="M113.193 19.6427C112.775 19.6427 112.396 19.5424 112.056 19.3417C111.721 19.1355 111.456 18.854 111.261 18.4973C111.066 18.1406 110.969 17.7365 110.969 17.285C110.969 16.8335 111.063 16.435 111.253 16.0894C111.442 15.7382 111.699 15.4623 112.022 15.2617C112.351 15.061 112.719 14.9607 113.126 14.9607C113.449 14.9607 113.736 15.022 113.987 15.1446C114.243 15.2617 114.461 15.4233 114.639 15.6296C114.817 15.8302 114.954 16.0587 115.049 16.3151C115.144 16.566 115.191 16.8252 115.191 17.0927C115.191 17.1484 115.188 17.2125 115.183 17.285C115.177 17.3519 115.169 17.4216 115.157 17.494H111.37V16.9088H114.798L114.497 17.1596C114.547 16.853 114.511 16.5799 114.388 16.3402C114.271 16.095 114.101 15.9027 113.878 15.7633C113.655 15.6184 113.404 15.5459 113.126 15.5459C112.847 15.5459 112.588 15.6184 112.348 15.7633C112.114 15.9082 111.93 16.1117 111.796 16.3737C111.663 16.6301 111.61 16.9366 111.638 17.2934C111.61 17.6501 111.665 17.9622 111.805 18.2298C111.95 18.4917 112.145 18.6952 112.39 18.8401C112.641 18.985 112.908 19.0575 113.193 19.0575C113.522 19.0575 113.797 18.9794 114.02 18.8234C114.243 18.6673 114.424 18.4722 114.564 18.2381L115.099 18.5224C115.01 18.7231 114.873 18.9098 114.689 19.0826C114.505 19.2498 114.285 19.3863 114.029 19.4922C113.778 19.5926 113.499 19.6427 113.193 19.6427Z" fill="white"/>
    <path d="M109.242 19.5425V13.2134H109.869V19.5425H109.242Z" fill="white"/>
    <path d="M107.331 19.5425V13.2134H107.959V19.5425H107.331Z" fill="white"/>
    <path d="M103.843 19.6427C103.559 19.6427 103.305 19.5898 103.082 19.4839C102.859 19.3724 102.683 19.2219 102.555 19.0324C102.427 18.8429 102.363 18.6255 102.363 18.3803C102.363 18.1462 102.413 17.9343 102.513 17.7448C102.614 17.5498 102.77 17.3853 102.982 17.2516C103.193 17.1178 103.464 17.023 103.793 16.9673L105.548 16.6747V17.2432L103.943 17.5107C103.62 17.5665 103.386 17.6696 103.241 17.8201C103.101 17.9706 103.032 18.1489 103.032 18.3552C103.032 18.5558 103.11 18.7258 103.266 18.8652C103.428 19.0045 103.634 19.0742 103.885 19.0742C104.191 19.0742 104.459 19.0101 104.687 18.8819C104.916 18.7481 105.094 18.5698 105.222 18.3468C105.351 18.1239 105.415 17.8758 105.415 17.6027V16.4656C105.415 16.1981 105.317 15.9807 105.122 15.8135C104.927 15.6463 104.673 15.5627 104.361 15.5627C104.088 15.5627 103.848 15.6323 103.642 15.7717C103.436 15.9055 103.283 16.081 103.182 16.2984L102.614 15.9891C102.697 15.7996 102.828 15.6268 103.007 15.4707C103.191 15.3146 103.4 15.192 103.634 15.1028C103.868 15.0081 104.11 14.9607 104.361 14.9607C104.69 14.9607 104.98 15.0248 105.231 15.153C105.487 15.2812 105.685 15.4596 105.824 15.6881C105.969 15.911 106.042 16.1702 106.042 16.4656V19.5424H105.415V18.6478L105.507 18.7398C105.429 18.907 105.306 19.0603 105.139 19.1996C104.977 19.3334 104.785 19.4421 104.562 19.5257C104.344 19.6037 104.105 19.6427 103.843 19.6427Z" fill="white"/>
    <path d="M95.8888 19.5428L94.0996 13.314H94.7769L96.3236 18.8906H96.1815L97.77 13.314H98.4807L100.061 18.8906H99.9104L101.465 13.314H102.143L100.354 19.5428H99.6428L98.0459 13.941H98.1964L96.5995 19.5428H95.8888Z" fill="white"/>
    <path d="M88.438 19.5424V15.061H89.0651V15.9305L88.9229 15.8971C89.0344 15.6073 89.2156 15.3787 89.4664 15.2115C89.7228 15.0443 90.0182 14.9607 90.3526 14.9607C90.6703 14.9607 90.9546 15.0332 91.2054 15.1781C91.4618 15.323 91.6625 15.5237 91.8074 15.7801C91.9579 16.0309 92.0332 16.3151 92.0332 16.6329V19.5424H91.4061V16.8753C91.4061 16.6022 91.3559 16.3709 91.2556 16.1814C91.1609 15.9919 91.0243 15.8469 90.8459 15.7466C90.6731 15.6407 90.4725 15.5878 90.244 15.5878C90.0154 15.5878 89.812 15.6407 89.6336 15.7466C89.4553 15.8469 89.3159 15.9946 89.2156 16.1897C89.1152 16.3792 89.0651 16.6078 89.0651 16.8753V19.5424H88.438Z" fill="white"/>
    <path d="M85.058 19.6427C84.6343 19.6427 84.2497 19.5424 83.9042 19.3417C83.5586 19.1355 83.2827 18.8568 83.0764 18.5057C82.8758 18.1489 82.7755 17.7448 82.7755 17.2934C82.7755 16.8474 82.8758 16.4489 83.0764 16.0978C83.2771 15.7466 83.5474 15.4707 83.8874 15.27C84.233 15.0638 84.6232 14.9607 85.058 14.9607C85.4927 14.9607 85.8801 15.061 86.2201 15.2617C86.5657 15.4623 86.836 15.7382 87.0311 16.0894C87.2318 16.4406 87.3321 16.8419 87.3321 17.2934C87.3321 17.7504 87.229 18.1573 87.0227 18.514C86.8165 18.8652 86.5406 19.1411 86.195 19.3417C85.855 19.5424 85.476 19.6427 85.058 19.6427ZM85.058 19.0157C85.3589 19.0157 85.6293 18.9404 85.8689 18.7899C86.1142 18.6394 86.3065 18.4332 86.4458 18.1712C86.5908 17.9093 86.6632 17.6166 86.6632 17.2934C86.6632 16.9701 86.5908 16.6802 86.4458 16.4238C86.3065 16.1674 86.1142 15.964 85.8689 15.8135C85.6293 15.663 85.3589 15.5878 85.058 15.5878C84.757 15.5878 84.4838 15.663 84.2386 15.8135C83.9989 15.964 83.8066 16.1674 83.6617 16.4238C83.5168 16.6802 83.4443 16.9701 83.4443 17.2934C83.4443 17.6166 83.5168 17.9093 83.6617 18.1712C83.8066 18.4332 83.9989 18.6394 84.2386 18.7899C84.4838 18.9404 84.757 19.0157 85.058 19.0157Z" fill="white"/>
    <path d="M81.0488 19.5428V15.0614H81.6759V19.5428H81.0488ZM81.0488 14.2337V13.314H81.6759V14.2337H81.0488Z" fill="white"/>
    <path d="M79.5214 19.5927C79.1201 19.5927 78.8107 19.4757 78.5933 19.2415C78.3759 19.0074 78.2673 18.673 78.2673 18.2383V15.6882H77.4395V15.0612H77.6486C77.8381 15.0612 77.9886 14.9998 78.1 14.8772C78.2115 14.749 78.2673 14.5902 78.2673 14.4006V14.0244H78.8943V15.0612H79.8809V15.6882H78.8943V18.2383C78.8943 18.3887 78.9166 18.5225 78.9612 18.6396C79.0058 18.751 79.081 18.8402 79.1869 18.9071C79.2984 18.974 79.4461 19.0074 79.6301 19.0074C79.6747 19.0074 79.7276 19.0047 79.7889 18.9991C79.8502 18.9935 79.9032 18.9879 79.9478 18.9824V19.5425C79.8809 19.5593 79.8056 19.5704 79.722 19.576C79.6384 19.5871 79.5715 19.5927 79.5214 19.5927Z" fill="white"/>
    <path d="M74.4004 19.6427C74.1161 19.6427 73.8625 19.5898 73.6395 19.4839C73.4166 19.3724 73.241 19.2219 73.1128 19.0324C72.9846 18.8429 72.9205 18.6255 72.9205 18.3803C72.9205 18.1462 72.9707 17.9343 73.071 17.7448C73.1713 17.5498 73.3274 17.3853 73.5392 17.2516C73.751 17.1178 74.0213 17.023 74.3502 16.9673L76.106 16.6747V17.2432L74.5007 17.5107C74.1774 17.5665 73.9433 17.6696 73.7984 17.8201C73.659 17.9706 73.5894 18.1489 73.5894 18.3552C73.5894 18.5558 73.6674 18.7258 73.8235 18.8652C73.9851 19.0045 74.1913 19.0742 74.4422 19.0742C74.7487 19.0742 75.0163 19.0101 75.2448 18.8819C75.4733 18.7481 75.6517 18.5698 75.7799 18.3468C75.9081 18.1239 75.9722 17.8758 75.9722 17.6027V16.4656C75.9722 16.1981 75.8746 15.9807 75.6796 15.8135C75.4845 15.6463 75.2309 15.5627 74.9187 15.5627C74.6456 15.5627 74.4059 15.6323 74.1997 15.7717C73.9935 15.9055 73.8402 16.081 73.7399 16.2984L73.1713 15.9891C73.2549 15.7996 73.3859 15.6268 73.5643 15.4707C73.7482 15.3146 73.9572 15.192 74.1913 15.1028C74.4254 15.0081 74.6679 14.9607 74.9187 14.9607C75.2476 14.9607 75.5374 15.0248 75.7883 15.153C76.0447 15.2812 76.2425 15.4596 76.3819 15.6881C76.5268 15.911 76.5993 16.1702 76.5993 16.4656V19.5424H75.9722V18.6478L76.0642 18.7398C75.9861 18.907 75.8635 19.0603 75.6963 19.1996C75.5346 19.3334 75.3423 19.4421 75.1194 19.5257C74.902 19.6037 74.6623 19.6427 74.4004 19.6427Z" fill="white"/>
    <path d="M70.2213 19.6427C69.781 19.6427 69.3936 19.5396 69.0592 19.3334C68.7247 19.1272 68.4628 18.8485 68.2732 18.4973C68.0837 18.1406 67.989 17.7393 67.989 17.2934C67.989 16.8474 68.0837 16.4489 68.2732 16.0978C68.4628 15.7466 68.7247 15.4707 69.0592 15.27C69.3936 15.0638 69.781 14.9607 70.2213 14.9607C70.5 14.9607 70.762 15.0109 71.0072 15.1112C71.2525 15.2115 71.4699 15.3481 71.6594 15.5209C71.8489 15.6881 71.991 15.8832 72.0858 16.1061L71.5172 16.3987C71.4058 16.1591 71.2358 15.964 71.0072 15.8135C70.7787 15.663 70.5167 15.5878 70.2213 15.5878C69.9259 15.5878 69.6584 15.663 69.4187 15.8135C69.1846 15.9584 68.9979 16.1619 68.8585 16.4238C68.7247 16.6802 68.6578 16.9729 68.6578 17.3017C68.6578 17.625 68.7247 17.9176 68.8585 18.1796C68.9979 18.436 69.1846 18.6394 69.4187 18.7899C69.6584 18.9404 69.9259 19.0157 70.2213 19.0157C70.5167 19.0157 70.7759 18.9404 70.9989 18.7899C71.2274 18.6394 71.4002 18.4388 71.5172 18.188L72.0858 18.4973C71.991 18.7147 71.8489 18.9098 71.6594 19.0826C71.4699 19.2554 71.2525 19.3919 71.0072 19.4922C70.762 19.5926 70.5 19.6427 70.2213 19.6427Z" fill="white"/>
    <path d="M66.2623 19.5428V15.0614H66.8894V19.5428H66.2623ZM66.2623 14.2337V13.314H66.8894V14.2337H66.2623Z" fill="white"/>
    <path d="M64.3517 19.5425V13.2134H64.9788V19.5425H64.3517Z" fill="white"/>
    <path d="M47.5519 19.5428L49.826 13.314H50.5451L52.8192 19.5428H52.1169L51.5818 18.0211H48.7977L48.2542 19.5428H47.5519ZM49.015 17.394H51.3477L50.0852 13.8156H50.2859L49.015 17.394Z" fill="white"/>
    <path d="M44.7725 19.5425V13.2134H45.3995V19.5425H44.7725Z" fill="white"/>
    <path d="M41.6687 19.6427C41.2507 19.6427 40.8716 19.5424 40.5316 19.3417C40.1972 19.1355 39.9324 18.854 39.7374 18.4973C39.5423 18.1406 39.4447 17.7365 39.4447 17.285C39.4447 16.8335 39.5395 16.435 39.729 16.0894C39.9185 15.7382 40.1749 15.4623 40.4982 15.2617C40.8271 15.061 41.1949 14.9607 41.6018 14.9607C41.9251 14.9607 42.2122 15.022 42.463 15.1446C42.7194 15.2617 42.9368 15.4233 43.1151 15.6296C43.2935 15.8302 43.43 16.0587 43.5248 16.3151C43.6196 16.566 43.6669 16.8252 43.6669 17.0927C43.6669 17.1484 43.6641 17.2125 43.6586 17.285C43.653 17.3519 43.6446 17.4216 43.6335 17.494H39.846V16.9088H43.274L42.973 17.1596C43.0232 16.853 42.9869 16.5799 42.8643 16.3402C42.7472 16.095 42.5772 15.9027 42.3543 15.7633C42.1313 15.6184 41.8805 15.5459 41.6018 15.5459C41.3231 15.5459 41.0639 15.6184 40.8243 15.7633C40.5902 15.9082 40.4062 16.1117 40.2725 16.3737C40.1387 16.6301 40.0857 16.9366 40.1136 17.2934C40.0857 17.6501 40.1415 17.9622 40.2808 18.2298C40.4257 18.4917 40.6208 18.6952 40.8661 18.8401C41.1169 18.985 41.3844 19.0575 41.6687 19.0575C41.9976 19.0575 42.2735 18.9794 42.4964 18.8234C42.7194 18.6673 42.9005 18.4722 43.0399 18.2381L43.575 18.5224C43.4858 18.7231 43.3492 18.9098 43.1653 19.0826C42.9813 19.2498 42.7612 19.3863 42.5048 19.4922C42.254 19.5926 41.9753 19.6427 41.6687 19.6427Z" fill="white"/>
    <path d="M38.2645 19.5927C37.8631 19.5927 37.5538 19.4757 37.3364 19.2415C37.119 19.0074 37.0103 18.673 37.0103 18.2383V15.6882H36.1826V15.0612H36.3916C36.5811 15.0612 36.7316 14.9998 36.8431 14.8772C36.9546 14.749 37.0103 14.5902 37.0103 14.4006V14.0244H37.6374V15.0612H38.624V15.6882H37.6374V18.2383C37.6374 18.3887 37.6597 18.5225 37.7043 18.6396C37.7489 18.751 37.8241 18.8402 37.93 18.9071C38.0415 18.974 38.1892 19.0074 38.3731 19.0074C38.4177 19.0074 38.4707 19.0047 38.532 18.9991C38.5933 18.9935 38.6463 18.9879 38.6909 18.9824V19.5425C38.624 19.5593 38.5487 19.5704 38.4651 19.576C38.3815 19.5871 38.3146 19.5927 38.2645 19.5927Z" fill="white"/>
    <path d="M33.2521 19.6427C32.8285 19.6427 32.4439 19.5424 32.0983 19.3417C31.7528 19.1355 31.4769 18.8568 31.2706 18.5057C31.07 18.1489 30.9696 17.7448 30.9696 17.2934C30.9696 16.8474 31.07 16.4489 31.2706 16.0978C31.4713 15.7466 31.7416 15.4707 32.0816 15.27C32.4272 15.0638 32.8174 14.9607 33.2521 14.9607C33.6869 14.9607 34.0743 15.061 34.4143 15.2617C34.7599 15.4623 35.0302 15.7382 35.2253 16.0894C35.4259 16.4406 35.5263 16.8419 35.5263 17.2934C35.5263 17.7504 35.4231 18.1573 35.2169 18.514C35.0107 18.8652 34.7348 19.1411 34.3892 19.3417C34.0492 19.5424 33.6702 19.6427 33.2521 19.6427ZM33.2521 19.0157C33.5531 19.0157 33.8235 18.9404 34.0631 18.7899C34.3084 18.6394 34.5007 18.4332 34.64 18.1712C34.7849 17.9093 34.8574 17.6166 34.8574 17.2934C34.8574 16.9701 34.7849 16.6802 34.64 16.4238C34.5007 16.1674 34.3084 15.964 34.0631 15.8135C33.8235 15.663 33.5531 15.5878 33.2521 15.5878C32.9511 15.5878 32.678 15.663 32.4328 15.8135C32.1931 15.964 32.0008 16.1674 31.8559 16.4238C31.711 16.6802 31.6385 16.9701 31.6385 17.2934C31.6385 17.6166 31.711 17.9093 31.8559 18.1712C32.0008 18.4332 32.1931 18.6394 32.4328 18.7899C32.678 18.9404 32.9511 19.0157 33.2521 19.0157Z" fill="white"/>
    <path d="M25.0892 19.5428V13.314H25.7581V16.1148H29.1024V13.314H29.7712V19.5428H29.1024V16.7419H25.7581V19.5428H25.0892Z" fill="white"/>
    <path d="M19.186 21.382C19.0969 21.382 19.0049 21.3737 18.9101 21.357C18.821 21.3458 18.7318 21.3235 18.6426 21.2901V20.7048C18.6983 20.7104 18.768 20.7187 18.8516 20.7299C18.9408 20.7466 19.03 20.755 19.1192 20.755C19.3923 20.755 19.6013 20.6965 19.7462 20.5794C19.8911 20.4679 20.0333 20.2505 20.1726 19.9273L20.4569 19.2584L20.4402 19.8102L18.5423 15.0613H19.2195L20.7746 18.9825H20.599L22.1458 15.0613H22.8397L20.7913 20.1112C20.7021 20.3286 20.5879 20.5348 20.4485 20.7299C20.3148 20.925 20.1448 21.0811 19.9385 21.1981C19.7323 21.3207 19.4815 21.382 19.186 21.382Z" fill="white"/>
    <path d="M12.1969 19.5428V13.314H12.7822L15.1232 16.7084H14.7971L17.1298 13.314H17.7151V19.5428H17.0462V14.2169L17.2636 14.3005L14.9727 17.6198H14.9393L12.6568 14.3005L12.8658 14.2169V19.5428H12.1969Z" fill="white"/>
    <path d="M227.636 95.9771H14.5114V123.989H227.636V95.9771Z" fill="white"/>
    <path d="M226.984 130.497H227.327L228.101 132.549C228.336 133.18 228.486 133.605 228.548 133.825H228.569C228.663 133.535 228.817 133.104 229.03 132.529L229.804 130.497H230.147L228.508 134.747C228.376 135.092 228.265 135.326 228.175 135.447C228.085 135.568 227.98 135.659 227.859 135.719C227.74 135.78 227.595 135.81 227.425 135.81C227.297 135.81 227.154 135.787 226.997 135.739V135.45C227.127 135.486 227.268 135.504 227.418 135.504C227.532 135.504 227.633 135.477 227.721 135.423C227.808 135.369 227.887 135.285 227.956 135.171C228.028 135.059 228.11 134.879 228.202 134.632C228.296 134.388 228.357 134.229 228.384 134.155L226.984 130.497Z" fill="white"/>
    <path d="M226.082 134.154V131.782C226.082 131.414 226.005 131.147 225.85 130.981C225.695 130.813 225.455 130.729 225.13 130.729C224.692 130.729 224.371 130.84 224.167 131.062C223.965 131.282 223.864 131.64 223.864 132.135V134.154H223.531V130.497H223.814L223.878 130.998H223.898C224.136 130.617 224.559 130.426 225.167 130.426C225.997 130.426 226.412 130.871 226.412 131.762V134.154H226.082Z" fill="white"/>
    <path d="M222.518 132.32C222.518 132.917 222.374 133.384 222.084 133.72C221.795 134.055 221.396 134.222 220.886 134.222C220.566 134.222 220.283 134.144 220.039 133.99C219.794 133.835 219.607 133.613 219.477 133.323C219.346 133.034 219.281 132.7 219.281 132.32C219.281 131.724 219.426 131.259 219.715 130.927C220.005 130.593 220.402 130.426 220.907 130.426C221.409 130.426 221.803 130.595 222.088 130.934C222.375 131.271 222.518 131.733 222.518 132.32ZM219.631 132.32C219.631 132.823 219.741 133.216 219.961 133.498C220.183 133.779 220.496 133.919 220.9 133.919C221.304 133.919 221.616 133.779 221.835 133.498C222.057 133.216 222.169 132.823 222.169 132.32C222.169 131.816 222.056 131.424 221.832 131.146C221.61 130.868 221.297 130.729 220.893 130.729C220.489 130.729 220.178 130.868 219.958 131.146C219.74 131.422 219.631 131.814 219.631 132.32Z" fill="white"/>
    <path d="M215.792 134.154L213.958 129.612H213.931C213.949 129.89 213.958 130.175 213.958 130.466V134.154H213.628V129.235H214.16L215.903 133.562H215.923L217.666 129.235H218.184V134.154H217.838V130.426C217.838 130.166 217.851 129.897 217.878 129.618H217.851L216.011 134.154H215.792Z" fill="white"/>
    <path d="M210.24 134.154V131.782C210.24 131.414 210.162 131.147 210.008 130.981C209.853 130.813 209.613 130.729 209.288 130.729C208.85 130.729 208.529 130.84 208.325 131.062C208.123 131.282 208.022 131.64 208.022 132.135V134.154H207.689V130.497H207.972L208.036 130.998H208.056C208.294 130.617 208.717 130.426 209.325 130.426C210.155 130.426 210.57 130.871 210.57 131.762V134.154H210.24Z" fill="white"/>
    <path d="M206.676 132.32C206.676 132.917 206.532 133.384 206.242 133.72C205.953 134.055 205.554 134.222 205.044 134.222C204.724 134.222 204.441 134.144 204.196 133.99C203.952 133.835 203.765 133.613 203.634 133.323C203.504 133.034 203.439 132.7 203.439 132.32C203.439 131.724 203.584 131.259 203.873 130.927C204.163 130.593 204.56 130.426 205.065 130.426C205.567 130.426 205.961 130.595 206.246 130.934C206.533 131.271 206.676 131.733 206.676 132.32ZM203.789 132.32C203.789 132.823 203.899 133.216 204.119 133.498C204.341 133.779 204.654 133.919 205.058 133.919C205.462 133.919 205.773 133.779 205.993 133.498C206.215 133.216 206.326 132.823 206.326 132.32C206.326 131.816 206.214 131.424 205.99 131.146C205.768 130.868 205.455 130.729 205.051 130.729C204.647 130.729 204.335 130.868 204.116 131.146C203.898 131.422 203.789 131.814 203.789 132.32Z" fill="white"/>
    <path d="M202.423 134.155H202.09V130.497H202.423V134.155ZM202.043 129.481C202.043 129.265 202.113 129.158 202.255 129.158C202.324 129.158 202.378 129.186 202.416 129.242C202.457 129.298 202.477 129.378 202.477 129.481C202.477 129.582 202.457 129.661 202.416 129.72C202.378 129.778 202.324 129.807 202.255 129.807C202.113 129.807 202.043 129.698 202.043 129.481Z" fill="white"/>
    <path d="M200.747 133.926C200.958 133.926 201.142 133.908 201.299 133.872V134.141C201.138 134.195 200.951 134.222 200.741 134.222C200.418 134.222 200.179 134.135 200.024 133.963C199.871 133.79 199.795 133.519 199.795 133.148V130.786H199.253V130.591L199.795 130.44L199.963 129.612H200.135V130.497H201.208V130.786H200.135V133.101C200.135 133.382 200.184 133.589 200.283 133.724C200.382 133.858 200.536 133.926 200.747 133.926Z" fill="white"/>
    <path d="M198.348 134.154L198.264 133.576H198.237C198.053 133.811 197.864 133.978 197.668 134.077C197.475 134.174 197.247 134.222 196.982 134.222C196.623 134.222 196.344 134.13 196.144 133.946C195.944 133.762 195.845 133.507 195.845 133.182C195.845 132.825 195.993 132.548 196.289 132.351C196.587 132.153 197.018 132.049 197.581 132.038L198.277 132.018V131.775C198.277 131.428 198.207 131.165 198.065 130.988C197.924 130.811 197.696 130.722 197.382 130.722C197.044 130.722 196.693 130.816 196.329 131.005L196.205 130.716C196.606 130.527 197.003 130.433 197.396 130.433C197.797 130.433 198.097 130.537 198.294 130.746C198.494 130.954 198.594 131.28 198.594 131.722V134.154H198.348ZM197.002 133.919C197.392 133.919 197.7 133.808 197.924 133.586C198.151 133.361 198.264 133.051 198.264 132.654V132.294L197.625 132.321C197.111 132.345 196.744 132.426 196.524 132.563C196.307 132.697 196.198 132.908 196.198 133.195C196.198 133.424 196.267 133.603 196.406 133.731C196.548 133.856 196.746 133.919 197.002 133.919Z" fill="white"/>
    <path d="M194.31 134.222C193.787 134.222 193.378 134.057 193.082 133.727C192.786 133.397 192.638 132.937 192.638 132.347C192.638 131.742 192.791 131.271 193.099 130.934C193.406 130.595 193.827 130.426 194.361 130.426C194.677 130.426 194.98 130.481 195.269 130.591L195.178 130.887C194.862 130.782 194.587 130.729 194.354 130.729C193.905 130.729 193.565 130.868 193.334 131.146C193.103 131.422 192.988 131.82 192.988 132.341C192.988 132.834 193.103 133.221 193.334 133.502C193.565 133.78 193.888 133.919 194.303 133.919C194.635 133.919 194.944 133.859 195.229 133.74V134.05C194.995 134.164 194.689 134.222 194.31 134.222Z" fill="white"/>
    <path d="M191.622 134.155H191.288V130.497H191.622V134.155ZM191.241 129.481C191.241 129.265 191.312 129.158 191.453 129.158C191.523 129.158 191.577 129.186 191.615 129.242C191.655 129.298 191.675 129.378 191.675 129.481C191.675 129.582 191.655 129.661 191.615 129.72C191.577 129.778 191.523 129.807 191.453 129.807C191.312 129.807 191.241 129.698 191.241 129.481Z" fill="white"/>
    <path d="M190.06 134.155H189.727V128.919H190.06V134.155Z" fill="white"/>
    <path d="M187.187 134.222C186.623 134.222 186.213 134.011 185.955 133.589H185.931L185.941 133.872C185.95 134.038 185.955 134.219 185.955 134.417V135.81H185.622V130.497H185.904L185.968 131.018H185.989C186.24 130.623 186.641 130.426 187.193 130.426C187.687 130.426 188.063 130.589 188.321 130.914C188.581 131.237 188.711 131.708 188.711 132.327C188.711 132.928 188.574 133.395 188.3 133.727C188.029 134.057 187.658 134.222 187.187 134.222ZM187.18 133.926C187.554 133.926 187.844 133.786 188.048 133.508C188.254 133.23 188.358 132.841 188.358 132.341C188.358 131.266 187.969 130.729 187.193 130.729C186.767 130.729 186.454 130.847 186.254 131.082C186.055 131.315 185.955 131.697 185.955 132.226V132.334C185.955 132.906 186.05 133.314 186.241 133.559C186.434 133.803 186.747 133.926 187.18 133.926Z" fill="white"/>
    <path d="M183.081 134.222C182.518 134.222 182.108 134.011 181.85 133.589H181.826L181.836 133.872C181.845 134.038 181.85 134.219 181.85 134.417V135.81H181.517V130.497H181.799L181.863 131.018H181.883C182.135 130.623 182.536 130.426 183.088 130.426C183.582 130.426 183.957 130.589 184.215 130.914C184.475 131.237 184.606 131.708 184.606 132.327C184.606 132.928 184.469 133.395 184.195 133.727C183.924 134.057 183.552 134.222 183.081 134.222ZM183.075 133.926C183.449 133.926 183.739 133.786 183.943 133.508C184.149 133.23 184.252 132.841 184.252 132.341C184.252 131.266 183.864 130.729 183.088 130.729C182.662 130.729 182.349 130.847 182.149 131.082C181.95 131.315 181.85 131.697 181.85 132.226V132.334C181.85 132.906 181.945 133.314 182.136 133.559C182.329 133.803 182.642 133.926 183.075 133.926Z" fill="white"/>
    <path d="M179.831 132.418H177.832L177.146 134.154H176.765L178.744 129.215H178.963L180.901 134.154H180.514L179.831 132.418ZM177.956 132.108H179.716L179.047 130.335C178.991 130.196 178.923 130.003 178.845 129.756C178.784 129.972 178.718 130.167 178.646 130.342L177.956 132.108Z" fill="white"/>
    <path d="M174.834 130.497V130.729L174.077 130.776C174.279 131.027 174.38 131.303 174.38 131.604C174.38 131.956 174.262 132.242 174.026 132.462C173.793 132.679 173.479 132.788 173.084 132.788C172.918 132.788 172.801 132.781 172.734 132.768C172.602 132.838 172.501 132.919 172.431 133.014C172.362 133.108 172.327 133.208 172.327 133.313C172.327 133.43 172.371 133.515 172.458 133.569C172.548 133.623 172.697 133.65 172.906 133.65H173.545C173.942 133.65 174.246 133.73 174.457 133.892C174.668 134.051 174.773 134.288 174.773 134.602C174.773 134.988 174.616 135.285 174.302 135.494C173.99 135.705 173.545 135.81 172.966 135.81C172.506 135.81 172.15 135.721 171.896 135.544C171.645 135.367 171.519 135.12 171.519 134.804C171.519 134.553 171.597 134.344 171.752 134.178C171.909 134.012 172.121 133.899 172.388 133.838C172.278 133.791 172.189 133.725 172.122 133.64C172.057 133.552 172.024 133.452 172.024 133.34C172.024 133.096 172.18 132.88 172.492 132.694C172.279 132.607 172.113 132.47 171.994 132.283C171.875 132.095 171.815 131.88 171.815 131.637C171.815 131.272 171.931 130.979 172.162 130.759C172.395 130.537 172.709 130.426 173.104 130.426C173.344 130.426 173.53 130.45 173.663 130.497H174.834ZM171.873 134.774C171.873 135.276 172.246 135.527 172.993 135.527C173.953 135.527 174.433 135.221 174.433 134.609C174.433 134.389 174.358 134.23 174.208 134.131C174.058 134.032 173.814 133.983 173.478 133.983H172.879C172.208 133.983 171.873 134.246 171.873 134.774ZM172.152 131.637C172.152 131.92 172.237 132.14 172.408 132.297C172.58 132.452 172.81 132.529 173.098 132.529C173.403 132.529 173.636 132.452 173.797 132.297C173.961 132.142 174.043 131.918 174.043 131.624C174.043 131.312 173.959 131.079 173.791 130.924C173.625 130.767 173.391 130.688 173.091 130.688C172.799 130.688 172.569 130.773 172.401 130.941C172.235 131.107 172.152 131.339 172.152 131.637Z" fill="white"/>
    <path d="M170.466 134.154V131.782C170.466 131.414 170.389 131.147 170.234 130.981C170.079 130.813 169.839 130.729 169.514 130.729C169.076 130.729 168.756 130.84 168.551 131.062C168.35 131.282 168.249 131.64 168.249 132.135V134.154H167.915V130.497H168.198L168.262 130.998H168.282C168.52 130.617 168.943 130.426 169.551 130.426C170.381 130.426 170.796 130.871 170.796 131.762V134.154H170.466Z" fill="white"/>
    <path d="M166.687 134.155H166.354V130.497H166.687V134.155ZM166.307 129.481C166.307 129.265 166.378 129.158 166.519 129.158C166.589 129.158 166.642 129.186 166.681 129.242C166.721 129.298 166.741 129.378 166.741 129.481C166.741 129.582 166.721 129.661 166.681 129.72C166.642 129.778 166.589 129.807 166.519 129.807C166.378 129.807 166.307 129.698 166.307 129.481Z" fill="white"/>
    <path d="M165.6 130.497V130.729L164.843 130.776C165.045 131.027 165.146 131.303 165.146 131.604C165.146 131.956 165.028 132.242 164.793 132.462C164.56 132.679 164.245 132.788 163.851 132.788C163.685 132.788 163.568 132.781 163.501 132.768C163.368 132.838 163.267 132.919 163.198 133.014C163.128 133.108 163.094 133.208 163.094 133.313C163.094 133.43 163.137 133.515 163.225 133.569C163.315 133.623 163.464 133.65 163.672 133.65H164.312C164.709 133.65 165.013 133.73 165.224 133.892C165.434 134.051 165.54 134.288 165.54 134.602C165.54 134.988 165.383 135.285 165.069 135.494C164.757 135.705 164.312 135.81 163.733 135.81C163.273 135.81 162.916 135.721 162.663 135.544C162.412 135.367 162.286 135.12 162.286 134.804C162.286 134.553 162.363 134.344 162.518 134.178C162.675 134.012 162.887 133.899 163.154 133.838C163.044 133.791 162.956 133.725 162.888 133.64C162.823 133.552 162.791 133.452 162.791 133.34C162.791 133.096 162.947 132.88 163.258 132.694C163.045 132.607 162.879 132.47 162.76 132.283C162.642 132.095 162.582 131.88 162.582 131.637C162.582 131.272 162.698 130.979 162.929 130.759C163.162 130.537 163.476 130.426 163.871 130.426C164.111 130.426 164.297 130.45 164.429 130.497H165.6ZM162.639 134.774C162.639 135.276 163.013 135.527 163.76 135.527C164.72 135.527 165.2 135.221 165.2 134.609C165.2 134.389 165.125 134.23 164.975 134.131C164.824 134.032 164.581 133.983 164.244 133.983H163.645C162.975 133.983 162.639 134.246 162.639 134.774ZM162.919 131.637C162.919 131.92 163.004 132.14 163.174 132.297C163.347 132.452 163.577 132.529 163.864 132.529C164.169 132.529 164.403 132.452 164.564 132.297C164.728 132.142 164.81 131.918 164.81 131.624C164.81 131.312 164.726 131.079 164.557 130.924C164.391 130.767 164.158 130.688 163.857 130.688C163.566 130.688 163.336 130.773 163.168 130.941C163.002 131.107 162.919 131.339 162.919 131.637Z" fill="white"/>
    <path d="M161.502 130.426C161.657 130.426 161.823 130.442 162 130.473L161.936 130.793C161.783 130.755 161.625 130.736 161.462 130.736C161.15 130.736 160.894 130.868 160.694 131.133C160.495 131.397 160.395 131.732 160.395 132.135V134.154H160.062V130.497H160.344L160.378 131.156H160.402C160.552 130.887 160.712 130.699 160.883 130.591C161.053 130.481 161.26 130.426 161.502 130.426Z" fill="white"/>
    <path d="M158.628 134.154L158.544 133.576H158.517C158.333 133.811 158.144 133.978 157.949 134.077C157.756 134.174 157.527 134.222 157.262 134.222C156.903 134.222 156.624 134.13 156.424 133.946C156.225 133.762 156.125 133.507 156.125 133.182C156.125 132.825 156.273 132.548 156.569 132.351C156.867 132.153 157.298 132.049 157.861 132.038L158.558 132.018V131.775C158.558 131.428 158.487 131.165 158.346 130.988C158.204 130.811 157.977 130.722 157.663 130.722C157.324 130.722 156.973 130.816 156.609 131.005L156.485 130.716C156.886 130.527 157.283 130.433 157.676 130.433C158.078 130.433 158.377 130.537 158.574 130.746C158.774 130.954 158.874 131.28 158.874 131.722V134.154H158.628ZM157.282 133.919C157.673 133.919 157.98 133.808 158.204 133.586C158.431 133.361 158.544 133.051 158.544 132.654V132.294L157.905 132.321C157.391 132.345 157.024 132.426 156.804 132.563C156.587 132.697 156.478 132.908 156.478 133.195C156.478 133.424 156.548 133.603 156.687 133.731C156.828 133.856 157.027 133.919 157.282 133.919Z" fill="white"/>
    <path d="M154.893 134.155V131.782C154.893 131.414 154.816 131.147 154.661 130.981C154.506 130.813 154.266 130.729 153.941 130.729C153.503 130.729 153.183 130.84 152.979 131.062C152.777 131.282 152.676 131.64 152.676 132.136V134.155H152.343V128.919H152.676V130.584L152.659 131.052H152.682C152.819 130.832 152.992 130.673 153.201 130.574C153.409 130.476 153.668 130.426 153.978 130.426C154.808 130.426 155.223 130.871 155.223 131.762V134.155H154.893Z" fill="white"/>
    <path d="M150.246 129.474C149.629 129.474 149.144 129.672 148.789 130.066C148.435 130.461 148.257 131.002 148.257 131.688C148.257 132.39 148.425 132.936 148.759 133.324C149.093 133.712 149.571 133.906 150.192 133.906C150.605 133.906 150.984 133.853 151.33 133.748V134.05C151.004 134.165 150.598 134.222 150.112 134.222C149.421 134.222 148.877 133.999 148.48 133.552C148.083 133.106 147.884 132.482 147.884 131.682C147.884 131.181 147.978 130.74 148.167 130.359C148.357 129.978 148.63 129.684 148.984 129.477C149.341 129.269 149.755 129.165 150.226 129.165C150.706 129.165 151.136 129.254 151.515 129.434L151.377 129.743C151.018 129.564 150.641 129.474 150.246 129.474Z" fill="white"/>
    <path d="M143.506 130.426C143.771 130.426 144 130.474 144.193 130.571C144.386 130.667 144.558 130.832 144.711 131.066H144.731C144.718 130.783 144.711 130.506 144.711 130.234V128.919H145.041V134.155H144.822L144.738 133.596H144.711C144.433 134.013 144.033 134.222 143.513 134.222C143.008 134.222 142.622 134.065 142.355 133.751C142.088 133.437 141.955 132.979 141.955 132.378C141.955 131.745 142.087 131.262 142.352 130.928C142.617 130.593 143.001 130.426 143.506 130.426ZM143.506 130.729C143.107 130.729 142.806 130.869 142.604 131.15C142.405 131.43 142.305 131.837 142.305 132.371C142.305 133.408 142.708 133.926 143.513 133.926C143.926 133.926 144.229 133.806 144.421 133.566C144.614 133.326 144.711 132.93 144.711 132.378V132.321C144.711 131.755 144.615 131.349 144.425 131.103C144.236 130.854 143.93 130.729 143.506 130.729Z" fill="white"/>
    <path d="M140.653 134.154V131.782C140.653 131.414 140.575 131.147 140.421 130.981C140.266 130.813 140.026 130.729 139.7 130.729C139.263 130.729 138.942 130.84 138.738 131.062C138.536 131.282 138.435 131.64 138.435 132.135V134.154H138.102V130.497H138.385L138.449 130.998H138.469C138.707 130.617 139.13 130.426 139.737 130.426C140.567 130.426 140.982 130.871 140.982 131.762V134.154H140.653Z" fill="white"/>
    <path d="M136.416 132.418H134.417L133.731 134.154H133.351L135.329 129.215H135.548L137.486 134.154H137.099L136.416 132.418ZM134.542 132.108H136.302L135.632 130.335C135.576 130.196 135.509 130.003 135.43 129.756C135.37 129.972 135.304 130.167 135.232 130.342L134.542 132.108Z" fill="white"/>
    <path d="M131.419 130.497V130.729L130.662 130.776C130.864 131.027 130.965 131.303 130.965 131.604C130.965 131.956 130.847 132.242 130.612 132.462C130.378 132.679 130.064 132.788 129.67 132.788C129.503 132.788 129.387 132.781 129.32 132.768C129.187 132.838 129.086 132.919 129.017 133.014C128.947 133.108 128.912 133.208 128.912 133.313C128.912 133.43 128.956 133.515 129.044 133.569C129.133 133.623 129.283 133.65 129.491 133.65H130.131C130.528 133.65 130.832 133.73 131.042 133.892C131.253 134.051 131.359 134.288 131.359 134.602C131.359 134.988 131.202 135.285 130.888 135.494C130.576 135.705 130.13 135.81 129.552 135.81C129.092 135.81 128.735 135.721 128.482 135.544C128.23 135.367 128.105 135.12 128.105 134.804C128.105 134.553 128.182 134.344 128.337 134.178C128.494 134.012 128.706 133.899 128.973 133.838C128.863 133.791 128.774 133.725 128.707 133.64C128.642 133.552 128.61 133.452 128.61 133.34C128.61 133.096 128.765 132.88 129.077 132.694C128.864 132.607 128.698 132.47 128.579 132.283C128.46 132.095 128.401 131.88 128.401 131.637C128.401 131.272 128.516 130.979 128.748 130.759C128.981 130.537 129.295 130.426 129.69 130.426C129.93 130.426 130.116 130.45 130.248 130.497H131.419ZM128.458 134.774C128.458 135.276 128.832 135.527 129.579 135.527C130.539 135.527 131.019 135.221 131.019 134.609C131.019 134.389 130.944 134.23 130.793 134.131C130.643 134.032 130.4 133.983 130.063 133.983H129.464C128.793 133.983 128.458 134.246 128.458 134.774ZM128.737 131.637C128.737 131.92 128.823 132.14 128.993 132.297C129.166 132.452 129.396 132.529 129.683 132.529C129.988 132.529 130.221 132.452 130.383 132.297C130.547 132.142 130.629 131.918 130.629 131.624C130.629 131.312 130.544 131.079 130.376 130.924C130.21 130.767 129.977 130.688 129.676 130.688C129.385 130.688 129.155 130.773 128.986 130.941C128.82 131.107 128.737 131.339 128.737 131.637Z" fill="white"/>
    <path d="M127.052 134.154V131.782C127.052 131.414 126.974 131.147 126.819 130.981C126.665 130.813 126.425 130.729 126.099 130.729C125.662 130.729 125.341 130.84 125.137 131.062C124.935 131.282 124.834 131.64 124.834 132.135V134.154H124.501V130.497H124.784L124.848 130.998H124.868C125.106 130.617 125.528 130.426 126.136 130.426C126.966 130.426 127.381 130.871 127.381 131.762V134.154H127.052Z" fill="white"/>
    <path d="M123.273 134.155H122.94V130.497H123.273V134.155ZM122.893 129.481C122.893 129.265 122.963 129.158 123.105 129.158C123.174 129.158 123.228 129.186 123.266 129.242C123.306 129.298 123.327 129.378 123.327 129.481C123.327 129.582 123.306 129.661 123.266 129.72C123.228 129.778 123.174 129.807 123.105 129.807C122.963 129.807 122.893 129.698 122.893 129.481Z" fill="white"/>
    <path d="M119.928 132.549L121.796 130.497H122.199L120.759 132.058L122.324 134.155H121.923L120.534 132.307L119.935 132.852V134.155H119.602V128.919H119.935V131.543L119.911 132.549H119.928Z" fill="white"/>
    <path d="M118.589 132.32C118.589 132.917 118.444 133.384 118.155 133.72C117.865 134.055 117.466 134.222 116.957 134.222C116.636 134.222 116.353 134.144 116.109 133.99C115.864 133.835 115.677 133.613 115.547 133.323C115.417 133.034 115.352 132.7 115.352 132.32C115.352 131.724 115.496 131.259 115.786 130.927C116.075 130.593 116.472 130.426 116.977 130.426C117.479 130.426 117.873 130.595 118.158 130.934C118.445 131.271 118.589 131.733 118.589 132.32ZM115.702 132.32C115.702 132.823 115.812 133.216 116.031 133.498C116.253 133.779 116.566 133.919 116.97 133.919C117.374 133.919 117.686 133.779 117.906 133.498C118.128 133.216 118.239 132.823 118.239 132.32C118.239 131.816 118.127 131.424 117.902 131.146C117.68 130.868 117.367 130.729 116.963 130.729C116.56 130.729 116.248 130.868 116.028 131.146C115.81 131.422 115.702 131.814 115.702 132.32Z" fill="white"/>
    <path d="M114.551 132.32C114.551 132.917 114.406 133.384 114.117 133.72C113.827 134.055 113.428 134.222 112.919 134.222C112.598 134.222 112.315 134.144 112.071 133.99C111.826 133.835 111.639 133.613 111.509 133.323C111.379 133.034 111.314 132.7 111.314 132.32C111.314 131.724 111.458 131.259 111.748 130.927C112.037 130.593 112.434 130.426 112.939 130.426C113.442 130.426 113.835 130.595 114.12 130.934C114.407 131.271 114.551 131.733 114.551 132.32ZM111.664 132.32C111.664 132.823 111.774 133.216 111.993 133.498C112.216 133.779 112.528 133.919 112.932 133.919C113.336 133.919 113.648 133.779 113.868 133.498C114.09 133.216 114.201 132.823 114.201 132.32C114.201 131.816 114.089 131.424 113.864 131.146C113.642 130.868 113.329 130.729 112.926 130.729C112.522 130.729 112.21 130.868 111.99 131.146C111.773 131.422 111.664 131.814 111.664 132.32Z" fill="white"/>
    <path d="M107.289 129.235H108.639C109.247 129.235 109.693 129.338 109.978 129.544C110.263 129.751 110.405 130.063 110.405 130.48C110.405 130.765 110.318 131.003 110.143 131.193C109.97 131.382 109.717 131.503 109.382 131.557V131.577C109.775 131.635 110.063 131.76 110.247 131.95C110.433 132.139 110.526 132.402 110.526 132.741C110.526 133.194 110.376 133.543 110.075 133.788C109.775 134.032 109.349 134.154 108.797 134.154H107.289V129.235ZM107.632 131.425H108.716C109.178 131.425 109.513 131.349 109.722 131.197C109.933 131.042 110.038 130.801 110.038 130.473C110.038 130.146 109.92 129.908 109.682 129.76C109.446 129.612 109.094 129.538 108.625 129.538H107.632V131.425ZM107.632 131.728V133.852H108.79C109.701 133.852 110.156 133.481 110.156 132.741C110.156 132.066 109.676 131.728 108.716 131.728H107.632Z" fill="white"/>
    <path d="M104.17 130.426C104.325 130.426 104.491 130.442 104.668 130.473L104.604 130.793C104.451 130.755 104.293 130.736 104.13 130.736C103.818 130.736 103.562 130.868 103.362 131.133C103.163 131.397 103.063 131.732 103.063 132.135V134.154H102.73V130.497H103.012L103.046 131.156H103.07C103.22 130.887 103.38 130.699 103.551 130.591C103.721 130.481 103.928 130.426 104.17 130.426Z" fill="white"/>
    <path d="M101.717 132.32C101.717 132.917 101.572 133.384 101.283 133.72C100.993 134.055 100.594 134.222 100.085 134.222C99.7641 134.222 99.4815 134.144 99.237 133.99C98.9924 133.835 98.8051 133.613 98.675 133.323C98.5449 133.034 98.4798 132.7 98.4798 132.32C98.4798 131.724 98.6245 131.259 98.9139 130.927C99.2033 130.593 99.6004 130.426 100.105 130.426C100.608 130.426 101.001 130.595 101.286 130.934C101.573 131.271 101.717 131.733 101.717 132.32ZM98.8298 132.32C98.8298 132.823 98.9397 133.216 99.1596 133.498C99.3817 133.779 99.6946 133.919 100.098 133.919C100.502 133.919 100.814 133.779 101.034 133.498C101.256 133.216 101.367 132.823 101.367 132.32C101.367 131.816 101.255 131.424 101.03 131.146C100.808 130.868 100.495 130.729 100.092 130.729C99.6879 130.729 99.376 130.868 99.1562 131.146C98.9386 131.422 98.8298 131.814 98.8298 132.32Z" fill="white"/>
    <path d="M95.66 134.154H95.3168V129.235H98.0121V129.551H95.66V131.637H97.8809V131.957H95.66V134.154Z" fill="white"/>
    <path d="M92.0999 133.926C92.3108 133.926 92.4947 133.908 92.6518 133.872V134.141C92.4902 134.195 92.304 134.222 92.0932 134.222C91.7701 134.222 91.5312 134.135 91.3764 133.963C91.2239 133.79 91.1476 133.519 91.1476 133.148V130.786H90.6059V130.591L91.1476 130.44L91.3159 129.612H91.4875V130.497H92.5609V130.786H91.4875V133.101C91.4875 133.382 91.5368 133.589 91.6355 133.724C91.7342 133.858 91.889 133.926 92.0999 133.926Z" fill="white"/>
    <path d="M88.8292 134.222C88.2975 134.222 87.8825 134.058 87.5842 133.73C87.288 133.403 87.14 132.944 87.14 132.354C87.14 131.771 87.2836 131.304 87.5707 130.954C87.8578 130.602 88.2448 130.426 88.7316 130.426C89.1623 130.426 89.5022 130.576 89.7512 130.877C90.0002 131.178 90.1247 131.586 90.1247 132.102V132.371H87.4899C87.4944 132.873 87.6111 133.257 87.8399 133.522C88.071 133.786 88.4007 133.919 88.8292 133.919C89.0378 133.919 89.2206 133.904 89.3777 133.875C89.5369 133.846 89.7377 133.783 89.98 133.687V133.99C89.7736 134.079 89.5829 134.14 89.408 134.171C89.233 134.205 89.0401 134.222 88.8292 134.222ZM88.7316 130.722C88.3794 130.722 88.0968 130.839 87.8836 131.072C87.6705 131.303 87.546 131.637 87.5101 132.075H89.7714C89.7714 131.651 89.6794 131.32 89.4954 131.082C89.3115 130.842 89.0569 130.722 88.7316 130.722Z" fill="white"/>
    <path d="M86.1238 134.155H85.7906V128.919H86.1238V134.155Z" fill="white"/>
    <path d="M84.5624 134.155H84.2293V128.919H84.5624V134.155Z" fill="white"/>
    <path d="M82.7958 134.154L82.7117 133.576H82.6848C82.5008 133.811 82.3113 133.978 82.1161 134.077C81.9232 134.174 81.6944 134.222 81.4297 134.222C81.0707 134.222 80.7914 134.13 80.5918 133.946C80.3921 133.762 80.2923 133.507 80.2923 133.182C80.2923 132.825 80.4404 132.548 80.7365 132.351C81.0348 132.153 81.4655 132.049 82.0286 132.038L82.7252 132.018V131.775C82.7252 131.428 82.6545 131.165 82.5132 130.988C82.3718 130.811 82.1441 130.722 81.8301 130.722C81.4913 130.722 81.1403 130.816 80.7768 131.005L80.6524 130.716C81.0539 130.527 81.451 130.433 81.8435 130.433C82.2451 130.433 82.5446 130.537 82.742 130.746C82.9416 130.954 83.0415 131.28 83.0415 131.722V134.154H82.7958ZM81.4498 133.919C81.8402 133.919 82.1475 133.808 82.3718 133.586C82.5984 133.361 82.7117 133.051 82.7117 132.654V132.294L82.0724 132.321C81.5586 132.345 81.1919 132.426 80.972 132.563C80.7544 132.697 80.6456 132.908 80.6456 133.195C80.6456 133.424 80.7152 133.603 80.8542 133.731C80.9956 133.856 81.1941 133.919 81.4498 133.919Z" fill="white"/>
    <path d="M78.4281 134.154H78.1455L77.0653 130.359C76.9756 130.047 76.9083 129.791 76.8634 129.592C76.8275 129.787 76.7759 130.011 76.7086 130.265C76.6436 130.518 76.2824 131.815 75.6251 134.154H75.3357L73.983 129.235H74.3431L75.2045 132.405C75.2382 132.533 75.2696 132.651 75.2987 132.761C75.3279 132.869 75.3537 132.971 75.3761 133.068C75.4008 133.162 75.4221 133.254 75.4401 133.343C75.4602 133.431 75.4782 133.52 75.4939 133.609C75.5477 133.304 75.6621 132.841 75.8371 132.22L76.6784 129.235H77.0586L78.0445 132.66C78.1589 133.055 78.2408 133.374 78.2902 133.616C78.3193 133.455 78.3563 133.283 78.4012 133.101C78.4483 132.919 78.7949 131.631 79.441 129.235H79.7876L78.4281 134.154Z" fill="white"/>
    <path d="M71.6915 133.202C71.6915 133.53 71.567 133.782 71.318 133.959C71.069 134.134 70.7157 134.222 70.258 134.222C69.769 134.222 69.3809 134.147 69.0938 133.996V133.636C69.4617 133.82 69.8497 133.912 70.258 133.912C70.6192 133.912 70.8929 133.853 71.0791 133.734C71.2675 133.613 71.3617 133.452 71.3617 133.253C71.3617 133.069 71.2866 132.914 71.1363 132.788C70.9882 132.663 70.7437 132.539 70.4027 132.418C70.0371 132.286 69.7802 132.172 69.6321 132.078C69.4841 131.982 69.3719 131.874 69.2956 131.755C69.2216 131.634 69.1846 131.487 69.1846 131.314C69.1846 131.041 69.299 130.824 69.5278 130.665C69.7589 130.506 70.0808 130.426 70.4936 130.426C70.8884 130.426 71.263 130.5 71.6175 130.648L71.493 130.951C71.134 130.803 70.8009 130.729 70.4936 130.729C70.1952 130.729 69.9585 130.778 69.7836 130.877C69.6086 130.976 69.5211 131.112 69.5211 131.287C69.5211 131.478 69.5884 131.631 69.723 131.745C69.8598 131.859 70.1257 131.987 70.5205 132.129C70.8503 132.248 71.0903 132.355 71.2406 132.452C71.3909 132.546 71.5031 132.654 71.5771 132.775C71.6534 132.896 71.6915 133.038 71.6915 133.202Z" fill="white"/>
    <path d="M68.1953 134.155H67.8622V130.497H68.1953V134.155ZM67.8151 129.481C67.8151 129.265 67.8858 129.158 68.0271 129.158C68.0966 129.158 68.1505 129.186 68.1886 129.242C68.229 129.298 68.2492 129.378 68.2492 129.481C68.2492 129.582 68.229 129.661 68.1886 129.72C68.1505 129.778 68.0966 129.807 68.0271 129.807C67.8858 129.807 67.8151 129.698 67.8151 129.481Z" fill="white"/>
    <path d="M66.348 134.155V131.782C66.348 131.414 66.2706 131.147 66.1158 130.981C65.961 130.813 65.721 130.729 65.3957 130.729C64.9583 130.729 64.6375 130.84 64.4333 131.062C64.2314 131.282 64.1305 131.64 64.1305 132.136V134.155H63.7974V128.919H64.1305V130.584L64.1137 131.052H64.1372C64.2741 130.832 64.4468 130.673 64.6554 130.574C64.8641 130.476 65.1232 130.426 65.4327 130.426C66.2627 130.426 66.6778 130.871 66.6778 131.762V134.155H66.348Z" fill="white"/>
    <path d="M61.5495 134.154H61.2029V129.558H59.6046V129.235H63.1479V129.558H61.5495V134.154Z" fill="white"/>
    <path d="M55.6273 130.426C55.892 130.426 56.1208 130.474 56.3137 130.571C56.5067 130.667 56.6794 130.832 56.8319 131.066H56.8521C56.8387 130.783 56.8319 130.506 56.8319 130.234V128.919H57.1617V134.155H56.943L56.8589 133.596H56.8319C56.5538 134.013 56.1545 134.222 55.634 134.222C55.1293 134.222 54.7434 134.065 54.4765 133.751C54.2095 133.437 54.076 132.979 54.076 132.378C54.076 131.745 54.2084 131.262 54.4731 130.928C54.7378 130.593 55.1225 130.426 55.6273 130.426ZM55.6273 130.729C55.228 130.729 54.9274 130.869 54.7255 131.15C54.5258 131.43 54.426 131.837 54.426 132.371C54.426 133.408 54.8287 133.926 55.634 133.926C56.0468 133.926 56.3496 133.806 56.5426 133.566C56.7355 133.326 56.8319 132.93 56.8319 132.378V132.321C56.8319 131.755 56.7366 131.349 56.5459 131.103C56.3575 130.854 56.0513 130.729 55.6273 130.729Z" fill="white"/>
    <path d="M51.983 134.222C51.4514 134.222 51.0364 134.058 50.738 133.73C50.4419 133.403 50.2938 132.944 50.2938 132.354C50.2938 131.771 50.4374 131.304 50.7245 130.954C51.0117 130.602 51.3986 130.426 51.8854 130.426C52.3162 130.426 52.656 130.576 52.905 130.877C53.154 131.178 53.2785 131.586 53.2785 132.102V132.371H50.6438C50.6483 132.873 50.7649 133.257 50.9937 133.522C51.2248 133.786 51.5546 133.919 51.983 133.919C52.1917 133.919 52.3745 133.904 52.5315 133.875C52.6908 133.846 52.8916 133.783 53.1338 133.687V133.99C52.9275 134.079 52.7368 134.14 52.5618 134.171C52.3868 134.205 52.1939 134.222 51.983 134.222ZM51.8854 130.722C51.5332 130.722 51.2506 130.839 51.0375 131.072C50.8244 131.303 50.6999 131.637 50.664 132.075H52.9252C52.9252 131.651 52.8332 131.32 52.6493 131.082C52.4653 130.842 52.2107 130.722 51.8854 130.722Z" fill="white"/>
    <path d="M49.5636 133.202C49.5636 133.53 49.4391 133.782 49.1901 133.959C48.9411 134.134 48.5878 134.222 48.1302 134.222C47.6411 134.222 47.253 134.147 46.9659 133.996V133.636C47.3338 133.82 47.7219 133.912 48.1302 133.912C48.4913 133.912 48.765 133.853 48.9512 133.734C49.1396 133.613 49.2339 133.452 49.2339 133.253C49.2339 133.069 49.1587 132.914 49.0084 132.788C48.8603 132.663 48.6158 132.539 48.2748 132.418C47.9092 132.286 47.6523 132.172 47.5043 132.078C47.3562 131.982 47.244 131.874 47.1678 131.755C47.0937 131.634 47.0567 131.487 47.0567 131.314C47.0567 131.041 47.1711 130.824 47.4 130.665C47.631 130.506 47.9529 130.426 48.3657 130.426C48.7605 130.426 49.1351 130.5 49.4896 130.648L49.3651 130.951C49.0062 130.803 48.673 130.729 48.3657 130.729C48.0673 130.729 47.8307 130.778 47.6557 130.877C47.4807 130.976 47.3932 131.112 47.3932 131.287C47.3932 131.478 47.4605 131.631 47.5951 131.745C47.732 131.859 47.9978 131.987 48.3926 132.129C48.7224 132.248 48.9624 132.355 49.1127 132.452C49.263 132.546 49.3752 132.654 49.4492 132.775C49.5255 132.896 49.5636 133.038 49.5636 133.202Z" fill="white"/>
    <path d="M46.0372 129.235V132.418C46.0372 132.983 45.8734 133.425 45.5459 133.744C45.2184 134.062 44.7618 134.222 44.1763 134.222C43.6065 134.222 43.1613 134.062 42.8405 133.744C42.5219 133.423 42.3626 132.977 42.3626 132.405V129.235H42.7092V132.418C42.7092 132.891 42.8405 133.26 43.1029 133.525C43.3654 133.788 43.7367 133.919 44.2167 133.919C44.6856 133.919 45.049 133.79 45.307 133.532C45.5649 133.272 45.6939 132.912 45.6939 132.452V129.235H46.0372Z" fill="white"/>
    <path d="M39.0313 134.154V131.782C39.0313 131.414 38.9539 131.147 38.7991 130.981C38.6443 130.813 38.4043 130.729 38.079 130.729C37.6416 130.729 37.3208 130.84 37.1167 131.062C36.9148 131.282 36.8138 131.64 36.8138 132.135V134.154H36.4807V130.497H36.7633L36.8273 130.998H36.8475C37.0853 130.617 37.5081 130.426 38.116 130.426C38.9461 130.426 39.3611 130.871 39.3611 131.762V134.154H39.0313Z" fill="white"/>
    <path d="M35.0473 134.154L34.9631 133.576H34.9362C34.7523 133.811 34.5627 133.978 34.3675 134.077C34.1746 134.174 33.9458 134.222 33.6811 134.222C33.3222 134.222 33.0429 134.13 32.8432 133.946C32.6436 133.762 32.5437 133.507 32.5437 133.182C32.5437 132.825 32.6918 132.548 32.9879 132.351C33.2863 132.153 33.717 132.049 34.28 132.038L34.9766 132.018V131.775C34.9766 131.428 34.9059 131.165 34.7646 130.988C34.6233 130.811 34.3956 130.722 34.0815 130.722C33.7428 130.722 33.3917 130.816 33.0283 131.005L32.9038 130.716C33.3053 130.527 33.7024 130.433 34.095 130.433C34.4965 130.433 34.796 130.537 34.9934 130.746C35.1931 130.954 35.2929 131.28 35.2929 131.722V134.154H35.0473ZM33.7013 133.919C34.0916 133.919 34.3989 133.808 34.6233 133.586C34.8498 133.361 34.9631 133.051 34.9631 132.654V132.294L34.3238 132.321C33.8101 132.345 33.4433 132.426 33.2235 132.563C33.0059 132.697 32.8971 132.908 32.8971 133.195C32.8971 133.424 32.9666 133.603 33.1057 133.731C33.247 133.856 33.4455 133.919 33.7013 133.919Z" fill="white"/>
    <path d="M30.73 129.474C30.1131 129.474 29.6274 129.672 29.273 130.066C28.9186 130.461 28.7413 131.002 28.7413 131.688C28.7413 132.39 28.9085 132.936 29.2427 133.324C29.577 133.712 30.0548 133.906 30.6762 133.906C31.0889 133.906 31.4681 133.853 31.8135 133.748V134.05C31.4883 134.165 31.0822 134.222 30.5954 134.222C29.9045 134.222 29.3605 133.999 28.9634 133.552C28.5664 133.106 28.3678 132.482 28.3678 131.682C28.3678 131.181 28.462 130.74 28.6505 130.359C28.8412 129.978 29.1137 129.684 29.4682 129.477C29.8249 129.269 30.2387 129.165 30.7098 129.165C31.1899 129.165 31.6195 129.254 31.9986 129.434L31.8606 129.743C31.5017 129.564 31.1248 129.474 30.73 129.474Z" fill="white"/>
    <path d="M22.9806 130.497V132.866C22.9806 133.234 23.058 133.502 23.2128 133.67C23.3676 133.836 23.6076 133.919 23.9329 133.919C24.3681 133.919 24.6877 133.809 24.8919 133.589C25.0983 133.369 25.2014 133.012 25.2014 132.516V130.497H25.5312V134.155H25.2486L25.188 133.65H25.1678C24.93 134.031 24.5071 134.222 23.8992 134.222C23.0669 134.222 22.6508 133.777 22.6508 132.886V130.497H22.9806Z" fill="white"/>
    <path d="M21.6783 132.32C21.6783 132.917 21.5336 133.384 21.2442 133.72C20.9548 134.055 20.5555 134.222 20.0463 134.222C19.7255 134.222 19.4429 134.144 19.1983 133.99C18.9538 133.835 18.7665 133.613 18.6364 133.323C18.5063 133.034 18.4412 132.7 18.4412 132.32C18.4412 131.724 18.5859 131.259 18.8753 130.927C19.1647 130.593 19.5618 130.426 20.0665 130.426C20.569 130.426 20.9627 130.595 21.2476 130.934C21.5347 131.271 21.6783 131.733 21.6783 132.32ZM18.7912 132.32C18.7912 132.823 18.9011 133.216 19.1209 133.498C19.343 133.779 19.656 133.919 20.0598 133.919C20.4636 133.919 20.7754 133.779 20.9952 133.498C21.2173 133.216 21.3283 132.823 21.3283 132.32C21.3283 131.816 21.2162 131.424 20.9919 131.146C20.7698 130.868 20.4568 130.729 20.053 130.729C19.6492 130.729 19.3374 130.868 19.1176 131.146C18.9 131.422 18.7912 131.814 18.7912 132.32Z" fill="white"/>
    <path d="M16.2271 131.927L17.6673 129.235H18.0375L16.3987 132.253V134.154H16.0454V132.28L14.4 129.235H14.7937L16.2271 131.927Z" fill="white"/>
    <path d="M100.612 114.888C91.8869 121.388 81.4012 123.479 70.9905 120.248C64.4744 118.233 54.5506 114.507 49.3826 120.932C50.2814 116.598 51.667 112.417 53.4645 108.463C56.7226 103.483 59.9432 98.5033 63.2012 93.5614C63.4259 93.2193 62.9016 92.8011 62.6395 93.1052C58.5576 97.667 55.2246 102.761 52.7156 108.311C51.2176 110.592 49.7197 112.911 48.2217 115.192C48.6711 113.823 49.0831 112.455 49.5324 111.086C49.6448 110.744 49.158 110.44 48.9333 110.744C47.0608 113.139 45.1884 115.534 43.3534 117.929C43.2411 117.283 43.0913 116.636 42.9789 115.99C42.9415 115.762 42.6793 115.686 42.4921 115.8C40.0954 116.978 37.6987 118.157 35.302 119.373C36.4254 116.332 33.0925 113.367 30.0966 113.329C28.6361 113.329 27.3628 113.747 26.1645 114.431C26.4641 113.253 26.7637 112.075 27.0633 110.934C29.1229 107.589 30.2089 103.635 30.134 99.6818C30.134 99.3776 29.6847 99.3016 29.6098 99.6057C28.5612 103.369 27.4752 107.133 26.4266 110.934C24.6665 113.709 22.1949 116.028 19.3114 117.777C19.1616 117.853 19.3114 118.043 19.4237 117.967C22.0451 116.712 24.2546 114.85 25.9772 112.569C25.79 113.215 25.6028 113.861 25.453 114.507C25.4155 114.698 25.3406 114.85 25.3032 115.04C21.9328 117.397 19.199 121.502 15.192 122.415C15.0048 122.453 14.9299 122.757 15.0797 122.871C18.7122 125.722 22.7941 122.681 24.5542 119.221C25.1534 118.005 25.6028 116.712 25.9772 115.382C27.4377 114.469 29.048 113.861 30.8081 113.899C33.5793 113.937 36.0135 117.473 34.3657 119.944C34.1785 120.248 34.553 120.514 34.8151 120.4C37.3616 119.145 39.9081 117.891 42.4921 116.636C42.6419 117.397 42.7542 118.119 42.904 118.879C42.9415 119.145 43.316 119.221 43.5032 119.031C45.1135 116.978 46.7238 114.888 48.3341 112.835C47.8098 114.431 47.323 116.028 46.7987 117.587C46.6489 118.005 47.2481 118.233 47.4728 117.891C48.746 115.914 50.0193 113.975 51.33 111.999C50.0193 115.458 49.0456 119.031 48.409 122.719C48.3341 123.137 48.8958 123.441 49.1205 123.023C51.4798 118.651 56.7226 117.625 61.2164 118.271C66.3843 118.993 71.1029 121.54 76.2333 122.377C84.884 123.783 94.3959 121.198 100.987 115.306C101.062 115.078 100.8 114.736 100.612 114.888ZM29.4225 101.963C29.1978 104.282 28.5986 106.486 27.625 108.539C28.2242 106.334 28.8233 104.167 29.4225 101.963ZM22.4945 120.97C20.9217 123.023 18.0007 123.935 15.7538 122.681C19.0118 121.616 21.2962 119.031 23.8427 116.826C24.1797 116.522 24.5167 116.256 24.8912 115.99C24.3295 117.739 23.6554 119.487 22.4945 120.97Z" fill="black"/>
    <path d="M122.062 162.726V151.779H125.647C126.783 151.779 127.768 152.009 128.6 152.47C129.443 152.92 130.094 153.557 130.555 154.38C131.015 155.203 131.245 156.158 131.245 157.245C131.245 158.323 131.015 159.278 130.555 160.11C130.094 160.933 129.443 161.575 128.6 162.035C127.768 162.496 126.783 162.726 125.647 162.726H122.062ZM123.796 161.183H125.676C126.45 161.183 127.121 161.021 127.689 160.698C128.267 160.375 128.713 159.919 129.027 159.332C129.34 158.744 129.497 158.048 129.497 157.245C129.497 156.442 129.335 155.751 129.012 155.173C128.698 154.586 128.258 154.13 127.689 153.807C127.121 153.484 126.45 153.322 125.676 153.322H123.796V161.183Z" fill="white"/>
    <path d="M112.448 162.726V151.779H116.43C117.164 151.779 117.811 151.916 118.369 152.19C118.928 152.455 119.363 152.847 119.677 153.366C120 153.875 120.162 154.488 120.162 155.203C120.162 155.957 119.971 156.604 119.589 157.142C119.216 157.681 118.712 158.073 118.075 158.318L120.603 162.726H118.634L115.945 157.95L117.076 158.612H114.181V162.726H112.448ZM114.181 157.069H116.459C116.861 157.069 117.208 156.99 117.502 156.834C117.796 156.677 118.021 156.461 118.178 156.187C118.345 155.903 118.428 155.57 118.428 155.188C118.428 154.806 118.345 154.478 118.178 154.204C118.021 153.919 117.796 153.704 117.502 153.557C117.208 153.4 116.861 153.322 116.459 153.322H114.181V157.069Z" fill="white"/>
    <path d="M101.304 162.726L105.154 151.779H107.299L111.149 162.726H109.297L108.46 160.272H104.008L103.155 162.726H101.304ZM104.507 158.729H107.931L105.991 152.999H106.476L104.507 158.729Z" fill="white"/>
    <path d="M95.9503 162.902C95.1765 162.902 94.4565 162.76 93.7904 162.476C93.134 162.192 92.561 161.8 92.0712 161.3C91.5912 160.791 91.214 160.193 90.9398 159.508C90.6655 158.822 90.5283 158.068 90.5283 157.245C90.5283 156.432 90.6606 155.682 90.9251 154.997C91.1993 154.301 91.5814 153.704 92.0712 153.204C92.561 152.695 93.134 152.303 93.7904 152.028C94.4467 151.744 95.1667 151.602 95.9503 151.602C96.7242 151.602 97.4148 151.735 98.0222 151.999C98.6393 152.264 99.1585 152.611 99.5797 153.042C100.001 153.464 100.305 153.924 100.491 154.424L98.9332 155.158C98.6981 154.57 98.321 154.095 97.8018 153.733C97.2924 153.361 96.6752 153.175 95.9503 153.175C95.2255 153.175 94.5838 153.346 94.0255 153.689C93.4671 154.032 93.0312 154.507 92.7177 155.114C92.414 155.721 92.2622 156.432 92.2622 157.245C92.2622 158.058 92.414 158.773 92.7177 159.39C93.0312 159.997 93.4671 160.472 94.0255 160.815C94.5838 161.148 95.2255 161.315 95.9503 161.315C96.6752 161.315 97.2924 161.134 97.8018 160.771C98.321 160.409 98.6981 159.934 98.9332 159.346L100.491 160.081C100.305 160.57 100.001 161.031 99.5797 161.462C99.1585 161.893 98.6393 162.241 98.0222 162.505C97.4148 162.77 96.7242 162.902 95.9503 162.902Z" fill="white"/>
    <path d="M80.3621 162.726V151.779H82.096V161.183H86.8274V162.726H80.3621Z" fill="white"/>
    <path d="M71.5372 162.726V151.779H78.7519V153.322H73.2711V156.466H78.458V158.009H73.2711V161.183H78.7519V162.726H71.5372Z" fill="white"/>
    <path d="M65.6564 162.726V153.322H62.747V151.779H70.2408V153.322H67.3755V162.726H65.6564Z" fill="white"/>
    <path d="M56.5806 162.902C55.7872 162.902 55.0476 162.76 54.3619 162.476C53.686 162.192 53.0884 161.795 52.5692 161.286C52.0598 160.776 51.6582 160.179 51.3643 159.493C51.0802 158.807 50.9382 158.058 50.9382 157.245C50.9382 156.432 51.0802 155.682 51.3643 154.997C51.6582 154.301 52.0598 153.704 52.5692 153.204C53.0786 152.695 53.6762 152.303 54.3619 152.028C55.0476 151.744 55.7872 151.602 56.5806 151.602C57.3839 151.602 58.1235 151.744 58.7994 152.028C59.4851 152.303 60.0827 152.695 60.5921 153.204C61.1112 153.713 61.5129 154.311 61.7969 154.997C62.081 155.682 62.2231 156.432 62.2231 157.245C62.2231 158.058 62.0761 158.807 61.7823 159.493C61.4982 160.179 61.1014 160.776 60.5921 161.286C60.0827 161.795 59.4851 162.192 58.7994 162.476C58.1137 162.76 57.3741 162.902 56.5806 162.902ZM56.5806 161.315C57.1488 161.315 57.668 161.212 58.1382 161.006C58.6182 160.801 59.0345 160.517 59.3872 160.154C59.7398 159.782 60.0141 159.351 60.21 158.861C60.4059 158.361 60.5039 157.823 60.5039 157.245C60.5039 156.667 60.4059 156.133 60.21 155.643C60.0141 155.153 59.7398 154.722 59.3872 154.35C59.0345 153.978 58.6182 153.689 58.1382 153.483C57.668 153.277 57.1488 153.175 56.5806 153.175C56.0125 153.175 55.4884 153.277 55.0084 153.483C54.5382 153.689 54.1268 153.978 53.7741 154.35C53.4215 154.722 53.1472 155.153 52.9513 155.643C52.7651 156.133 52.6721 156.667 52.6721 157.245C52.6721 157.823 52.7651 158.361 52.9513 158.861C53.1472 159.351 53.4215 159.782 53.7741 160.154C54.1268 160.517 54.5431 160.801 55.0231 161.006C55.5031 161.212 56.0223 161.315 56.5806 161.315Z" fill="white"/>
    <path d="M40.4707 162.726V151.779H42.2046V156.599H47.2739V151.779H48.9931V162.726H47.2739V158.141H42.2046V162.726H40.4707Z" fill="white"/>
    <path d="M31.1512 162.726V157.789L27.4043 151.779H29.3586L32.3561 156.643H31.6655L34.6484 151.779H36.6026L32.8704 157.789V162.726H31.1512Z" fill="white"/>
    <path d="M15.5314 162.726V151.779H17.1477L21.262 157.48H20.4538L24.4946 151.779H26.1109V162.726H24.3918V153.821L25.0383 153.998L20.9093 159.64H20.733L16.6922 153.998L17.2652 153.821V162.726H15.5314Z" fill="white"/>
    <path d="M309.928 116.275C309.928 119.443 307.769 122.061 305.106 122.061H272.088C269.425 122.061 267.266 119.443 267.266 116.275V88.0787C267.266 84.91 269.425 82.2925 272.088 82.2925H305.106C307.769 82.2925 309.928 84.91 309.928 88.0787V116.275Z" fill="#5F3813"/>
    <path d="M309.331 115.632C309.331 118.801 307.172 121.372 304.555 121.418H271.858C269.241 121.418 267.082 118.847 267.082 115.678V87.6656C267.082 84.497 269.241 81.8794 271.858 81.8794H304.555C307.172 81.8794 309.331 84.451 309.331 87.6196V115.632Z" fill="url(#paint0_linear_735_1775)"/>
    <path d="M294.222 96.4826C294.222 96.6204 294.177 96.8041 294.131 96.9877C294.039 97.5847 293.947 97.998 293.855 98.2276C293.809 98.3654 293.763 98.4113 293.763 98.4573C293.763 98.5032 293.717 98.5032 293.717 98.5032C293.074 99.3757 292.799 100.478 292.799 101.626C292.799 102.728 293.12 103.876 293.717 104.749C293.717 104.749 293.717 104.749 293.763 104.84C293.901 105.116 294.176 105.943 294.176 107.825C294.176 111.361 292.11 114.254 289.401 114.943L289.171 114.989V121.372H289.722V115.54C289.952 115.494 290.135 115.402 290.319 115.311H309.239V114.622H291.513C293.442 113.244 294.728 110.673 294.728 107.779C294.728 107.366 294.728 107.045 294.682 106.723H309.239V106.034H294.59C294.406 104.749 294.085 104.289 294.085 104.243C293.58 103.509 293.304 102.544 293.304 101.58C293.304 100.616 293.58 99.6512 294.085 98.9165C294.131 98.8705 294.452 98.3654 294.59 97.1255H309.239V96.4367H294.314L294.222 96.4826ZM290.457 87.9411C290.227 87.8493 290.044 87.7574 289.814 87.7115V81.8794H289.263V88.2626L289.492 88.3085C289.814 88.4003 290.044 88.4462 290.365 88.584H290.411C290.411 88.584 290.411 88.584 290.457 88.584H309.423V87.8952L290.457 87.9411ZM286.691 87.7115C286.462 87.7574 286.278 87.8493 286.094 87.9411H267.174V88.6299H284.9C282.972 90.0076 281.686 92.5792 281.686 95.4723C281.686 95.8856 281.686 96.2071 281.732 96.5285H267.174V97.2173H281.823C282.007 98.5032 282.329 98.9624 282.329 99.0083C282.834 99.7431 283.109 100.707 283.109 101.672C283.109 102.636 282.834 103.601 282.329 104.335C282.283 104.381 281.961 104.886 281.823 106.126H267.174V106.815H281.732C281.732 107.137 281.686 107.504 281.686 107.871C281.686 110.764 282.972 113.336 284.9 114.714H267.174V115.402H286.048C286.278 115.494 286.462 115.586 286.691 115.632V121.464H287.242V115.081L287.013 115.035C284.257 114.346 282.237 111.407 282.237 107.917C282.237 106.677 282.375 105.851 282.512 105.391C282.558 105.162 282.65 104.978 282.696 104.886C282.742 104.794 282.742 104.794 282.742 104.794C283.385 103.922 283.66 102.82 283.66 101.672C283.66 100.57 283.339 99.4216 282.742 98.5491C282.742 98.5491 282.742 98.5491 282.696 98.4573C282.558 98.1817 282.283 97.3551 282.283 95.4723C282.283 92.3496 283.936 89.6402 286.232 88.6299H286.278C286.553 88.5381 286.829 88.4003 287.105 88.3544L287.334 88.3085V81.9253H286.783L286.691 87.7115Z" fill="#939393"/>
    <path d="M287.242 88.2623L287.013 88.3083C286.737 88.4001 286.462 88.492 286.186 88.5838H286.14C283.844 89.5941 282.191 92.2576 282.191 95.4262C282.191 96.9416 282.375 97.7682 282.512 98.1815C282.42 97.6764 282.329 96.9875 282.329 95.9313C282.329 92.8086 283.982 90.1451 286.278 89.0889H286.324C286.599 88.9971 286.829 88.8593 287.105 88.8134L287.334 88.7675V82.3843H289.217V81.8792H287.196L287.242 88.2623ZM282.65 104.84C282.604 104.932 282.558 105.07 282.466 105.345C282.329 105.805 282.191 106.631 282.191 107.871C282.191 108.744 282.329 109.616 282.558 110.397C282.42 109.754 282.329 109.065 282.329 108.376C282.329 107.136 282.466 106.31 282.604 105.85C282.65 105.621 282.742 105.437 282.788 105.345C282.834 105.253 282.834 105.253 282.834 105.253C283.477 104.381 283.752 103.279 283.752 102.131C283.752 101.488 283.66 100.891 283.477 100.294C283.569 100.707 283.614 101.166 283.614 101.58C283.614 102.682 283.293 103.83 282.696 104.702C282.696 104.748 282.696 104.748 282.65 104.84ZM290.365 88.5838C290.365 88.6297 290.365 88.6297 290.365 88.5838H290.319C290.044 88.446 289.814 88.4001 289.447 88.3083H289.355V88.8134L289.584 88.8593C289.906 88.9512 290.135 88.9971 290.457 89.1349H290.503C290.503 89.1349 290.503 89.1349 290.549 89.1349H309.377V88.6297L290.365 88.5838ZM294.176 99.0081C293.671 99.7428 293.396 100.707 293.396 101.672C293.396 102.223 293.488 102.774 293.671 103.279C293.58 102.911 293.534 102.59 293.534 102.223C293.534 101.258 293.809 100.294 294.314 99.5592C294.36 99.5132 294.682 99.0081 294.819 97.7682H309.331V97.2631H294.682C294.544 98.457 294.222 98.9162 294.176 99.0081ZM294.819 107.871C294.819 110.764 293.534 113.336 291.605 114.713H292.386C293.947 113.244 294.957 110.994 294.957 108.422C294.957 108.009 294.957 107.687 294.911 107.366H309.331V106.861H294.773C294.819 107.09 294.819 107.458 294.819 107.871ZM289.952 82.3843H304.739C306.759 82.3843 308.504 83.9457 309.193 86.104C308.642 83.6701 306.805 81.8333 304.601 81.8333H289.814V87.6654C289.86 87.6654 289.906 87.7113 289.952 87.7113V82.3843ZM287.242 121.418H287.38V115.586L287.242 115.54V121.418ZM286.002 115.356H267.128V115.632C267.128 116.321 267.22 117.01 267.45 117.652C267.358 117.193 267.266 116.688 267.266 116.137V115.861H286.14C286.324 115.953 286.462 115.999 286.645 116.045V115.586C286.462 115.54 286.232 115.448 286.002 115.356ZM284.395 114.713H284.9C283.568 113.749 282.558 112.234 282.053 110.443C282.375 112.142 283.247 113.657 284.395 114.713ZM289.814 115.586V121.418H289.952V116.137C290.181 116.091 290.365 115.999 290.549 115.907H309.331C309.331 115.816 309.331 115.77 309.331 115.678V115.402H290.411C290.227 115.448 289.998 115.54 289.814 115.586ZM267.266 107.32H281.64C281.64 107.136 281.64 106.953 281.686 106.815H267.128V114.713H267.266V107.32ZM272.042 82.4302H286.691V81.8792H271.904C269.287 81.8792 267.128 84.4508 267.128 87.6654V87.9409H267.266C267.404 84.8641 269.47 82.4302 272.042 82.4302ZM267.266 89.1349H284.211C284.395 88.9512 284.625 88.7675 284.854 88.6297H267.128V96.5283H267.266V89.1349ZM267.266 97.7223H281.823C281.778 97.5845 281.778 97.4008 281.732 97.2171H267.082V106.126H267.22L267.266 97.7223Z" fill="#F5F5B9"/>
    <path d="M59.076 20.6V14.688H59.804V15.616L59.708 15.432C59.868 15.176 60.0867 14.9734 60.364 14.824C60.6413 14.6694 60.9587 14.592 61.316 14.592C61.7213 14.592 62.084 14.6907 62.404 14.888C62.7293 15.0854 62.9853 15.3547 63.172 15.696C63.3587 16.032 63.452 16.416 63.452 16.848C63.452 17.2694 63.3587 17.6507 63.172 17.992C62.9853 18.3334 62.7293 18.6027 62.404 18.8C62.084 18.9974 61.7187 19.096 61.308 19.096C60.9613 19.096 60.644 19.0187 60.356 18.864C60.0733 18.7094 59.8547 18.4907 59.7 18.208L59.82 18.08V20.6H59.076ZM61.252 18.376C61.524 18.376 61.7667 18.3094 61.98 18.176C62.1933 18.0427 62.3587 17.8614 62.476 17.632C62.5987 17.3974 62.66 17.136 62.66 16.848C62.66 16.5494 62.5987 16.288 62.476 16.064C62.3587 15.8347 62.1933 15.6534 61.98 15.52C61.7667 15.3814 61.524 15.312 61.252 15.312C60.98 15.312 60.7347 15.3787 60.516 15.512C60.3027 15.6454 60.132 15.8294 60.004 16.064C59.8813 16.2934 59.82 16.5547 59.82 16.848C59.82 17.136 59.8813 17.3974 60.004 17.632C60.132 17.8614 60.3027 18.0427 60.516 18.176C60.7347 18.3094 60.98 18.376 61.252 18.376Z" fill="white"/>
    <path d="M53.7244 20.6V14.688H54.4524V15.616L54.3564 15.432C54.5164 15.176 54.7351 14.9734 55.0124 14.824C55.2898 14.6694 55.6071 14.592 55.9644 14.592C56.3698 14.592 56.7324 14.6907 57.0524 14.888C57.3778 15.0854 57.6338 15.3547 57.8204 15.696C58.0071 16.032 58.1004 16.416 58.1004 16.848C58.1004 17.2694 58.0071 17.6507 57.8204 17.992C57.6338 18.3334 57.3778 18.6027 57.0524 18.8C56.7324 18.9974 56.3671 19.096 55.9564 19.096C55.6098 19.096 55.2924 19.0187 55.0044 18.864C54.7218 18.7094 54.5031 18.4907 54.3484 18.208L54.4684 18.08V20.6H53.7244ZM55.9004 18.376C56.1724 18.376 56.4151 18.3094 56.6284 18.176C56.8418 18.0427 57.0071 17.8614 57.1244 17.632C57.2471 17.3974 57.3084 17.136 57.3084 16.848C57.3084 16.5494 57.2471 16.288 57.1244 16.064C57.0071 15.8347 56.8418 15.6534 56.6284 15.52C56.4151 15.3814 56.1724 15.312 55.9004 15.312C55.6284 15.312 55.3831 15.3787 55.1644 15.512C54.9511 15.6454 54.7804 15.8294 54.6524 16.064C54.5298 16.2934 54.4684 16.5547 54.4684 16.848C54.4684 17.136 54.5298 17.3974 54.6524 17.632C54.7804 17.8614 54.9511 18.0427 55.1644 18.176C55.3831 18.3094 55.6284 18.376 55.9004 18.376Z" fill="white"/>
    <defs>
        <linearGradient id="paint0_linear_735_1775" x1="288.239" y1="121.419" x2="288.231" y2="81.8846" gradientUnits="userSpaceOnUse">
            <stop stop-color="#EDEDED"/>
            <stop offset="0.0552147" stop-color="#FEFEFE"/>
            <stop offset="0.544" stop-color="#EAEAEA"/>
            <stop offset="1" stop-color="#EAEAEA"/>
        </linearGradient>
    </defs>
</svg>
